<svg id="visual" viewBox="0 0 900 600" width="900" height="600" xmlns="http://www.w3.org/2000/svg" xmlns:xlink="http://www.w3.org/1999/xlink" version="1.1">
  <rect x="0" y="0" width="900" height="600" fill="transparent"></rect>
  <g transform="translate(900, 600)">
    <path d="M-486.7 0C-462 -56.1 -437.3 -112.2 -417.6 -173C-397.9 -233.7 -383.3 -299.2 -344.2 -344.2C-305 -389.2 -241.3 -413.9 -179.9 -434.2C-118.4 -454.6 -59.2 -470.7 0 -486.7L0 0Z" fill="rgba(0,0,0,0.14)"></path>
    <path d="M-417.2 0C-396 -48.1 -374.8 -96.2 -357.9 -148.3C-341.1 -200.3 -328.6 -256.4 -295 -295C-261.5 -333.6 -206.8 -354.7 -154.2 -372.2C-101.5 -389.6 -50.7 -403.4 0 -417.2L0 0Z" fill="rgba(0,0,0,0.28)"></path>
    <path d="M-347.7 0C-330 -40.1 -312.3 -80.2 -298.3 -123.6C-284.2 -167 -273.8 -213.7 -245.8 -245.8C-217.9 -278 -172.4 -295.6 -128.5 -310.2C-84.6 -324.7 -42.3 -336.2 0 -347.7L0 0Z" fill="rgba(0,0,0,0.42)"></path>
    <path d="M-278.1 0C-264 -32.1 -249.9 -64.1 -238.6 -98.8C-227.4 -133.6 -219 -170.9 -196.7 -196.7C-174.3 -222.4 -137.9 -236.5 -102.8 -248.1C-67.7 -259.8 -33.8 -269 0 -278.1L0 0Z" fill="rgba(0,0,0,0.56)"></path>
    <path d="M-208.6 0C-198 -24 -187.4 -48.1 -179 -74.1C-170.5 -100.2 -164.3 -128.2 -147.5 -147.5C-130.7 -166.8 -103.4 -177.4 -77.1 -186.1C-50.7 -194.8 -25.4 -201.7 0 -208.6L0 0Z" fill="rgba(0,0,0,0.70)"></path>
    <path d="M-139.1 0C-132 -16 -124.9 -32.1 -119.3 -49.4C-113.7 -66.8 -109.5 -85.5 -98.3 -98.3C-87.2 -111.2 -68.9 -118.2 -51.4 -124.1C-33.8 -129.9 -16.9 -134.5 0 -139.1L0 0Z" fill="rgba(0,0,0,0.84)"></path>
    <path d="M-69.5 0C-66 -8 -62.5 -16 -59.7 -24.7C-56.8 -33.4 -54.8 -42.7 -49.2 -49.2C-43.6 -55.6 -34.5 -59.1 -25.7 -62C-16.9 -64.9 -8.5 -67.2 0 -69.5L0 0Z" fill="rfba(0,0,0,1)"></path>
  </g>
  <g transform="translate(0, 0)">
    <path d="M486.7 0C480.5 64.4 474.2 128.8 449.7 186.3C425.2 243.7 382.6 294.2 335.2 335.2C287.7 376.2 235.4 407.8 178.7 431.5C122 455.1 61 470.9 0 486.7L0 0Z" fill="rgba(0,0,0,0.14)"></path>
    <path d="M417.2 0C411.8 55.2 406.4 110.4 385.5 159.7C364.5 208.9 328 252.1 287.3 287.3C246.6 322.4 201.8 349.5 153.2 369.8C104.6 390.1 52.3 403.7 0 417.2L0 0Z" fill="rgba(0,0,0,0.28)"></path>
    <path d="M347.7 0C343.2 46 338.7 92 321.2 133.1C303.7 174.1 273.3 210.1 239.4 239.4C205.5 268.7 168.1 291.3 127.7 308.2C87.2 325.1 43.6 336.4 0 347.7L0 0Z" fill="rgba(0,0,0,0.42)"></path>
    <path d="M278.1 0C274.5 36.8 270.9 73.6 257 106.4C243 139.3 218.6 168.1 191.5 191.5C164.4 215 134.5 233 102.1 246.5C69.7 260.1 34.9 269.1 0 278.1L0 0Z" fill="rgba(0,0,0,0.56)"></path>
    <path d="M208.6 0C205.9 27.6 203.2 55.2 192.7 79.8C182.2 104.4 164 126.1 143.6 143.6C123.3 161.2 100.9 174.8 76.6 184.9C52.3 195.1 26.2 201.8 0 208.6L0 0Z" fill="rgba(0,0,0,0.70)"></path>
    <path d="M139.1 0C137.3 18.4 135.5 36.8 128.5 53.2C121.5 69.6 109.3 84 95.8 95.8C82.2 107.5 67.3 116.5 51.1 123.3C34.9 130 17.4 134.6 0 139.1L0 0Z" fill="rgba(0,0,0,0.84)"></path>
    <path d="M69.5 0C68.6 9.2 67.7 18.4 64.2 26.6C60.7 34.8 54.7 42 47.9 47.9C41.1 53.7 33.6 58.3 25.5 61.6C17.4 65 8.7 67.3 0 69.5L0 0Z" fill="rfba(0,0,0,1)"></path>
  </g>
</svg>