<?xml version="1.0" encoding="UTF-8"?>
<svg id="Capa_2" data-name="Capa 2" xmlns="http://www.w3.org/2000/svg" viewBox="0 0 46.68 29.06">
  <defs>
    <style>
      .cls-1 {
        fill: #183f73;
      }

      .cls-1, .cls-2, .cls-3, .cls-4, .cls-5 {
        stroke-width: 0px;
      }

      .cls-2 {
        fill: #fff;
      }

      .cls-3 {
        fill: #cceafc;
      }

      .cls-4 {
        fill: #204f8f;
        fill-rule: evenodd;
      }

      .cls-5 {
        fill: #2295d2;
      }
    </style>
  </defs>
  <g id="Capa_1-2" data-name="Capa 1">
    <g>
      <path class="cls-5" d="m36.1,15.35l-2.5-1.44,9.22-5.32c.44-.25.44-.66,0-.91l-9.42-5.44c-.44-.25-1.14-.25-1.58,0l-9.22,5.32-2.5-1.44L29.32.79c1.81-1.05,4.77-1.05,6.58,0l9.42,5.44c1.81,1.05,1.81,2.75,0,3.8l-9.22,5.32Z"/>
      <g>
        <path class="cls-3" d="m40.14,15.98c0-1.34-.81-2.89-1.82-3.47L21.61,2.87c-.45-.26-.86-.28-1.18-.1h0S.49,14.36.49,14.36l19.29,14.54,19.65-11.41c.06-.03.12-.06.17-.1h0s0,0,0,0c.33-.25.53-.74.53-1.4Z"/>
        <path class="cls-1" d="m19.78,28.9l19.65-11.41c.06-.03.12-.06.17-.1h0s0,0,0,0c.33-.25.53-.74.53-1.4s-.19-1.32-.49-1.93l-22.4,12.93,2.53,1.91Z"/>
        <path class="cls-5" d="m18.52,28.84L1.82,19.2c-1-.58-1.82-2.13-1.82-3.47h0c0-1.34.81-1.95,1.82-1.37l16.71,9.65c1,.58,1.82,2.13,1.82,3.47h0c0,1.34-.81,1.95-1.82,1.37Z"/>
      </g>
      <path class="cls-2" d="m16.02,25.59l-2.01-1.16c-.2-.12-.36-.42-.36-.69h0c0-.27.16-.39.36-.27l2.01,1.16c.2.12.36.43.36.69h0c0,.27-.16.39-.36.27Z"/>
      <g>
        <path class="cls-4" d="m19.4,17.34c.11.18-.02.37-.23.44-.18.06-.5-.03-.62-.05-.26-.06-.5-.13-.68-.2-2.79-1.02-3.89-3.61-2.47-5.78s4.61-3.19,7.22-2.24c.34.12.7.42.75.48,1.63,1.81-1.06,3.57-5.89,2.15-.68-.2-1.34.37-1,.86l1.96,2.8c.18.25.57.92.95,1.54Z"/>
        <path class="cls-4" d="m25.5,15.42c-.58.88-1.46,1.69-2.53,1.99-.17.05-.35.03-.44-.08l-2.29-2.61c-.4-.46.18-1.07.88-.93,5.11,1.03,4.71-.87,3.75-2.88-.03-.06.08-.11.13-.06,1.26,1.25,1.53,3.02.51,4.58Z"/>
      </g>
    </g>
  </g>
</svg>