<?xml version="1.0" encoding="UTF-8"?>
<svg id="Capa_2" data-name="Capa 2" xmlns="http://www.w3.org/2000/svg" xmlns:xlink="http://www.w3.org/1999/xlink" viewBox="0 0 172.58 173.8">
  <defs>
    <style>
      .cls-1 {
        fill: #204f8f;
      }

      .cls-1, .cls-2 {
        stroke-width: 0px;
      }

      .cls-2 {
        fill: url(#Degradado_sin_nombre_70);
      }
    </style>
    <linearGradient id="Degradado_sin_nombre_70" data-name="Degradado sin nombre 70" x1="0" y1="86.9" x2="168.6" y2="86.9" gradientUnits="userSpaceOnUse">
      <stop offset="0" stop-color="#cccfe4"/>
      <stop offset=".02" stop-color="#c4c9e0"/>
      <stop offset=".22" stop-color="#8b9ec3"/>
      <stop offset=".4" stop-color="#5d7cac"/>
      <stop offset=".56" stop-color="#3d639c"/>
      <stop offset=".7" stop-color="#295492"/>
      <stop offset=".79" stop-color="#224f8f"/>
      <stop offset=".89" stop-color="#1f4782"/>
      <stop offset="1" stop-color="#1e447c"/>
    </linearGradient>
  </defs>
  <g id="Capa_1-2" data-name="Capa 1">
    <g>
      <path class="cls-1" d="m164.84,121.02c-.34,0-.68-.05-1.02-.17-1.66-.56-2.55-2.36-1.98-4.02,1.77-5.22,3-10.65,3.66-16.13.21-1.74,1.79-2.98,3.52-2.77,1.74.21,2.98,1.79,2.77,3.52-.71,5.92-2.04,11.77-3.95,17.41-.45,1.32-1.68,2.15-3,2.15Z"/>
      <path class="cls-1" d="m169.4,94.45s-.04,0-.06,0c-1.75-.03-3.14-1.48-3.11-3.23.03-1.68,0-2.12-.1-3.31-.03-.4-.07-.87-.11-1.48-.12-1.75,1.2-3.26,2.94-3.38,1.75-.13,3.26,1.2,3.38,2.94.04.58.08,1.03.11,1.42.1,1.25.15,1.94.11,3.93-.03,1.73-1.45,3.11-3.17,3.11Z"/>
      <path class="cls-2" d="m86.9,173.8c-19.78,0-38.4-6.47-53.87-18.7C12.04,138.49,0,113.63,0,86.89,0,38.98,38.98,0,86.9,0c36.17,0,68.92,22.77,81.5,56.66.61,1.64-.23,3.46-1.87,4.07-1.64.61-3.46-.23-4.07-1.87C150.8,27.45,120.43,6.34,86.9,6.34,42.48,6.34,6.34,42.47,6.34,86.89c0,24.79,11.16,47.84,30.63,63.23,14.33,11.34,31.6,17.34,49.94,17.34,17.15,0,33.51-5.31,47.32-15.36,1.42-1.03,3.4-.72,4.43.7,1.03,1.42.72,3.4-.7,4.43-14.9,10.84-32.55,16.58-51.05,16.58Z"/>
      <path class="cls-1" d="m143.96,151.35c-.85,0-1.7-.34-2.32-1.01-1.19-1.28-1.12-3.29.16-4.48,6.17-5.75,11.38-12.38,15.49-19.72.85-1.53,2.78-2.07,4.31-1.22,1.53.85,2.07,2.78,1.22,4.31-4.43,7.92-10.05,15.08-16.7,21.27-.61.57-1.39.85-2.16.85Z"/>
    </g>
  </g>
</svg>