<?xml version="1.0" encoding="UTF-8"?>
<svg id="Capa_2" data-name="Capa 2" xmlns="http://www.w3.org/2000/svg" xmlns:xlink="http://www.w3.org/1999/xlink" viewBox="0 0 81.5 55.44">
  <defs>
    <style>
      .cls-1 {
        fill: #d0deb8;
        filter: url(#drop-shadow-1);
        stroke-width: 0px;
      }
    </style>
    <filter id="drop-shadow-1" filterUnits="userSpaceOnUse">
      <feOffset dx="7" dy="3"/>
      <feGaussianBlur result="blur" stdDeviation="2"/>
      <feFlood flood-color="#1d1d1b" flood-opacity=".45"/>
      <feComposite in2="blur" operator="in"/>
      <feComposite in="SourceGraphic"/>
    </filter>
  </defs>
  <g id="Capa_1-2" data-name="Capa 1">
    <path class="cls-1" d="m8.21,45.81c-.54-1.44-2.64-6.21-7.94-10.1-.61-.45-.11-1.41.61-1.18l6.59,2.11c.44.14.89-.18.88-.64-.05-3.58-2.3-14.33-5.59-20.74-.26-.51.34-1.02.8-.67,3.02,2.26,8.65,7.17,11.53,13.95.28.67,1.27.49,1.3-.23l.39-10.84c.06-1.52,2.27-1.63,2.47-.12l1.12,8.53c.1.76,1.18.79,1.33.05l4.38-21.18c.16-.76,1.26-.7,1.33.07l2.43,25.02V8.74c0-.76,1.07-.94,1.32-.22l5.97,17.45c.24.72,1.3.56,1.31-.2.11-6.51.86-18.91,4.82-22.38.46-.41,1.19-.03,1.12.58-.51,4.66-2.04,20.17-.34,24.9.18.49.82.6,1.16.21,1.45-1.7,4.83-6.04,5.18-9.96.06-.69.96-.89,1.27-.27,1.27,2.53,2.55,6.66,1.09,11.59-.18.6.47,1.11,1,.77,3.57-2.31,11.82-7.21,14.34-5.09.33.28.28.76-.06,1.02-2.68,2.08-14.52,11.68-13.92,18.37.04.39-.31.72-.7.72H8.84c-.28,0-.53-.17-.63-.43Z"/>
  </g>
</svg>