<?xml version="1.0" encoding="UTF-8"?>
<svg id="Capa_2" data-name="Capa 2" xmlns="http://www.w3.org/2000/svg" xmlns:xlink="http://www.w3.org/1999/xlink" viewBox="0 0 638.64 112.32">
  <defs>
    <style>
      .cls-1 {
        fill: #c1acd3;
        filter: url(#drop-shadow-1);
        stroke-width: 0px;
      }
    </style>
    <filter id="drop-shadow-1" filterUnits="userSpaceOnUse">
      <feOffset dx="11" dy="-3"/>
      <feGaussianBlur result="blur" stdDeviation="4"/>
      <feFlood flood-color="#1d1d1b" flood-opacity=".28"/>
      <feComposite in2="blur" operator="in"/>
      <feComposite in="SourceGraphic"/>
    </filter>
  </defs>
  <g id="Capa_1-2" data-name="Capa 1">
    <path class="cls-1" d="m615.63,85.15c0,6.37-1.27,12.44-3.58,17.98H1.17C1.17,56.39,39.06,18.51,85.8,18.51c25.82,0,48.94,11.57,64.46,29.81,2.1-.24,4.23-.38,6.39-.38,15.2,0,28.95,6.14,38.93,16.07,5.45-5.51,13.01-8.92,21.36-8.92,4.49,0,8.74.99,12.57,2.75,10.63-25.06,35.47-42.63,64.4-42.63,24.61,0,46.24,12.71,58.71,31.92,3.52-1.19,7.3-1.85,11.23-1.85,15.09,0,27.95,9.56,32.85,22.96.7-.04,1.41-.07,2.12-.07,8.96,0,17.13,3.38,23.32,8.92,6.29-9.2,16.88-15.23,28.87-15.23,2.75,0,5.43.33,8,.93,2.67-23.28,22.44-41.36,46.43-41.36,17.19,0,32.21,9.29,40.33,23.1,6.81-3.88,14.7-6.11,23.1-6.11,25.82,0,46.75,20.93,46.75,46.75Z"/>
  </g>
</svg>