<?xml version="1.0" encoding="UTF-8"?>
<svg id="Capa_2" data-name="Capa 2" xmlns="http://www.w3.org/2000/svg" xmlns:xlink="http://www.w3.org/1999/xlink" viewBox="0 0 30.86 45.13">
  <defs>
    <style>
      .cls-1 {
        fill: #c1acd3;
        stroke-width: 0px;
      }

      .cls-2 {
        filter: url(#drop-shadow-1);
      }
    </style>
    <filter id="drop-shadow-1" filterUnits="userSpaceOnUse">
      <feOffset dx="7" dy="3"/>
      <feGaussianBlur result="blur" stdDeviation="2"/>
      <feFlood flood-color="#1d1d1b" flood-opacity=".45"/>
      <feComposite in2="blur" operator="in"/>
      <feComposite in="SourceGraphic"/>
    </filter>
  </defs>
  <g id="Capa_1-2" data-name="Capa 1">
    <g class="cls-2">
      <path class="cls-1" d="m2.51,17.08c.83,2.06,2.85,4.64,7.74,5.84,0,0,1.55-4.66-5.66-7.87-1.29-.57-2.61.72-2.08,2.03Z"/>
      <path class="cls-1" d="m18.88,19.69c-4.34,1.93-6.33,4.25-7.2,6.23V2.69c0-.17-.14-.31-.31-.31h-.67c-.17,0-.31.14-.31.31v27.84c-1.12-2.11-3.49-5.3-8.12-6.97-1.43-.51-2.76.97-2.09,2.32,1.6,3.2,4.81,7.56,10.21,6.85v3.24c-1.12-1-3.04-2.22-5.99-2.61-1.75-.23-2.72,1.98-1.4,3.15,1.93,1.73,4.65,3.25,7.39,1.82v6.49c0,.17.14.31.31.31h.67c.17,0,.31-.14.31-.31v-4.64c3.07-.04,4.92-1.94,5.92-3.51.63-.99-.13-2.3-1.3-2.23-2.32.13-3.75,1.32-4.62,2.57v-6.78c6.29-1.67,8.93-5.06,10.02-7.79.71-1.77-1.08-3.52-2.82-2.75Z"/>
      <path class="cls-1" d="m10.39,11.69s.13-6.09-6.42-9.39c-1.71-.86-3.63.85-2.96,2.65.95,2.57,3.37,5.64,9.39,6.74Z"/>
      <path class="cls-1" d="m18.04,3.01c.89-2.39-2.32-4.18-3.8-2.1-2.47,3.46-2.56,8.01-2.56,8.01,3.8-1.5,5.58-3.79,6.36-5.91Z"/>
      <path class="cls-1" d="m17.87,12.9c1.06-2.28-1.82-4.29-3.57-2.49-2.27,2.33-2.63,6.52-2.63,6.52,3.69-.63,5.42-2.35,6.2-4.04Z"/>
    </g>
  </g>
</svg>