<?xml version="1.0" encoding="UTF-8"?>
<svg id="Capa_2" data-name="Capa 2" xmlns="http://www.w3.org/2000/svg" xmlns:xlink="http://www.w3.org/1999/xlink" viewBox="0 0 894.79 417.61">
  <defs>
    <style>
      .cls-1 {
        filter: url(#drop-shadow-7);
      }

      .cls-2 {
        fill: #aab595;
      }

      .cls-2, .cls-3 {
        stroke-width: 0px;
      }

      .cls-4 {
        filter: url(#drop-shadow-4);
      }

      .cls-3 {
        fill: #c1acd3;
      }

      .cls-5 {
        filter: url(#drop-shadow-8);
      }

      .cls-6 {
        filter: url(#drop-shadow-3);
      }

      .cls-7 {
        filter: url(#drop-shadow-1);
      }

      .cls-8 {
        filter: url(#drop-shadow-6);
      }

      .cls-9 {
        filter: url(#drop-shadow-5);
      }

      .cls-10 {
        filter: url(#drop-shadow-2);
      }
    </style>
    <filter id="drop-shadow-1" filterUnits="userSpaceOnUse">
      <feOffset dx="5" dy="-2"/>
      <feGaussianBlur result="blur" stdDeviation="5"/>
      <feFlood flood-color="#1d1d1b" flood-opacity=".44"/>
      <feComposite in2="blur" operator="in"/>
      <feComposite in="SourceGraphic"/>
    </filter>
    <filter id="drop-shadow-2" filterUnits="userSpaceOnUse">
      <feOffset dx="5" dy="-2"/>
      <feGaussianBlur result="blur-2" stdDeviation="5"/>
      <feFlood flood-color="#1d1d1b" flood-opacity=".44"/>
      <feComposite in2="blur-2" operator="in"/>
      <feComposite in="SourceGraphic"/>
    </filter>
    <filter id="drop-shadow-3" filterUnits="userSpaceOnUse">
      <feOffset dx="5" dy="-2"/>
      <feGaussianBlur result="blur-3" stdDeviation="5"/>
      <feFlood flood-color="#1d1d1b" flood-opacity=".44"/>
      <feComposite in2="blur-3" operator="in"/>
      <feComposite in="SourceGraphic"/>
    </filter>
    <filter id="drop-shadow-4" filterUnits="userSpaceOnUse">
      <feOffset dx="5" dy="-2"/>
      <feGaussianBlur result="blur-4" stdDeviation="5"/>
      <feFlood flood-color="#1d1d1b" flood-opacity=".44"/>
      <feComposite in2="blur-4" operator="in"/>
      <feComposite in="SourceGraphic"/>
    </filter>
    <filter id="drop-shadow-5" filterUnits="userSpaceOnUse">
      <feOffset dx="5" dy="-2"/>
      <feGaussianBlur result="blur-5" stdDeviation="5"/>
      <feFlood flood-color="#1d1d1b" flood-opacity=".44"/>
      <feComposite in2="blur-5" operator="in"/>
      <feComposite in="SourceGraphic"/>
    </filter>
    <filter id="drop-shadow-6" filterUnits="userSpaceOnUse">
      <feOffset dx="5" dy="-2"/>
      <feGaussianBlur result="blur-6" stdDeviation="5"/>
      <feFlood flood-color="#1d1d1b" flood-opacity=".44"/>
      <feComposite in2="blur-6" operator="in"/>
      <feComposite in="SourceGraphic"/>
    </filter>
    <filter id="drop-shadow-7" filterUnits="userSpaceOnUse">
      <feOffset dx="5" dy="-2"/>
      <feGaussianBlur result="blur-7" stdDeviation="5"/>
      <feFlood flood-color="#1d1d1b" flood-opacity=".44"/>
      <feComposite in2="blur-7" operator="in"/>
      <feComposite in="SourceGraphic"/>
    </filter>
    <filter id="drop-shadow-8" filterUnits="userSpaceOnUse">
      <feOffset dx="5" dy="-2"/>
      <feGaussianBlur result="blur-8" stdDeviation="5"/>
      <feFlood flood-color="#1d1d1b" flood-opacity=".44"/>
      <feComposite in2="blur-8" operator="in"/>
      <feComposite in="SourceGraphic"/>
    </filter>
  </defs>
  <g id="Capa_1-2" data-name="Capa 1">
    <g>
      <g class="cls-7">
        <path class="cls-2" d="m324.34,74.18c-11.46,4.2-21.08,28.47-21.24,54.26-2.11-11.95-7.88-18.8-14.81-15.99-3.62,1.47-6.99,5.34-9.73,10.67-2.64-5.02-6.72-7.28-11.36-5.43-5.63,2.26-10.6,9.97-13.21,19.48-2.42.17-5.01.8-7.71,1.94-14.98,6.28-27.61,25.42-27.61,42.49,0,2.19.21,4.21.6,6.07-4.77.72-10.11,2.38-15.81,5.05-14.71,6.9-28.06,18.71-35.61,30.6-4.05-7.92-10.71-11.22-18.37-7.66-12.67,5.91-23.31,28.28-23.87,50.37-1.78.12-3.65.65-5.6,1.65-9.6,4.93-17.93,19.48-21.04,35.41-3.21-6.41-8.89-8.8-15.45-5.34-8.21,4.32-15.3,16.42-17.96,29.51-3.34-1.77-7.43-1.66-11.88.76-1.16.63-2.3,1.39-3.42,2.27-4.76-13.22-14.92-18.78-26.92-12.57C6.09,326.65,0,382.94,0,410.39c0,15.81,170.66-152.58,170.66-152.58.16-.88.31-1.76.45-2.64.6.18,1.22.33,1.87.45l152.36-143.74,17.5-16.52c-2.85-15.32-9.97-24.31-18.5-21.19Z"/>
        <path class="cls-2" d="m344.4,93.9l3.33-3.14,16.39-15.46,57.08-53.84,17.84-17.9c-4.73-4.63-14.01-4.13-16.79-1.98-5.13,3.96-4.52,8.04-6.64,17.62.71-.21-8.16-3.43-14.95-1.45-6.19,1.93-11.4,12-12.17,23.14-1.84-2.51-4.52-3.58-7.55-2.56-4.68,1.58-8.69,7.65-10.02,14.58-2.46-2.34-5.3-3.18-8.36-2.11-9.04,3.16-16.76,21.79-18.16,43.1Z"/>
      </g>
      <g class="cls-10">
        <path class="cls-3" d="m27.63,392.75c-6.02-4.34-3.92-13.84-3.92-27.18,0-24.18,12.7-50.36,27.9-58.22,10.57-5.47,19.52-.57,23.71,11.07.99-.78,1.99-1.44,3.01-2,3.92-2.13,7.52-2.23,10.46-.67,2.34-11.53,8.59-22.19,15.82-25.99,5.78-3.05,10.78-.94,13.61,4.7,2.74-14.03,10.08-26.85,18.53-31.19,1.72-.88,3.36-1.35,4.93-1.45.49-19.46,9.87-39.16,21.03-44.37,6.75-3.14,12.61-.23,16.18,6.75,6.65-10.47,18.41-20.88,31.37-26.95,5.02-2.35,9.72-3.81,13.93-4.45-.34-1.64-.53-3.42-.53-5.35,0-15.04,11.13-31.9,24.32-37.43,2.38-1,4.66-1.56,6.79-1.71,2.3-8.38,6.68-15.17,11.64-17.16,4.09-1.63,7.68.36,10.01,4.78,2.41-4.69,5.38-8.1,8.57-9.4,6.1-2.48,11.19,3.56,13.05,14.08.14-22.72,8.61-44.09,18.71-47.79,7.51-2.75,13.79,5.17,16.3,18.66l-15.41,14.55-134.2,126.61c-.57-.11-1.12-.24-1.65-.4-.12.78-.26,1.55-.4,2.33,0,0-150.82,136.23-153.75,138.16Z"/>
        <path class="cls-3" d="m334.41,110.2l2.93-2.77,14.44-13.62,46.15-49.14,19.19-19.37c-2.12-6.04-7.31-3.28-15.04-1.11-8.61,2.42-16.03,10.44-17.9,18.88-.07.02-.15.04-.22.05-5.45,1.7-10.04,10.57-10.72,20.38-1.62-2.21-3.98-3.15-6.65-2.25-4.12,1.39-7.65,6.74-8.83,12.84-2.17-2.06-4.67-2.8-7.36-1.86-7.96,2.78-14.76,19.19-16,37.96Z"/>
      </g>
      <g class="cls-6">
        <path class="cls-2" d="m894.79,393.37c0,27.44-19.86,24.12-19.86,24.12l-159.13-150.12c-.16-.88-.31-1.76-.45-2.64-.6.18-1.22.33-1.87.45l-152.36-143.74-17.5-16.52c2.85-15.32,9.97-24.31,18.5-21.19,11.46,4.2,21.08,28.47,21.24,54.26,2.11-11.95,7.88-18.8,14.81-15.99,3.62,1.47,6.99,5.34,9.73,10.67,2.64-5.02,6.72-7.28,11.36-5.43,5.63,2.26,10.6,9.97,13.21,19.48,2.42.17,5.01.8,7.71,1.94,14.98,6.28,27.61,25.42,27.61,42.49,0,2.19-.21,4.21-.6,6.07,4.77.72,10.11,2.38,15.81,5.05,14.71,6.9,28.06,18.71,35.61,30.6,4.05-7.92,10.71-11.22,18.37-7.66,12.67,5.91,23.31,28.28,23.87,50.37,1.78.12,3.65.65,5.6,1.65,9.6,4.93,17.93,19.48,21.04,35.41,3.21-6.41,8.89-8.8,15.45-5.34,8.21,4.32,15.3,16.42,17.96,29.51,3.34-1.77,7.43-1.66,11.88.76,1.16.63,2.3,1.39,3.42,2.27,4.76-13.22,14.92-18.78,26.92-12.57,17.25,8.93,31.67,38.65,31.67,66.1Z"/>
        <path class="cls-2" d="m542.06,103.45l-3.33-3.14-16.39-15.46-57.14-56.98-25.04-24.96c6.48-4.09,15.24.14,17.2,1.62,4.72,3.57,9.83,9.57,10.47,16.12.08.02,9.7-1.18,15.45,2.9,6.24,4.44,13.93,15.76,14.7,26.9,1.84-2.51,4.52-3.58,7.55-2.56,4.68,1.58,8.69,7.65,10.02,14.58,2.46-2.34,5.3-3.18,8.36-2.11,9.04,3.16,16.76,21.79,18.16,43.1Z"/>
      </g>
      <g class="cls-4">
        <path class="cls-3" d="m847.32,392.29c2.81,2.08,5.71,4.05,8.63,5.98,6.02-4.34,9.9-13.89,9.9-27.23,0-24.18-12.7-50.36-27.9-58.22-10.57-5.47-19.52-.57-23.71,11.07-.99-.78-1.99-1.44-3.01-2-3.92-2.13-7.52-2.23-10.46-.67-2.34-11.53-8.59-22.19-15.82-25.99-5.78-3.05-10.78-.94-13.61,4.7-2.74-14.03-10.08-26.85-18.53-31.19-1.72-.88-3.36-1.35-4.93-1.45-.49-19.46-9.87-39.16-21.03-44.37-6.75-3.14-12.61-.23-16.18,6.75-6.65-10.47-18.41-20.88-31.37-26.95-5.02-2.35-9.72-3.81-13.93-4.45.34-1.64.53-3.42.53-5.35,0-15.04-11.13-31.9-24.32-37.43-2.38-1-4.66-1.56-6.79-1.71-2.3-8.38-6.68-15.17-11.64-17.16-4.09-1.63-7.68.36-10.01,4.78-2.41-4.69-5.38-8.1-8.57-9.4-6.1-2.48-11.19,3.56-13.05,14.08-.14-22.72-8.61-44.09-18.71-47.79-7.51-2.75-13.79,5.17-16.3,18.66l15.41,14.55,134.2,126.61c.57-.11,1.12-.24,1.65-.4.12.78.26,1.55.4,2.33l140.17,132.23h-1.04Z"/>
        <path class="cls-3" d="m555.15,115.67l-2.93-2.77-14.44-13.62-48.29-47.19-21.03-21.14c2.12-6.04,11.29-3.46,19.01-1.29,8.61,2.42,16.03,10.44,17.9,18.88.07.02.15.04.22.05,5.45,1.7,10.04,10.57,10.72,20.38,1.62-2.21,3.98-3.15,6.65-2.25,4.12,1.39,7.65,6.74,8.83,12.84,2.17-2.06,4.67-2.8,7.36-1.86,7.96,2.78,14.76,19.19,16,37.96Z"/>
      </g>
      <g class="cls-9">
        <path class="cls-2" d="m836.52,382c2.28-2.64,3.68-7.07,3.68-12.86,0-12.64-6.64-26.33-14.59-30.45-5.53-2.86-10.21-.3-12.4,5.79-.52-.41-1.04-.76-1.58-1.05-2.05-1.11-3.93-1.17-5.47-.35-1.23-6.03-4.49-11.6-8.27-13.59-3.02-1.59-5.64-.49-7.12,2.46-1.43-7.34-5.27-14.04-9.69-16.31-.9-.46-1.76-.7-2.58-.76-.26-10.17-5.16-20.48-10.99-23.2-3.53-1.64-6.6-.12-8.46,3.53-3.48-5.48-9.63-10.92-16.4-14.09-2.63-1.23-5.09-1.99-7.28-2.33.18-.86.28-1.79.28-2.8,0-7.86-5.82-16.68-12.72-19.57-1.24-.53-2.44-.82-3.55-.89-1.2-4.38-3.49-7.93-6.08-8.97-2.14-.85-4.02.19-5.23,2.5-1.26-2.46-2.81-4.24-4.48-4.91-3.19-1.29-5.85,1.86-6.82,7.37-.07-11.88-4.5-23.06-9.78-24.99-3.93-1.44-7.21,2.7-8.52,9.76l8.06,7.61,70.18,66.21c.3-.06.58-.12.86-.21.06.41.13.81.21,1.22,0,0,75.95,68.77,78.77,70.9Z"/>
        <path class="cls-2" d="m677.73,235.6l-1.53-1.45-7.55-7.12-26.32-26.25-11.74-11.08c1.11-3.16,7.72-.22,11.75.92,4.5,1.27,8.38,5.46,9.36,9.87.04,0,.08.02.12.03,2.85.89,5.25,5.53,5.61,10.66.85-1.16,2.08-1.65,3.48-1.18,2.16.73,4,3.52,4.62,6.72,1.13-1.08,2.44-1.46,3.85-.97,4.16,1.46,7.72,10.04,8.36,19.85Z"/>
      </g>
      <g class="cls-8">
        <path class="cls-2" d="m602.18,159.03c1.75,1.18,3.44,2.43,5.12,3.7,1.36-1.57,2.19-4.21,2.19-7.66,0-7.53-3.95-15.68-8.68-18.13-3.29-1.7-6.08-.18-7.38,3.45-.31-.24-.62-.45-.94-.62-1.22-.66-2.34-.69-3.26-.21-.73-3.59-2.67-6.91-4.92-8.09-1.8-.95-3.36-.29-4.24,1.46-.85-4.37-3.14-8.36-5.77-9.71-.53-.27-1.05-.42-1.54-.45-.15-6.06-3.07-12.19-6.55-13.81-2.1-.98-3.93-.07-5.04,2.1-2.07-3.26-5.73-6.5-9.76-8.39-1.56-.73-3.03-1.19-4.34-1.38.11-.51.16-1.06.16-1.66,0-4.68-3.46-9.93-7.57-11.65-.74-.31-1.45-.49-2.11-.53-.72-2.61-2.08-4.72-3.62-5.34-1.27-.51-2.39.11-3.12,1.49-.75-1.46-1.68-2.52-2.67-2.93-1.9-.77-3.48,1.11-4.06,4.38-.04-7.07-2.68-13.73-5.82-14.88-2.34-.86-4.29,1.61-5.07,5.81l4.8,4.53,41.78,39.41c.18-.03.35-.07.51-.12.04.24.08.48.12.72l40.69,38.38c.34-.13.73-.12,1.09.12Z"/>
        <path class="cls-2" d="m512.77,75.58l-.91-.86-4.49-4.24-15.67-15.62-6.99-6.6c.66-1.88,4.59-.13,7,.55,2.68.75,4.99,3.25,5.57,5.88.02,0,.05.01.07.02,1.7.53,3.13,3.29,3.34,6.35.5-.69,1.24-.98,2.07-.7,1.28.43,2.38,2.1,2.75,4,.67-.64,1.45-.87,2.29-.58,2.48.87,4.6,5.98,4.98,11.82Z"/>
      </g>
      <g class="cls-1">
        <path class="cls-2" d="m47,374.48c-2.28-2.64.08-6.77.08-12.57,0-12.64,6.64-26.33,14.59-30.45,5.53-2.86,10.21-.3,12.4,5.79.52-.41,1.04-.76,1.58-1.05,2.05-1.11,3.93-1.17,5.47-.35,1.23-6.03,4.49-11.6,8.27-13.59,3.02-1.59,5.64-.49,7.12,2.46,1.43-7.34,5.27-14.04,9.69-16.31.9-.46,1.76-.7,2.58-.76.26-10.17,5.16-20.48,10.99-23.2,3.53-1.64,6.6-.12,8.46,3.53,3.48-5.48,9.63-10.92,16.4-14.09,2.63-1.23,5.09-1.99,7.28-2.33-.18-.86-.28-1.79-.28-2.8,0-7.86,5.82-16.68,12.72-19.57,1.24-.53,2.44-.82,3.55-.89,1.2-4.38,3.49-7.93,6.08-8.97,2.14-.85,4.02.19,5.23,2.5,1.26-2.46,2.81-4.24,4.48-4.91,3.19-1.29,5.85,1.86,6.82,7.37.07-11.88,4.5-23.06,9.78-24.99,3.93-1.44,7.21,2.7,8.52,9.76l-8.06,7.61-70.18,66.21c-.3-.06-.58-.12-.86-.21-.06.41-.13.81-.21,1.22,0,0-79.71,68.47-82.53,70.6Z"/>
        <path class="cls-2" d="m209.56,228.37l1.53-1.45,7.55-7.12,26.32-26.25,11.74-11.08c-1.11-3.16-7.72-.22-11.75.92-4.5,1.27-8.38,5.46-9.36,9.87-.04,0-.08.02-.12.03-2.85.89-5.25,5.53-5.61,10.66-.85-1.16-2.08-1.65-3.48-1.18-2.16.73-4,3.52-4.62,6.72-1.13-1.08-2.44-1.46-3.85-.97-4.16,1.46-7.72,10.04-8.36,19.85Z"/>
      </g>
      <g class="cls-5">
        <path class="cls-2" d="m285.36,157.99c-1.42-1.51-2.37-4.11-2.52-7.56-.33-7.52,3.27-15.83,7.89-18.49,3.21-1.84,6.06-.44,7.52,3.12.3-.25.6-.48.91-.66,1.19-.72,2.31-.79,3.25-.35.57-3.62,2.37-7.02,4.57-8.3,1.76-1.03,3.34-.44,4.3,1.28.66-4.4,2.77-8.49,5.34-9.95.52-.3,1.03-.46,1.51-.52-.11-6.06,2.54-12.31,5.94-14.08,2.06-1.07,3.92-.24,5.12,1.88,1.93-3.35,5.44-6.74,9.39-8.81,1.53-.8,2.97-1.32,4.27-1.57-.13-.5-.21-1.06-.24-1.66-.2-4.68,3.03-10.07,7.06-11.97.73-.34,1.43-.55,2.09-.62.6-2.64,1.87-4.81,3.39-5.49,1.25-.56,2.39,0,3.18,1.35.69-1.49,1.56-2.59,2.54-3.04,1.87-.85,3.53.96,4.25,4.2-.26-7.07,2.08-13.83,5.17-15.12,2.3-.96,4.36,1.42,5.32,5.58l-4.6,4.73-40.03,41.19c-.18-.03-.35-.06-.52-.1-.03.24-.06.49-.09.73,0,0-43.39,42.86-45.02,44.2Z"/>
        <path class="cls-2" d="m376.02,66.81l.87-.9,4.31-4.43,14.98-16.29,6.7-6.89c-.74-1.85-4.59.07-6.97.85-2.64.87-4.84,3.46-5.31,6.11-.02,0-.05.01-.07.02-1.67.6-2.98,3.42-3.06,6.48-.53-.67-1.28-.93-2.1-.61-1.26.49-2.29,2.2-2.57,4.11-.7-.61-1.49-.81-2.32-.48-2.44.97-4.33,6.17-4.46,12.02Z"/>
      </g>
    </g>
  </g>
</svg>