<?xml version="1.0" encoding="UTF-8"?>
<svg id="Capa_2" data-name="Capa 2" xmlns="http://www.w3.org/2000/svg" xmlns:xlink="http://www.w3.org/1999/xlink" viewBox="0 0 153.84 90.96">
  <defs>
    <style>
      .cls-1 {
        fill: #a8daf1;
        filter: url(#drop-shadow-1);
        stroke-width: 0px;
      }
    </style>
    <filter id="drop-shadow-1" filterUnits="userSpaceOnUse">
      <feOffset dx="4" dy="1"/>
      <feGaussianBlur result="blur" stdDeviation="4"/>
      <feFlood flood-color="#1d1d1b" flood-opacity=".52"/>
      <feComposite in2="blur" operator="in"/>
      <feComposite in="SourceGraphic"/>
    </filter>
  </defs>
  <g id="Capa_1-2" data-name="Capa 1">
    <path class="cls-1" d="m121.34,49.68c-.5-11.54-10.01-20.73-21.68-20.73-4.35,0-8.4,1.28-11.79,3.48.22-1.13.34-2.29.34-3.48,0-9.88-8.01-17.89-17.89-17.89s-17.89,8.01-17.89,17.89c0,1,.08,1.98.24,2.93-.08-.01-.16-.01-.24-.01-6.69,0-12.42,4.15-14.73,10.02-2.68-1.25-5.66-1.95-8.81-1.95-11.54,0-20.89,9.35-20.89,20.89,0,7.04,3.49,13.27,8.84,17.05h119.28c1.02-2.45,1.59-5.15,1.59-7.97,0-9.94-7.02-18.25-16.37-20.23Zm-42.79-4.06c-.2-.17-.41-.33-.62-.48.29-.13.58-.28.86-.43-.09.3-.17.6-.24.91Z"/>
  </g>
</svg>