<?xml version="1.0" encoding="UTF-8"?>
<svg id="Capa_2" data-name="Capa 2" xmlns="http://www.w3.org/2000/svg" viewBox="0 0 869.88 410.33">
  <defs>
    <style>
      .cls-1 {
        fill: #696969;
        stroke: #1d1d1b;
        stroke-miterlimit: 10;
      }
    </style>
  </defs>
  <g id="Capa_1-2" data-name="Capa 1">
    <path class="cls-1" d="m554.81,113.78l-22.39-21.13-16.39-15.46-57.08-53.84L434.94.69l-46.04,43.44-34.86,32.88-16.32,15.4-23.87,22.52L1.26,409.83h867.36L554.81,113.78Zm-112.52-54.62c-.13-.32-.27-.63-.42-.94.49.15.99.31,1.5.44-.37.16-.73.33-1.08.5Zm1.08,22.02c-.37.16-.73.33-1.08.5-.13-.32-.27-.63-.42-.94.49.15.99.31,1.5.44Z"/>
  </g>
</svg>