<?xml version="1.0" encoding="UTF-8"?>
<svg id="Capa_2" data-name="Capa 2" xmlns="http://www.w3.org/2000/svg" xmlns:xlink="http://www.w3.org/1999/xlink" viewBox="0 0 423.6 76.32">
  <defs>
    <style>
      .cls-1 {
        fill: #d0deb8;
        filter: url(#drop-shadow-1);
        stroke-width: 0px;
      }
    </style>
    <filter id="drop-shadow-1" filterUnits="userSpaceOnUse">
      <feOffset dx="11" dy="-3"/>
      <feGaussianBlur result="blur" stdDeviation="4"/>
      <feFlood flood-color="#1d1d1b" flood-opacity=".28"/>
      <feComposite in2="blur" operator="in"/>
      <feComposite in="SourceGraphic"/>
    </filter>
  </defs>
  <g id="Capa_1-2" data-name="Capa 1">
    <path class="cls-1" d="m400.46,66.22c0,.31-.01.61-.02.91H1.1c4.23-16.72,19.38-29.11,37.42-29.11,10.06,0,19.22,3.85,26.08,10.15,6.67-11.55,19.15-19.34,33.45-19.34,5.73,0,11.17,1.26,16.07,3.51,4.84-10.2,15.22-17.25,27.26-17.25,7.86,0,15.01,3,20.38,7.92,5.37-4.92,12.52-7.92,20.38-7.92,11.68,0,21.81,6.65,26.82,16.37,3.21-1.68,6.86-2.63,10.74-2.63,9.26,0,17.25,5.4,21.01,13.22,3.73-2.54,8.24-4.03,13.1-4.03s9.21,1.44,12.91,3.91c5.09-13.9,18.44-23.82,34.1-23.82,19.49,0,35.39,15.36,36.26,34.64.85-.08,1.72-.13,2.6-.13,4.33,0,8.42,1.09,11.99,2.99,4.03-8.81,12.92-14.93,23.24-14.93,14.11,0,25.55,11.43,25.55,25.54Z"/>
  </g>
</svg>