<?xml version="1.0" encoding="UTF-8"?>
<svg id="Capa_2" data-name="Capa 2" xmlns="http://www.w3.org/2000/svg" xmlns:xlink="http://www.w3.org/1999/xlink" viewBox="0 0 147.02 64.23">
  <defs>
    <style>
      .cls-1 {
        fill: #e8efdc;
      }

      .cls-1, .cls-2, .cls-3, .cls-4, .cls-5 {
        stroke-width: 0px;
      }

      .cls-2, .cls-4, .cls-5 {
        fill: #d0deb8;
      }

      .cls-3 {
        fill: #a5af94;
      }

      .cls-4 {
        filter: url(#drop-shadow-2);
      }

      .cls-5 {
        filter: url(#drop-shadow-1);
      }

      .cls-6 {
        fill: none;
        stroke: #fff;
        stroke-dasharray: 0 2.62;
        stroke-miterlimit: 10;
        stroke-width: 1.1px;
      }
    </style>
    <filter id="drop-shadow-1" filterUnits="userSpaceOnUse">
      <feOffset dx="7" dy="3"/>
      <feGaussianBlur result="blur" stdDeviation="2"/>
      <feFlood flood-color="#1d1d1b" flood-opacity=".45"/>
      <feComposite in2="blur" operator="in"/>
      <feComposite in="SourceGraphic"/>
    </filter>
    <filter id="drop-shadow-2" filterUnits="userSpaceOnUse">
      <feOffset dx="7" dy="3"/>
      <feGaussianBlur result="blur-2" stdDeviation="2"/>
      <feFlood flood-color="#1d1d1b" flood-opacity=".45"/>
      <feComposite in2="blur-2" operator="in"/>
      <feComposite in="SourceGraphic"/>
    </filter>
  </defs>
  <g id="Capa_1-2" data-name="Capa 1">
    <g>
      <line class="cls-6" x1="19.92" y1="20.85" x2="17.3" y2="20.86"/>
      <path class="cls-5" d="m112.47,26.04c-2.51-2.12-10.76,2.78-14.34,5.09-.53.34-1.17-.17-1-.77,1.45-4.93.18-9.05-1.09-11.59-.31-.62-1.21-.41-1.27.27-.35,3.92-3.73,8.25-5.18,9.96-.34.4-.98.29-1.16-.21-1.7-4.73-.17-20.25.34-24.9.07-.61-.66-.99-1.12-.58-3.96,3.46-4.71,15.87-4.82,22.38-.01.76-1.07.91-1.31.2l-5.97-17.45c-.25-.72-1.32-.55-1.32.22v21.09l-2.43-25.02c-.07-.77-1.18-.83-1.33-.07l-4.38,21.18c-.03.14-.1.24-.17.32-.18.06-.37.13-.56.2-.28-.03-.55-.22-.6-.58l-1.12-8.53c-.2-1.51-2.42-1.4-2.47.12l-.39,10.84c0,.15-.06.28-.14.38-.16.09-.32.18-.47.26-.27.03-.55-.1-.69-.41-1.05-2.48-2.47-4.7-3.99-6.63-.32-1.17-.75-2.2-1.17-3.04-.31-.61-1.18-.42-1.27.24-1.9-1.98-3.76-3.51-5.1-4.51-.46-.34-1.06.16-.8.67,1.43,2.78,2.66,6.38,3.6,9.86-1.04,1.7-2.19,3.14-2.89,3.96-.34.4-.98.29-1.16-.21-1.7-4.73-.17-20.25.34-24.9.07-.61-.66-.99-1.12-.58-3.96,3.46-4.71,15.87-4.82,22.38-.01.76-1.07.91-1.31.2l-5.97-17.45c-.25-.72-1.32-.55-1.32.22v21.09l-2.43-25.02c-.08-.77-1.18-.83-1.33-.07l-4.38,21.18c-.15.75-1.23.71-1.33-.05l-1.12-8.53c-.2-1.51-2.42-1.4-2.47.12l-.39,10.84c-.03.73-1.01.9-1.29.23-2.87-6.78-8.51-11.68-11.53-13.95-.46-.34-1.06.16-.8.67,3.29,6.41,5.54,17.16,5.59,20.74,0,.46-.44.78-.88.64l-6.59-2.11c-.72-.23-1.22.73-.61,1.18,5.3,3.89,7.4,8.66,7.94,10.1.1.26.35.43.63.43h86.3c.39,0,.74-.33.7-.72-.61-6.69,11.24-16.29,13.92-18.37.34-.26.39-.75.06-1.02Z"/>
      <path class="cls-4" d="m88.61,51.42c-.41-1.08-1.99-4.68-5.98-7.61-.46-.34-.08-1.06.46-.89l4.96,1.59c.33.11.67-.14.66-.48-.04-2.7-1.73-10.79-4.21-15.62-.2-.38.26-.77.6-.51,2.27,1.71,6.52,5.4,8.68,10.5.21.5.96.37.98-.18l.3-8.17c.04-1.15,1.71-1.23,1.86-.09l.85,6.42c.07.57.89.6,1,.04l3.3-15.95c.12-.57.95-.53,1.01.05l1.83,18.85v-15.89c0-.58.8-.71.99-.16l4.49,13.15c.18.54.98.42.99-.15.09-4.9.65-14.25,3.63-16.85.35-.31.9-.02.85.44-.38,3.51-1.54,15.19-.26,18.76.13.37.61.46.87.16,1.09-1.28,3.64-4.55,3.9-7.5.05-.52.73-.67.96-.21.96,1.91,1.92,5.01.82,8.73-.13.45.35.84.75.58,2.69-1.74,8.91-5.43,10.8-3.83.25.21.21.57-.05.77-2.02,1.57-10.94,8.8-10.48,13.84.03.3-.23.54-.53.54h-33.57c-.21,0-.4-.13-.47-.32Z"/>
      <g>
        <path class="cls-3" d="m39.83,44.32c0,11-8.92,19.91-19.91,19.91S0,55.32,0,44.32s8.92-19.92,19.92-19.92c.74,0,1.47.04,2.19.12,9.24,1.01,16.58,8.36,17.6,17.6.08.72.12,1.46.12,2.2Z"/>
        <path class="cls-2" d="m39.71,42.12c-.95,7.8-7.6,13.84-15.66,13.84-8.71,0-15.77-7.07-15.77-15.78,0-8.05,6.04-14.71,13.83-15.66,9.24,1.01,16.58,8.36,17.6,17.6Z"/>
        <circle class="cls-1" cx="26.93" cy="37.04" r="7.28"/>
      </g>
    </g>
  </g>
</svg>