<?xml version="1.0" encoding="UTF-8"?>
<svg id="Capa_2" data-name="Capa 2" xmlns="http://www.w3.org/2000/svg" xmlns:xlink="http://www.w3.org/1999/xlink" viewBox="0 0 2262 112.08">
  <defs>
    <style>
      .cls-1 {
        filter: url(#drop-shadow-1);
      }

      .cls-1, .cls-2 {
        fill: #c1acd3;
        stroke-width: 0px;
      }

      .cls-2 {
        filter: url(#drop-shadow-2);
      }
    </style>
    <filter id="drop-shadow-1" filterUnits="userSpaceOnUse">
      <feOffset dx="11" dy="-3"/>
      <feGaussianBlur result="blur" stdDeviation="4"/>
      <feFlood flood-color="#1d1d1b" flood-opacity=".28"/>
      <feComposite in2="blur" operator="in"/>
      <feComposite in="SourceGraphic"/>
    </filter>
    <filter id="drop-shadow-2" filterUnits="userSpaceOnUse">
      <feOffset dx="11" dy="-3"/>
      <feGaussianBlur result="blur-2" stdDeviation="4"/>
      <feFlood flood-color="#1d1d1b" flood-opacity=".28"/>
      <feComposite in2="blur-2" operator="in"/>
      <feComposite in="SourceGraphic"/>
    </filter>
  </defs>
  <g id="Capa_1-2" data-name="Capa 1">
    <g>
      <path class="cls-1" d="m568.8,38.3c-8.41,0-16.29,2.23-23.1,6.11-8.12-13.82-23.14-23.1-40.33-23.1-23.99,0-43.76,18.08-46.43,41.36-2.57-.6-5.24-.93-8-.93-11.99,0-22.57,6.04-28.87,15.23-6.19-5.54-14.36-8.92-23.32-8.92-.71,0-1.41.03-2.12.07-4.9-13.4-17.76-22.96-32.85-22.96-3.93,0-7.71.66-11.23,1.85-12.47-19.21-34.1-31.92-58.71-31.92-28.93,0-53.77,17.57-64.4,42.63-3.83-1.76-8.08-2.75-12.57-2.75-8.35,0-15.91,3.41-21.36,8.92-9.98-9.93-23.73-16.07-38.93-16.07-2.16,0-4.3.13-6.39.38-15.52-18.24-38.64-29.81-64.46-29.81C38.98,18.41,1.1,56.3,1.1,103.03h610.87c2.31-5.54,3.58-11.61,3.58-17.98,0-25.82-20.93-46.75-46.75-46.75Z"/>
      <path class="cls-2" d="m2176.29,40.52c-19.08,0-36.15,8.54-47.62,22.02-1.55-.18-3.12-.28-4.72-.28-11.23,0-21.38,4.53-28.76,11.87-4.03-4.07-9.61-6.59-15.78-6.59-3.32,0-6.46.73-9.28,2.03-7.86-18.51-26.2-31.49-47.58-31.49-18.18,0-34.16,9.39-43.37,23.58-2.6-.88-5.39-1.37-8.3-1.37-11.15,0-20.65,7.06-24.27,16.96-.52-.03-1.04-.05-1.56-.05-6.62,0-12.65,2.49-17.23,6.59-4.65-6.79-12.47-11.25-21.32-11.25-2.04,0-4.01.24-5.91.68-1.97-17.2-16.58-30.55-34.3-30.55-12.7,0-23.79,6.86-29.79,17.07-5.03-2.87-10.86-4.51-17.07-4.51-7.2,0-13.88,2.2-19.42,5.97-14.57-25.54-42.03-42.78-73.54-42.78-25.82,0-48.94,11.57-64.46,29.81-2.1-.24-4.23-.38-6.39-.38-15.2,0-28.95,6.14-38.93,16.07-5.45-5.51-13.01-8.92-21.36-8.92-4.49,0-8.74.99-12.57,2.75-10.63-25.06-35.47-42.63-64.4-42.63-24.61,0-46.24,12.71-58.71,31.92-3.52-1.19-7.3-1.85-11.23-1.85-15.09,0-27.95,9.56-32.85,22.96-.7-.04-1.41-.07-2.12-.07-8.96,0-17.13,3.38-23.32,8.92-6.29-9.2-16.88-15.23-28.87-15.23-2.75,0-5.43.33-8,.93-2.67-23.28-22.44-41.36-46.43-41.36-17.19,0-32.21,9.29-40.33,23.1-6.81-3.88-14.7-6.11-23.1-6.11-11.45,0-21.94,4.12-30.06,10.96-8.13-6.83-18.61-10.96-30.07-10.96-8.41,0-16.29,2.23-23.1,6.11-8.12-13.82-23.14-23.1-40.33-23.1-23.99,0-43.76,18.08-46.43,41.36-2.57-.6-5.24-.93-8-.93-11.99,0-22.57,6.04-28.87,15.23-6.19-5.54-14.36-8.92-23.32-8.92-.71,0-1.41.03-2.12.07-4.9-13.4-17.76-22.96-32.85-22.96-3.93,0-7.71.66-11.23,1.85-12.47-19.21-34.1-31.92-58.71-31.92-28.93,0-53.77,17.57-64.4,42.63-3.83-1.76-8.08-2.75-12.57-2.75-8.35,0-15.91,3.41-21.36,8.92-9.98-9.93-23.73-16.07-38.93-16.07-2.16,0-4.3.13-6.39.38-15.52-18.24-38.64-29.81-64.46-29.81-46.74,0-84.62,37.89-84.62,84.62h1623.25c0-34.52-27.99-62.51-62.51-62.51Z"/>
    </g>
  </g>
</svg>