<?xml version="1.0" encoding="UTF-8"?>
<svg id="Capa_2" data-name="Capa 2" xmlns="http://www.w3.org/2000/svg" xmlns:xlink="http://www.w3.org/1999/xlink" viewBox="0 0 102.89 142.32">
  <defs>
    <style>
      .cls-1 {
        fill: url(#Degradado_sin_nombre_70-4);
      }

      .cls-1, .cls-2, .cls-3, .cls-4 {
        stroke-width: 0px;
      }

      .cls-2 {
        fill: url(#Degradado_sin_nombre_70);
      }

      .cls-2, .cls-3 {
        fill-rule: evenodd;
      }

      .cls-3 {
        fill: url(#Degradado_sin_nombre_70-2);
      }

      .cls-4 {
        fill: url(#Degradado_sin_nombre_70-3);
      }
    </style>
    <linearGradient id="Degradado_sin_nombre_70" data-name="Degradado sin nombre 70" x1="20.77" y1="31.78" x2="62.46" y2="31.78" gradientUnits="userSpaceOnUse">
      <stop offset="0" stop-color="#cccfe4"/>
      <stop offset=".02" stop-color="#c4c9e0"/>
      <stop offset=".22" stop-color="#8b9ec3"/>
      <stop offset=".4" stop-color="#5d7cac"/>
      <stop offset=".56" stop-color="#3d639c"/>
      <stop offset=".7" stop-color="#295492"/>
      <stop offset=".79" stop-color="#224f8f"/>
      <stop offset=".89" stop-color="#1f4782"/>
      <stop offset="1" stop-color="#1e447c"/>
    </linearGradient>
    <linearGradient id="Degradado_sin_nombre_70-2" data-name="Degradado sin nombre 70" x1="53.03" y1="27.26" x2="84.43" y2="27.26" xlink:href="#Degradado_sin_nombre_70"/>
    <linearGradient id="Degradado_sin_nombre_70-3" data-name="Degradado sin nombre 70" x1="0" y1="106.75" x2="102.89" y2="106.75" xlink:href="#Degradado_sin_nombre_70"/>
    <linearGradient id="Degradado_sin_nombre_70-4" data-name="Degradado sin nombre 70" x1="6.13" y1="106.75" x2="96.82" y2="106.75" xlink:href="#Degradado_sin_nombre_70"/>
  </defs>
  <g id="Capa_1-2" data-name="Capa 1">
    <g>
      <g>
        <path class="cls-2" d="m59.79,58.71c1.14.89,1.15,2.46.3,3.4-.73.8-2.62,1.01-3.34,1.12-1.5.23-2.97.33-4.15.33-17.58,0-31.83-14.25-31.83-31.83S33.63,0,50.07,0c2.14,0,4.96,1.07,5.42,1.33,14.31,7.93,6.51,25.78-22.78,28.03-4.12.32-5.59,5.6-2.21,7.98l19.31,13.61c1.73,1.22,5.94,4.62,9.98,7.76Z"/>
        <path class="cls-3" d="m84.43,31.73c0,7.11-1.81,14.48-6.27,18.97-.69.7-1.68,1.01-2.53.53l-20.38-11.57c-3.56-2.02-2.67-7.41,1.35-8.15,29.45-5.44,21.04-16.86,9.47-27.7-.35-.33.04-.9.48-.69,10.59,5.17,17.88,16.04,17.88,28.62Z"/>
      </g>
      <g>
        <path class="cls-4" d="m51.44,71.19C23.42,71.19.35,93.99.02,122l-.02,1.49,1.17.92c14.8,11.72,32.63,17.91,51.57,17.91,17.71,0,34.61-5.49,48.88-15.86l1.21-.95.04-1.5c.01-.45.02-.91.02-1.36,0-28.36-23.08-51.44-51.44-51.44Zm1.3,65.06c-17.05,0-33.12-5.41-46.61-15.67,1.08-24.02,21.1-43.32,45.32-43.32s45.26,20.24,45.38,45.16c-12.97,9.05-28.17,13.83-44.08,13.83Z"/>
        <path class="cls-1" d="m96.82,122.42c-12.97,9.05-28.17,13.83-44.08,13.83-17.05,0-33.12-5.41-46.61-15.67,1.08-24.02,21.1-43.32,45.32-43.32s45.26,20.24,45.38,45.16Z"/>
      </g>
    </g>
  </g>
</svg>