<?xml version="1.0" encoding="UTF-8"?>
<svg id="Capa_2" data-name="Capa 2" xmlns="http://www.w3.org/2000/svg" xmlns:xlink="http://www.w3.org/1999/xlink" viewBox="0 0 946.08 92.4">
  <defs>
    <style>
      .cls-1 {
        fill: #aab595;
        filter: url(#drop-shadow-1);
        stroke-width: 0px;
      }
    </style>
    <filter id="drop-shadow-1" filterUnits="userSpaceOnUse">
      <feOffset dx="4" dy="1"/>
      <feGaussianBlur result="blur" stdDeviation="4"/>
      <feFlood flood-color="#1d1d1b" flood-opacity=".52"/>
      <feComposite in2="blur" operator="in"/>
      <feComposite in="SourceGraphic"/>
    </filter>
  </defs>
  <g id="Capa_1-2" data-name="Capa 1">
    <path class="cls-1" d="m923.93,56.68c-2.78-2.82-6.36-4.83-10.38-5.68-.5-11.54-10.01-20.73-21.68-20.73-4.35,0-8.4,1.28-11.79,3.48.22-1.13.34-2.29.34-3.48,0-9.88-8.01-17.89-17.89-17.89s-17.89,8.01-17.89,17.89c0,1,.08,1.98.24,2.93-.08-.01-.16-.01-.24-.01-6.69,0-12.42,4.15-14.73,10.02-2.68-1.25-5.66-1.95-8.81-1.95-7.97,0-14.89,4.46-18.41,11.01-.31-.04-.62-.08-.93-.12-.88-11.54-17.49-20.73-37.87-20.73-7.6,0-14.67,1.28-20.59,3.48.39-1.13.59-2.29.59-3.48,0-9.88-13.98-17.89-31.24-17.89s-31.24,8.01-31.24,17.89c0,1,.14,1.98.42,2.93-.14,0-.28,0-.42,0-11.69,0-21.7,4.15-25.73,10.02-4.68-1.25-9.88-1.95-15.39-1.95-8.15,0-15.66,1.53-21.73,4.11-2.24-8.76-8.84-15.1-16.65-15.1-3.5,0-6.76,1.28-9.48,3.48.17-1.13.27-2.29.27-3.48,0-9.88-6.45-17.89-14.4-17.89s-14.4,8.01-14.4,17.89c0,1,.06,1.98.19,2.93-.06,0-.13,0-.19,0-5.39,0-10,4.15-11.86,10.02-2.15-1.25-4.55-1.95-7.09-1.95-5.72,0-10.78,3.55-13.81,8.98-.17-.03-.33-.05-.5-.07-.87-11.98-17.46-21.52-37.81-21.52-7.59,0-14.66,1.33-20.57,3.61.38-1.17.59-2.38.59-3.61,0-10.26-13.97-18.57-31.2-18.57s-31.21,8.31-31.21,18.57c0,1.04.14,2.05.42,3.04-.14-.01-.28-.01-.42-.01-11.67,0-21.66,4.31-25.69,10.4-4.68-1.3-9.88-2.02-15.37-2.02-13.71,0-25.64,4.5-31.86,11.15-1.32-.59-2.71-1.05-4.16-1.36-.5-11.54-10.01-20.73-21.68-20.73-4.35,0-8.4,1.28-11.79,3.48.22-1.13.34-2.29.34-3.48,0-9.88-8.01-17.89-17.89-17.89s-17.89,8.01-17.89,17.89c0,1,.08,1.98.24,2.93-.08-.01-.16-.01-.24-.01-6.69,0-12.42,4.15-14.73,10.02-2.68-1.25-5.66-1.95-8.81-1.95-4.18,0-8.07,1.23-11.33,3.35-3.26-2.12-7.15-3.35-11.33-3.35-3.15,0-6.13.7-8.81,1.95-2.31-5.87-8.04-10.02-14.73-10.02-.08,0-.16,0-.24.01.16-.95.24-1.93.24-2.93,0-9.88-8.01-17.89-17.89-17.89s-17.89,8.01-17.89,17.89c0,1.19.12,2.35.34,3.48-3.39-2.2-7.44-3.48-11.79-3.48-11.67,0-21.18,9.19-21.68,20.73-1.45.31-2.84.77-4.16,1.36-6.22-6.65-18.15-11.15-31.86-11.15-11.7,0-26.31,12.88-36.48,23.65-1.16,1.22-12.42-14.53-25.94-10.7-13.48,3.81-19.27,25.05-19.27,25.05h920.24c1.02-2.45,1.59-5.15,1.59-7.97,0-5.67-2.29-10.81-5.99-14.55Zm-755.34-9.74c-.07-.31-.15-.61-.24-.91.28.15.57.3.86.43-.21.15-.42.31-.62.48Zm121.98,0c-.2-.17-.41-.33-.62-.48.29-.13.58-.28.86-.43-.09.3-.17.6-.24.91Zm165.43.16c-.35-.17-.71-.34-1.08-.5.51-.13,1.01-.29,1.5-.44-.15.31-.29.62-.42.94Zm128.92.99c-.16-.17-.33-.33-.5-.48.24-.13.47-.28.7-.43-.08.3-.14.6-.2.91Zm142.1,0c-.35-.17-.71-.33-1.08-.48.51-.13,1.01-.28,1.5-.43-.15.3-.29.6-.42.91Zm143.74-1.15c-.2-.17-.41-.33-.62-.48.29-.13.58-.28.86-.43-.09.3-.17.6-.24.91Z"/>
  </g>
</svg>