<?xml version="1.0" encoding="UTF-8"?>
<svg id="Capa_2" data-name="Capa 2" xmlns="http://www.w3.org/2000/svg" xmlns:xlink="http://www.w3.org/1999/xlink" viewBox="0 0 3764.64 764.61">
  <defs>
    <style>
      .cls-1 {
        filter: url(#drop-shadow-1);
      }

      .cls-1, .cls-2, .cls-3, .cls-4, .cls-5, .cls-6, .cls-7, .cls-8, .cls-9, .cls-10, .cls-11, .cls-12, .cls-13, .cls-14, .cls-15, .cls-16, .cls-17, .cls-18, .cls-19, .cls-20, .cls-21, .cls-22, .cls-23, .cls-24, .cls-25, .cls-26, .cls-27, .cls-28, .cls-29, .cls-30, .cls-31, .cls-32, .cls-33, .cls-34 {
        stroke-width: 0px;
      }

      .cls-1, .cls-10, .cls-20 {
        fill: #c1acd3;
      }

      .cls-2, .cls-3, .cls-7, .cls-13, .cls-24 {
        fill: #aab595;
      }

      .cls-35 {
        filter: url(#drop-shadow-21);
      }

      .cls-3 {
        filter: url(#drop-shadow-7);
      }

      .cls-4 {
        filter: url(#drop-shadow-33);
      }

      .cls-4, .cls-6, .cls-8, .cls-11, .cls-12, .cls-16, .cls-17, .cls-18, .cls-19, .cls-21, .cls-22, .cls-23, .cls-25, .cls-26, .cls-27, .cls-28, .cls-30, .cls-31, .cls-32, .cls-33, .cls-34 {
        fill: #d0deb8;
      }

      .cls-5 {
        fill: #e8efdc;
      }

      .cls-6 {
        filter: url(#drop-shadow-34);
      }

      .cls-7 {
        filter: url(#drop-shadow-12);
      }

      .cls-36 {
        stroke: #aab595;
      }

      .cls-36, .cls-37, .cls-38, .cls-39 {
        fill: none;
        stroke-miterlimit: 10;
      }

      .cls-8 {
        filter: url(#drop-shadow-31);
      }

      .cls-9, .cls-14, .cls-29 {
        fill: #a8daf1;
      }

      .cls-40 {
        filter: url(#drop-shadow-39);
      }

      .cls-41 {
        filter: url(#drop-shadow-23);
      }

      .cls-42 {
        filter: url(#drop-shadow-17);
      }

      .cls-43 {
        filter: url(#drop-shadow-37);
      }

      .cls-11 {
        filter: url(#drop-shadow-30);
      }

      .cls-13 {
        filter: url(#drop-shadow-13);
      }

      .cls-14 {
        filter: url(#drop-shadow-3);
      }

      .cls-15 {
        fill: #a5af94;
      }

      .cls-44 {
        filter: url(#drop-shadow-35);
      }

      .cls-16 {
        filter: url(#drop-shadow-26);
      }

      .cls-17 {
        filter: url(#drop-shadow-27);
      }

      .cls-18 {
        filter: url(#drop-shadow-8);
      }

      .cls-19 {
        filter: url(#drop-shadow-40);
      }

      .cls-45 {
        filter: url(#drop-shadow-38);
      }

      .cls-20 {
        filter: url(#drop-shadow-5);
      }

      .cls-37 {
        stroke: #d0deb8;
      }

      .cls-46 {
        filter: url(#drop-shadow-22);
      }

      .cls-21 {
        filter: url(#drop-shadow-32);
      }

      .cls-22 {
        filter: url(#drop-shadow-25);
      }

      .cls-47 {
        filter: url(#drop-shadow-20);
      }

      .cls-38 {
        stroke-dasharray: 0 4.9;
      }

      .cls-38, .cls-39 {
        stroke: #fff;
        stroke-width: 1.1px;
      }

      .cls-48 {
        filter: url(#drop-shadow-2);
      }

      .cls-39 {
        stroke-dasharray: 0 2.62;
      }

      .cls-23 {
        filter: url(#drop-shadow-10);
      }

      .cls-24 {
        filter: url(#drop-shadow-9);
      }

      .cls-49 {
        filter: url(#drop-shadow-16);
      }

      .cls-50 {
        filter: url(#drop-shadow-18);
      }

      .cls-25 {
        filter: url(#drop-shadow-14);
      }

      .cls-26 {
        filter: url(#drop-shadow-29);
      }

      .cls-27 {
        filter: url(#drop-shadow-24);
      }

      .cls-28 {
        filter: url(#drop-shadow-6);
      }

      .cls-29 {
        filter: url(#drop-shadow-4);
      }

      .cls-51 {
        filter: url(#drop-shadow-36);
      }

      .cls-52 {
        filter: url(#drop-shadow-19);
      }

      .cls-30 {
        filter: url(#drop-shadow-15);
      }

      .cls-31 {
        filter: url(#drop-shadow-28);
      }

      .cls-32 {
        filter: url(#drop-shadow-11);
      }

      .cls-33 {
        opacity: .65;
      }

      .cls-34 {
        filter: url(#drop-shadow-41);
      }
    </style>
    <filter id="drop-shadow-1" filterUnits="userSpaceOnUse">
      <feOffset dx="7" dy="5"/>
      <feGaussianBlur result="blur" stdDeviation="9"/>
      <feFlood flood-color="#1d1d1b" flood-opacity=".75"/>
      <feComposite in2="blur" operator="in"/>
      <feComposite in="SourceGraphic"/>
    </filter>
    <filter id="drop-shadow-2" filterUnits="userSpaceOnUse">
      <feOffset dx="7" dy="-1"/>
      <feGaussianBlur result="blur-2" stdDeviation="9"/>
      <feFlood flood-color="#1d1d1b" flood-opacity=".75"/>
      <feComposite in2="blur-2" operator="in"/>
      <feComposite in="SourceGraphic"/>
    </filter>
    <filter id="drop-shadow-3" filterUnits="userSpaceOnUse">
      <feOffset dx="14" dy="3"/>
      <feGaussianBlur result="blur-3" stdDeviation="5"/>
      <feFlood flood-color="#1d1d1b" flood-opacity=".75"/>
      <feComposite in2="blur-3" operator="in"/>
      <feComposite in="SourceGraphic"/>
    </filter>
    <filter id="drop-shadow-4" filterUnits="userSpaceOnUse">
      <feOffset dx="14" dy="3"/>
      <feGaussianBlur result="blur-4" stdDeviation="5"/>
      <feFlood flood-color="#1d1d1b" flood-opacity=".33"/>
      <feComposite in2="blur-4" operator="in"/>
      <feComposite in="SourceGraphic"/>
    </filter>
    <filter id="drop-shadow-5" filterUnits="userSpaceOnUse">
      <feOffset dx="7" dy="5"/>
      <feGaussianBlur result="blur-5" stdDeviation="9"/>
      <feFlood flood-color="#1d1d1b" flood-opacity=".75"/>
      <feComposite in2="blur-5" operator="in"/>
      <feComposite in="SourceGraphic"/>
    </filter>
    <filter id="drop-shadow-6" filterUnits="userSpaceOnUse">
      <feOffset dx="4" dy="1"/>
      <feGaussianBlur result="blur-6" stdDeviation="4"/>
      <feFlood flood-color="#1d1d1b" flood-opacity=".52"/>
      <feComposite in2="blur-6" operator="in"/>
      <feComposite in="SourceGraphic"/>
    </filter>
    <filter id="drop-shadow-7" filterUnits="userSpaceOnUse">
      <feOffset dx="4" dy="1"/>
      <feGaussianBlur result="blur-7" stdDeviation="4"/>
      <feFlood flood-color="#1d1d1b" flood-opacity=".52"/>
      <feComposite in2="blur-7" operator="in"/>
      <feComposite in="SourceGraphic"/>
    </filter>
    <filter id="drop-shadow-8" filterUnits="userSpaceOnUse">
      <feOffset dx="4" dy="1"/>
      <feGaussianBlur result="blur-8" stdDeviation="4"/>
      <feFlood flood-color="#1d1d1b" flood-opacity=".52"/>
      <feComposite in2="blur-8" operator="in"/>
      <feComposite in="SourceGraphic"/>
    </filter>
    <filter id="drop-shadow-9" filterUnits="userSpaceOnUse">
      <feOffset dx="4" dy="1"/>
      <feGaussianBlur result="blur-9" stdDeviation="4"/>
      <feFlood flood-color="#1d1d1b" flood-opacity=".52"/>
      <feComposite in2="blur-9" operator="in"/>
      <feComposite in="SourceGraphic"/>
    </filter>
    <filter id="drop-shadow-10" filterUnits="userSpaceOnUse">
      <feOffset dx="4" dy="1"/>
      <feGaussianBlur result="blur-10" stdDeviation="4"/>
      <feFlood flood-color="#1d1d1b" flood-opacity=".52"/>
      <feComposite in2="blur-10" operator="in"/>
      <feComposite in="SourceGraphic"/>
    </filter>
    <filter id="drop-shadow-11" filterUnits="userSpaceOnUse">
      <feOffset dx="4" dy="1"/>
      <feGaussianBlur result="blur-11" stdDeviation="4"/>
      <feFlood flood-color="#1d1d1b" flood-opacity=".52"/>
      <feComposite in2="blur-11" operator="in"/>
      <feComposite in="SourceGraphic"/>
    </filter>
    <filter id="drop-shadow-12" filterUnits="userSpaceOnUse">
      <feOffset dx="4" dy="1"/>
      <feGaussianBlur result="blur-12" stdDeviation="4"/>
      <feFlood flood-color="#1d1d1b" flood-opacity=".52"/>
      <feComposite in2="blur-12" operator="in"/>
      <feComposite in="SourceGraphic"/>
    </filter>
    <filter id="drop-shadow-13" filterUnits="userSpaceOnUse">
      <feOffset dx="4" dy="1"/>
      <feGaussianBlur result="blur-13" stdDeviation="4"/>
      <feFlood flood-color="#1d1d1b" flood-opacity=".52"/>
      <feComposite in2="blur-13" operator="in"/>
      <feComposite in="SourceGraphic"/>
    </filter>
    <filter id="drop-shadow-14" filterUnits="userSpaceOnUse">
      <feOffset dx="4" dy="1"/>
      <feGaussianBlur result="blur-14" stdDeviation="4"/>
      <feFlood flood-color="#1d1d1b" flood-opacity=".52"/>
      <feComposite in2="blur-14" operator="in"/>
      <feComposite in="SourceGraphic"/>
    </filter>
    <filter id="drop-shadow-15" filterUnits="userSpaceOnUse">
      <feOffset dx="4" dy="1"/>
      <feGaussianBlur result="blur-15" stdDeviation="4"/>
      <feFlood flood-color="#1d1d1b" flood-opacity=".52"/>
      <feComposite in2="blur-15" operator="in"/>
      <feComposite in="SourceGraphic"/>
    </filter>
    <filter id="drop-shadow-16" filterUnits="userSpaceOnUse">
      <feOffset dx="5" dy="-2"/>
      <feGaussianBlur result="blur-16" stdDeviation="5"/>
      <feFlood flood-color="#1d1d1b" flood-opacity=".44"/>
      <feComposite in2="blur-16" operator="in"/>
      <feComposite in="SourceGraphic"/>
    </filter>
    <filter id="drop-shadow-17" filterUnits="userSpaceOnUse">
      <feOffset dx="5" dy="-2"/>
      <feGaussianBlur result="blur-17" stdDeviation="5"/>
      <feFlood flood-color="#1d1d1b" flood-opacity=".44"/>
      <feComposite in2="blur-17" operator="in"/>
      <feComposite in="SourceGraphic"/>
    </filter>
    <filter id="drop-shadow-18" filterUnits="userSpaceOnUse">
      <feOffset dx="5" dy="-2"/>
      <feGaussianBlur result="blur-18" stdDeviation="5"/>
      <feFlood flood-color="#1d1d1b" flood-opacity=".44"/>
      <feComposite in2="blur-18" operator="in"/>
      <feComposite in="SourceGraphic"/>
    </filter>
    <filter id="drop-shadow-19" filterUnits="userSpaceOnUse">
      <feOffset dx="5" dy="-2"/>
      <feGaussianBlur result="blur-19" stdDeviation="5"/>
      <feFlood flood-color="#1d1d1b" flood-opacity=".44"/>
      <feComposite in2="blur-19" operator="in"/>
      <feComposite in="SourceGraphic"/>
    </filter>
    <filter id="drop-shadow-20" filterUnits="userSpaceOnUse">
      <feOffset dx="5" dy="-2"/>
      <feGaussianBlur result="blur-20" stdDeviation="5"/>
      <feFlood flood-color="#1d1d1b" flood-opacity=".44"/>
      <feComposite in2="blur-20" operator="in"/>
      <feComposite in="SourceGraphic"/>
    </filter>
    <filter id="drop-shadow-21" filterUnits="userSpaceOnUse">
      <feOffset dx="5" dy="-2"/>
      <feGaussianBlur result="blur-21" stdDeviation="5"/>
      <feFlood flood-color="#1d1d1b" flood-opacity=".44"/>
      <feComposite in2="blur-21" operator="in"/>
      <feComposite in="SourceGraphic"/>
    </filter>
    <filter id="drop-shadow-22" filterUnits="userSpaceOnUse">
      <feOffset dx="5" dy="-2"/>
      <feGaussianBlur result="blur-22" stdDeviation="5"/>
      <feFlood flood-color="#1d1d1b" flood-opacity=".44"/>
      <feComposite in2="blur-22" operator="in"/>
      <feComposite in="SourceGraphic"/>
    </filter>
    <filter id="drop-shadow-23" filterUnits="userSpaceOnUse">
      <feOffset dx="5" dy="-2"/>
      <feGaussianBlur result="blur-23" stdDeviation="5"/>
      <feFlood flood-color="#1d1d1b" flood-opacity=".44"/>
      <feComposite in2="blur-23" operator="in"/>
      <feComposite in="SourceGraphic"/>
    </filter>
    <filter id="drop-shadow-24" filterUnits="userSpaceOnUse">
      <feOffset dx="7" dy="3"/>
      <feGaussianBlur result="blur-24" stdDeviation="2"/>
      <feFlood flood-color="#1d1d1b" flood-opacity=".45"/>
      <feComposite in2="blur-24" operator="in"/>
      <feComposite in="SourceGraphic"/>
    </filter>
    <filter id="drop-shadow-25" filterUnits="userSpaceOnUse">
      <feOffset dx="7" dy="3"/>
      <feGaussianBlur result="blur-25" stdDeviation="2"/>
      <feFlood flood-color="#1d1d1b" flood-opacity=".45"/>
      <feComposite in2="blur-25" operator="in"/>
      <feComposite in="SourceGraphic"/>
    </filter>
    <filter id="drop-shadow-26" filterUnits="userSpaceOnUse">
      <feOffset dx="7" dy="3"/>
      <feGaussianBlur result="blur-26" stdDeviation="2"/>
      <feFlood flood-color="#1d1d1b" flood-opacity=".45"/>
      <feComposite in2="blur-26" operator="in"/>
      <feComposite in="SourceGraphic"/>
    </filter>
    <filter id="drop-shadow-27" filterUnits="userSpaceOnUse">
      <feOffset dx="7" dy="3"/>
      <feGaussianBlur result="blur-27" stdDeviation="2"/>
      <feFlood flood-color="#1d1d1b" flood-opacity=".45"/>
      <feComposite in2="blur-27" operator="in"/>
      <feComposite in="SourceGraphic"/>
    </filter>
    <filter id="drop-shadow-28" filterUnits="userSpaceOnUse">
      <feOffset dx="7" dy="3"/>
      <feGaussianBlur result="blur-28" stdDeviation="2"/>
      <feFlood flood-color="#1d1d1b" flood-opacity=".45"/>
      <feComposite in2="blur-28" operator="in"/>
      <feComposite in="SourceGraphic"/>
    </filter>
    <filter id="drop-shadow-29" filterUnits="userSpaceOnUse">
      <feOffset dx="7" dy="3"/>
      <feGaussianBlur result="blur-29" stdDeviation="2"/>
      <feFlood flood-color="#1d1d1b" flood-opacity=".45"/>
      <feComposite in2="blur-29" operator="in"/>
      <feComposite in="SourceGraphic"/>
    </filter>
    <filter id="drop-shadow-30" filterUnits="userSpaceOnUse">
      <feOffset dx="7" dy="3"/>
      <feGaussianBlur result="blur-30" stdDeviation="2"/>
      <feFlood flood-color="#1d1d1b" flood-opacity=".45"/>
      <feComposite in2="blur-30" operator="in"/>
      <feComposite in="SourceGraphic"/>
    </filter>
    <filter id="drop-shadow-31" filterUnits="userSpaceOnUse">
      <feOffset dx="7" dy="3"/>
      <feGaussianBlur result="blur-31" stdDeviation="2"/>
      <feFlood flood-color="#1d1d1b" flood-opacity=".45"/>
      <feComposite in2="blur-31" operator="in"/>
      <feComposite in="SourceGraphic"/>
    </filter>
    <filter id="drop-shadow-32" filterUnits="userSpaceOnUse">
      <feOffset dx="7" dy="3"/>
      <feGaussianBlur result="blur-32" stdDeviation="2"/>
      <feFlood flood-color="#1d1d1b" flood-opacity=".45"/>
      <feComposite in2="blur-32" operator="in"/>
      <feComposite in="SourceGraphic"/>
    </filter>
    <filter id="drop-shadow-33" filterUnits="userSpaceOnUse">
      <feOffset dx="7" dy="3"/>
      <feGaussianBlur result="blur-33" stdDeviation="2"/>
      <feFlood flood-color="#1d1d1b" flood-opacity=".45"/>
      <feComposite in2="blur-33" operator="in"/>
      <feComposite in="SourceGraphic"/>
    </filter>
    <filter id="drop-shadow-34" filterUnits="userSpaceOnUse">
      <feOffset dx="7" dy="3"/>
      <feGaussianBlur result="blur-34" stdDeviation="2"/>
      <feFlood flood-color="#1d1d1b" flood-opacity=".45"/>
      <feComposite in2="blur-34" operator="in"/>
      <feComposite in="SourceGraphic"/>
    </filter>
    <filter id="drop-shadow-35" filterUnits="userSpaceOnUse">
      <feOffset dx="7" dy="3"/>
      <feGaussianBlur result="blur-35" stdDeviation="2"/>
      <feFlood flood-color="#1d1d1b" flood-opacity=".45"/>
      <feComposite in2="blur-35" operator="in"/>
      <feComposite in="SourceGraphic"/>
    </filter>
    <filter id="drop-shadow-36" filterUnits="userSpaceOnUse">
      <feOffset dx="7" dy="3"/>
      <feGaussianBlur result="blur-36" stdDeviation="2"/>
      <feFlood flood-color="#1d1d1b" flood-opacity=".45"/>
      <feComposite in2="blur-36" operator="in"/>
      <feComposite in="SourceGraphic"/>
    </filter>
    <filter id="drop-shadow-37" filterUnits="userSpaceOnUse">
      <feOffset dx="7" dy="3"/>
      <feGaussianBlur result="blur-37" stdDeviation="2"/>
      <feFlood flood-color="#1d1d1b" flood-opacity=".45"/>
      <feComposite in2="blur-37" operator="in"/>
      <feComposite in="SourceGraphic"/>
    </filter>
    <filter id="drop-shadow-38" filterUnits="userSpaceOnUse">
      <feOffset dx="7" dy="3"/>
      <feGaussianBlur result="blur-38" stdDeviation="2"/>
      <feFlood flood-color="#1d1d1b" flood-opacity=".45"/>
      <feComposite in2="blur-38" operator="in"/>
      <feComposite in="SourceGraphic"/>
    </filter>
    <filter id="drop-shadow-39" filterUnits="userSpaceOnUse">
      <feOffset dx="7" dy="3"/>
      <feGaussianBlur result="blur-39" stdDeviation="2"/>
      <feFlood flood-color="#1d1d1b" flood-opacity=".45"/>
      <feComposite in2="blur-39" operator="in"/>
      <feComposite in="SourceGraphic"/>
    </filter>
    <filter id="drop-shadow-40" filterUnits="userSpaceOnUse">
      <feOffset dx="7" dy="3"/>
      <feGaussianBlur result="blur-40" stdDeviation="2"/>
      <feFlood flood-color="#1d1d1b" flood-opacity=".45"/>
      <feComposite in2="blur-40" operator="in"/>
      <feComposite in="SourceGraphic"/>
    </filter>
    <filter id="drop-shadow-41" filterUnits="userSpaceOnUse">
      <feOffset dx="7" dy="3"/>
      <feGaussianBlur result="blur-41" stdDeviation="2"/>
      <feFlood flood-color="#1d1d1b" flood-opacity=".45"/>
      <feComposite in2="blur-41" operator="in"/>
      <feComposite in="SourceGraphic"/>
    </filter>
  </defs>
  <g id="Capa_1-2" data-name="Capa 1">
    <g>
      <path class="cls-1" d="m886.28,339.93s173.82-310.7,323.33-196.31c149.52,114.38,202.51,168.31,292.44,163.82,89.93-4.5,129.64-70.65,245.16-1.35l58.96,32-919.88,1.85Z"/>
      <rect class="cls-33" x="586.98" y="336.16" width="2829.51" height="417.52"/>
      <g>
        <g class="cls-48">
          <path class="cls-12" d="m3417.31,338.74c.03.07.06.15.09.23-.03-.07-.06-.15-.09-.23Z"/>
          <path class="cls-12" d="m3417.78,339.98s.04.09.05.14c-.02-.05-.04-.09-.05-.14Z"/>
          <path class="cls-12" d="m3417.4,338.97c.13.34.26.68.39,1.01-.14-.36-.27-.7-.39-1.01Z"/>
          <path class="cls-12" d="m3417.84,340.13c.16.42.32.82.47,1.23-.17-.43-.33-.85-.47-1.23Z"/>
          <path class="cls-12" d="m3418.31,341.36c.37.98.79,2.06,1.24,3.23-.4-1.03-.81-2.11-1.24-3.23Z"/>
          <path class="cls-12" d="m3416.61,336.92c.06.16.12.31.18.47-.08-.2-.13-.35-.18-.47Z"/>
          <path class="cls-12" d="m3165.72,218.07c-63.26,63.26-113.95,0-113.95,0,0,0-81.29-190.03-291.83-190.03-147.2,0-231.91,66.37-269.56,106.31-58.97-51.26-116.86-74.51-170.74-80.89-100.33-11.88-202.6,89.1-265.31,160.13-62.71,71.03-177.86,127.96-350.21,0-172.36-127.96-204.83-53.21-341.44-17.57-136.62,35.64-193.05-34.16-193.05-34.16,0,0-116.28-87.35-261.1-71.84-249.47,26.73-321,246.59-321,246.59h2828.97c-25.95-67.62-67.21-118.56-67.21-118.56-52.6-52.6-120.3-63.26-183.56,0Z"/>
          <path class="cls-12" d="m3416.5,336.63s.04.11.11.29c-.04-.1-.07-.19-.11-.29Z"/>
          <path class="cls-12" d="m3419.55,344.59c.49,1.27.95,2.48,1.39,3.62-.48-1.25-.95-2.47-1.39-3.62Z"/>
          <path class="cls-12" d="m3417.01,337.96c.1.26.2.52.3.78-.11-.29-.21-.55-.3-.78Z"/>
          <path class="cls-12" d="m3416.79,337.4c.06.16.14.36.22.57-.07-.19-.14-.37-.22-.57Z"/>
          <path class="cls-12" d="m3425.72,360.68c.34.88.65,1.7.93,2.43-.27-.7-.57-1.5-.93-2.43Z"/>
          <path class="cls-12" d="m3427.25,364.65c.13.33.24.61.33.86-.1-.25-.21-.54-.33-.86Z"/>
          <path class="cls-12" d="m3426.96,363.9c.1.27.2.52.29.75-.09-.23-.18-.48-.29-.75Z"/>
          <path class="cls-12" d="m3427.92,366.39c.16.41.14.37,0,0h0Z"/>
          <path class="cls-12" d="m3427.58,365.51c.15.38.26.68.34.88-.07-.19-.19-.49-.34-.88Z"/>
          <path class="cls-12" d="m3426.66,363.1c.11.28.21.55.31.79-.1-.25-.2-.52-.31-.79Z"/>
          <path class="cls-12" d="m3424.4,357.22c.08.21.16.42.24.63-.08-.2-.16-.42-.24-.63Z"/>
          <path class="cls-12" d="m3422.9,353.31c.14.36.28.73.41,1.07-.14-.36-.27-.71-.41-1.07Z"/>
          <path class="cls-12" d="m3424.64,357.85c.4,1.05.76,1.99,1.09,2.83-.34-.88-.7-1.83-1.09-2.83Z"/>
          <path class="cls-12" d="m3423.31,354.38c.03.07.05.13.08.2-.03-.07-.05-.13-.08-.2Z"/>
          <path class="cls-12" d="m3423.38,354.58c.36.94.7,1.82,1.01,2.64-.33-.86-.67-1.74-1.01-2.64Z"/>
          <path class="cls-12" d="m3420.94,348.2c.64,1.67,1.3,3.4,1.96,5.1-.59-1.55-1.24-3.24-1.96-5.1Z"/>
        </g>
        <path class="cls-14" d="m2426.27,339.23h-544.91c49.77-93.55,153.08-157.84,272.46-157.84s222.69,64.29,272.45,157.84Z"/>
        <path class="cls-29" d="m1856.92,339.23h-544.91c49.77-93.55,153.08-157.84,272.46-157.84s222.69,64.29,272.45,157.84Z"/>
        <path class="cls-20" d="m2128.21,339.45s54.03-72.6,148.57-54.03c0,0,74.29-92.86,128.31-91.17,54.03,1.69,96.23-173.89,190.78-172.21,94.54,1.69,219.48,317.4,219.48,317.4h-687.14Z"/>
      </g>
      <path class="cls-28" d="m909.9,322.2c-3.07-4.26-7.54-6.94-12.51-6.94-2.54,0-4.94.7-7.09,1.95-1.86-5.87-6.47-10.02-11.86-10.02-.06,0-.13,0-.19.01.13-.95.19-1.93.19-2.93,0-9.88-6.45-17.89-14.4-17.89s-14.4,8.01-14.4,17.89c0,1.19.1,2.35.27,3.48-2.72-2.2-5.98-3.48-9.48-3.48-7.81,0-14.41,6.34-16.65,15.1-6.07-2.58-13.58-4.11-21.73-4.11-5.51,0-10.71.7-15.39,1.95-4.03-5.87-14.04-10.02-25.73-10.02-.14,0-.28,0-.42.01.28-.95.42-1.93.42-2.93,0-9.88-13.99-17.89-31.24-17.89s-31.24,8.01-31.24,17.89c0,1.19.2,2.35.59,3.48-5.92-2.2-12.99-3.48-20.59-3.48-20.38,0-36.99,9.19-37.87,20.73-.31.04-.62.08-.93.12-3.52-6.55-10.44-11.01-18.41-11.01-3.15,0-6.13.7-8.81,1.95-2.31-5.87-8.04-10.02-14.73-10.02-.08,0-.16,0-.24.01.16-.95.24-1.93.24-2.93,0-9.88-8.01-17.89-17.89-17.89s-17.89,8.01-17.89,17.89c0,.09,0,.19.01.28.01,1.09.13,2.16.33,3.2-1.33-.87-2.78-1.59-4.3-2.15-1.52.56-2.97,1.28-4.31,2.15.2-1.04.32-2.11.33-3.2.01-.09.01-.19.01-.28,0-9.88-8.01-17.89-17.89-17.89s-17.89,8.01-17.89,17.89c0,1,.08,1.98.24,2.93-.08-.01-.16-.01-.24-.01-6.69,0-12.42,4.15-14.73,10.02-2.68-1.25-5.66-1.95-8.81-1.95-7.97,0-14.89,4.46-18.41,11.01-.31-.04-.62-.08-.93-.12-.88-11.54-17.49-20.73-37.87-20.73-7.6,0-14.67,1.28-20.59,3.48.39-1.13.59-2.29.59-3.48,0-9.88-13.98-17.89-31.24-17.89s-31.24,8.01-31.24,17.89c0,1,.14,1.98.42,2.93-.14-.01-.28-.01-.42-.01-11.69,0-21.7,4.15-25.73,10.02-4.68-1.25-9.88-1.95-15.39-1.95-8.15,0-15.66,1.53-21.73,4.11-2.24-8.76-8.84-15.1-16.65-15.1-3.5,0-6.76,1.28-9.48,3.48.17-1.13.27-2.29.27-3.48,0-9.88-6.45-17.89-14.4-17.89s-14.4,8.01-14.4,17.89c0,1,.06,1.98.19,2.93-.06-.01-.13-.01-.19-.01-5.39,0-10,4.15-11.86,10.02-2.15-1.25-4.55-1.95-7.09-1.95-5.72,0-10.78,3.55-13.81,8.98-.17-.03-.33-.05-.5-.07-.87-11.98-17.46-21.52-37.81-21.52-7.59,0-14.66,1.33-20.57,3.61.38-1.17.59-2.38.59-3.61,0-10.26-13.97-18.57-31.2-18.57s-31.21,8.31-31.21,18.57c0,1.04.14,2.05.42,3.04-.14-.01-.28-.01-.42-.01-11.67,0-21.66,4.31-25.69,10.4-4.68-1.3-9.88-2.02-15.37-2.02-12.97,0-24.33,4.03-30.79,10.09-.22,4.59-.37,9.18-.49,13.77.01,1.7.02,3.41.01,5.11.08,2.62.18,5.23.3,7.85.01.39.03.78.05,1.17h6.94c.94.5,1.93.96,2.96,1.39h208.07c.06-.08.11-.16.16-.24h270.98c.27-.38.53-.76.76-1.15h112.11c.23.39.49.77.76,1.15h267l69.94.24c-.82-.87-2.59-32.5-41.81-31.24Zm-780.33-2.25c-.35-.17-.71-.34-1.08-.5.51-.13,1.01-.29,1.5-.44-.15.31-.29.62-.42.94Zm128.92.99c-.16-.17-.33-.33-.5-.48.24-.13.47-.28.7-.43-.08.3-.14.6-.2.91Zm142.1,0c-.35-.17-.71-.33-1.08-.48.51-.13,1.01-.28,1.5-.43-.15.3-.29.6-.42.91Zm143.74-1.15c-.2-.17-.41-.33-.62-.48.29-.13.58-.28.86-.43-.09.3-.17.6-.24.91Zm27.25,0c-.07-.31-.15-.61-.24-.91.28.15.57.3.86.43-.21.15-.42.31-.62.48Zm143.74,1.15c-.13-.31-.27-.61-.42-.91.49.15.99.3,1.5.43-.37.15-.73.31-1.08.48Zm142.1,0c-.06-.31-.12-.61-.2-.91.23.15.46.3.7.43-.17.15-.34.31-.5.48Z"/>
      <path class="cls-3" d="m932.17,375.1c2.91-33.81-6.34-48.07-21.26-51.06-10.21-2.04-21.93,12.23-24.08,13.48-1.86-5.87-6.47-10.02-11.86-10.02-.06,0-.13,0-.19,0,.13-.95.19-1.93.19-2.93,0-9.88-6.45-17.89-14.4-17.89s-14.4,8.01-14.4,17.89c0,1.19.1,2.35.27,3.48-2.72-2.2-5.98-3.48-9.48-3.48-7.81,0-14.41,6.34-16.65,15.1-6.43-4.9-7.78-11.56-19.01-12.24s-13.43,8.83-18.11,10.08c-4.03-5.87-14.04-10.02-25.73-10.02-.14,0-.28,0-.42,0,.28-.95.42-1.93.42-2.93,0-9.88-13.99-17.89-31.24-17.89s-31.24,8.01-31.24,17.89c0,1.19.2,2.35.59,3.48-5.92-2.2-12.74-10.24-28.06-9.33-20.34,1.21-31.02,26.66-31.33,26.7-3.52-6.55-10.44-11.01-18.41-11.01-3.15,0-6.13.7-8.81,1.95-2.31-5.87-8.04-10.02-14.73-10.02-.08,0-.16,0-.24.01.16-.95.24-1.93.24-2.93,0-9.88-8.01-17.89-17.89-17.89s-17.89,8.01-17.89,17.89c0,.09,0,.19.01.28.01,1.09.13,2.16.33,3.2-1.33-.87-2.78-1.59-4.3-2.15-1.52.56-2.97,1.28-4.31,2.15.2-1.04.32-2.11.33-3.2.01-.09.01-.19.01-.28,0-9.88-8.01-17.89-17.89-17.89s-17.89,8.01-17.89,17.89c0,1,.08,1.98.24,2.93-.08-.01-.16-.01-.24-.01-6.69,0-12.42,4.15-14.73,10.02-2.68-1.25-5.66-1.95-8.81-1.95-7.97,0-14.89,4.46-18.41,11.01-.31-.04-.62-.08-.93-.12-.88-11.54-17.49-20.73-37.87-20.73-7.6,0-14.67,1.28-20.59,3.48.39-1.13.59-2.29.59-3.48,0-9.88-13.98-17.89-31.24-17.89s-31.24,8.01-31.24,17.89c0,1,.14,1.98.42,2.93-.14,0-.28,0-.42,0-11.69,0-21.7,4.15-25.73,10.02-4.68-1.25-9.88-1.95-15.39-1.95-8.15,0-15.66,1.53-21.73,4.11-2.24-8.76-8.84-15.1-16.65-15.1-3.5,0-6.76,1.28-9.48,3.48.17-1.13.27-2.29.27-3.48,0-9.88-6.45-17.89-14.4-17.89s-14.4,8.01-14.4,17.89c0,1,.06,1.98.19,2.93-.06,0-.13,0-.19,0-5.39,0-10,4.15-11.86,10.02-2.15-1.25-4.55-1.95-7.09-1.95-5.72,0-10.78,3.55-13.81,8.98-.17-.03-.33-.05-.5-.07-.87-11.98-17.46-21.52-37.81-21.52-7.59,0-14.66,1.33-20.57,3.61.38-1.17.59-2.38.59-3.61,0-10.26-13.97-18.57-31.2-18.57s-31.21,8.31-31.21,18.57c0,1.04.14,2.05.42,3.04-.14-.01-.28-.01-.42-.01-11.67,0-21.66,4.31-25.69,10.4-4.68-1.3-9.88-2.02-15.37-2.02-12.97,0-24.33,4.03-30.79,10.09-.07,1.4-.13,2.81-.18,4.21-.13,3.19-.23,6.37-.31,9.56.01,1.7.02,3.41.01,5.11.09,3.01.21,6.01.35,9.02l845.87,1.15,77.75,1.59Zm-806.08-34.84c-.35-.17-.71-.34-1.08-.5.51-.13,1.01-.29,1.5-.44-.15.31-.29.62-.42.94Zm128.92.99c-.16-.17-.33-.33-.5-.48.24-.13.47-.28.7-.43-.08.3-.14.6-.2.91Zm142.1,0c-.35-.17-.71-.33-1.08-.48.51-.13,1.01-.28,1.5-.43-.15.3-.29.6-.42.91Zm143.74-1.15c-.2-.17-.41-.33-.62-.48.29-.13.58-.28.86-.43-.09.3-.17.6-.24.91Zm27.25,0c-.07-.31-.15-.61-.24-.91.28.15.57.3.86.43-.21.15-.42.31-.62.48Zm143.74,1.15c-.13-.31-.27-.61-.42-.91.49.15.99.3,1.5.43-.37.15-.73.31-1.08.48Zm142.1,0c-.06-.31-.12-.61-.2-.91.23.15.46.3.7.43-.17.15-.34.31-.5.48Z"/>
      <path class="cls-18" d="m3683,323.23c-.5-11.54-10.01-20.73-21.68-20.73-4.35,0-8.4,1.28-11.79,3.48.22-1.13.34-2.29.34-3.48,0-9.88-8.01-17.89-17.89-17.89s-17.89,8.01-17.89,17.89c0,1,.08,1.98.24,2.93-.08-.01-.16-.01-.24-.01-6.69,0-12.42,4.15-14.73,10.02-2.68-1.25-5.66-1.95-8.81-1.95-7.97,0-14.89,4.46-18.41,11.01-.31-.04-.62-.08-.93-.12-.88-11.54-17.49-20.73-37.87-20.73-7.6,0-14.67,1.28-20.59,3.48.39-1.13.59-2.29.59-3.48,0-9.88-13.98-17.89-31.24-17.89s-31.24,8.01-31.24,17.89c0,1,.14,1.98.42,2.93-.14-.01-.28-.01-.42-.01-11.69,0-21.7,4.15-25.73,10.02-4.68-1.25-9.88-1.95-15.39-1.95-8.15,0-15.66,1.53-21.73,4.11-2.24-8.76-8.84-15.1-16.65-15.1-3.5,0-6.76,1.28-9.48,3.48.17-1.13.27-2.29.27-3.48,0-9.88-6.45-17.89-14.4-17.89s-14.4,8.01-14.4,17.89c0,1,.06,1.98.19,2.93-.06-.01-.13-.01-.19-.01-5.39,0-10,4.15-11.86,10.02-2.15-1.25-4.55-1.95-7.09-1.95-5.72,0-10.78,3.55-13.81,8.98-.17-.03-.33-.05-.5-.07-.87-11.98-17.46-21.52-37.81-21.52-7.59,0-14.66,1.33-20.57,3.61.38-1.17.59-2.38.59-3.61,0-10.26-13.97-18.57-31.2-18.57s-31.21,8.31-31.21,18.57c0,1.04.14,2.05.42,3.04-.14-.01-.28-.01-.42-.01-11.67,0-21.66,4.31-25.69,10.4-4.68-1.3-9.88-2.02-15.37-2.02-13.71,0-25.64,4.5-31.86,11.15-1.32-.59-2.71-1.05-4.16-1.36-.5-11.54-10.01-20.73-21.68-20.73-4.35,0-8.4,1.28-11.79,3.48.22-1.13.34-2.29.34-3.48,0-9.88-8.01-17.89-17.89-17.89s-17.89,8.01-17.89,17.89c0,1,.08,1.98.24,2.93-.08-.01-.16-.01-.24-.01-6.69,0-12.42,4.15-14.73,10.02-2.68-1.25-5.66-1.95-8.81-1.95-4.18,0-8.07,1.23-11.33,3.35-3.26-2.12-7.15-3.35-11.33-3.35-3.15,0-6.13.7-8.81,1.95-2.31-5.87-8.04-10.02-14.73-10.02-.08,0-.16,0-.24.01.16-.95.24-1.93.24-2.93,0-9.88-8.01-17.89-17.89-17.89s-17.89,8.01-17.89,17.89c0,1.19.12,2.35.34,3.48-3.39-2.2-7.44-3.48-11.79-3.48-11.67,0-21.18,9.19-21.68,20.73-1.45.31-2.84.77-4.16,1.36-6.22-6.65-18.19-12.25-31.86-11.15-32.31,2.61-43.89,40.64-43.89,40.64l47.4-1.26,252.11-1.39c.94.5,1.93.96,2.96,1.39h208.07c.06-.08.11-.16.16-.24h270.98c.27-.38.53-.76.76-1.15h100c1.02-2.45,1.59-5.15,1.59-7.97,0-9.94-7.02-18.25-16.37-20.23Zm-744.96-4.06c-.07-.31-.15-.61-.24-.91.28.15.57.3.86.43-.21.15-.42.31-.62.48Zm121.98,0c-.2-.17-.41-.33-.62-.48.29-.13.58-.28.86-.43-.09.3-.17.6-.24.91Zm165.43.16c-.35-.17-.71-.34-1.08-.5.51-.13,1.01-.29,1.5-.44-.15.31-.29.62-.42.94Zm128.92.99c-.16-.17-.33-.33-.5-.48.24-.13.47-.28.7-.43-.08.3-.14.6-.2.91Zm142.1,0c-.35-.17-.71-.33-1.08-.48.51-.13,1.01-.28,1.5-.43-.15.3-.29.6-.42.91Zm143.74-1.15c-.2-.17-.41-.33-.62-.48.29-.13.58-.28.86-.43-.09.3-.17.6-.24.91Z"/>
      <path class="cls-24" d="m3742.49,346.24c-2.78-2.82-6.36-4.83-10.38-5.68-.5-11.54-10.01-20.73-21.68-20.73-4.35,0-8.4,1.28-11.79,3.48.22-1.13.34-2.29.34-3.48,0-9.88-8.01-17.89-17.89-17.89s-17.89,8.01-17.89,17.89c0,1,.08,1.98.24,2.93-.08-.01-.16-.01-.24-.01-6.69,0-12.42,4.15-14.73,10.02-2.68-1.25-5.66-1.95-8.81-1.95-7.97,0-14.89,4.46-18.41,11.01-.31-.04-.62-.08-.93-.12-.88-11.54-17.49-20.73-37.87-20.73-7.6,0-14.67,1.28-20.59,3.48.39-1.13.59-2.29.59-3.48,0-9.88-13.98-17.89-31.24-17.89s-31.24,8.01-31.24,17.89c0,1,.14,1.98.42,2.93-.14,0-.28,0-.42,0-11.69,0-21.7,4.15-25.73,10.02-4.68-1.25-9.88-1.95-15.39-1.95-8.15,0-15.66,1.53-21.73,4.11-2.24-8.76-8.84-15.1-16.65-15.1-3.5,0-6.76,1.28-9.48,3.48.17-1.13.27-2.29.27-3.48,0-9.88-6.45-17.89-14.4-17.89s-14.4,8.01-14.4,17.89c0,1,.06,1.98.19,2.93-.06,0-.13,0-.19,0-5.39,0-10,4.15-11.86,10.02-2.15-1.25-4.55-1.95-7.09-1.95-5.72,0-10.78,3.55-13.81,8.98-.17-.03-.33-.05-.5-.07-.87-11.98-17.46-21.52-37.81-21.52-7.59,0-14.66,1.33-20.57,3.61.38-1.17.59-2.38.59-3.61,0-10.26-13.97-18.57-31.2-18.57s-31.21,8.31-31.21,18.57c0,1.04.14,2.05.42,3.04-.14-.01-.28-.01-.42-.01-11.67,0-21.66,4.31-25.69,10.4-4.68-1.3-9.88-2.02-15.37-2.02-13.71,0-25.64,4.5-31.86,11.15-1.32-.59-2.71-1.05-4.16-1.36-.5-11.54-10.01-20.73-21.68-20.73-4.35,0-8.4,1.28-11.79,3.48.22-1.13.34-2.29.34-3.48,0-9.88-8.01-17.89-17.89-17.89s-17.89,8.01-17.89,17.89c0,1,.08,1.98.24,2.93-.08-.01-.16-.01-.24-.01-6.69,0-12.42,4.15-14.73,10.02-2.68-1.25-5.66-1.95-8.81-1.95-4.18,0-8.07,1.23-11.33,3.35-3.26-2.12-7.15-3.35-11.33-3.35-3.15,0-6.13.7-8.81,1.95-2.31-5.87-8.04-10.02-14.73-10.02-.08,0-.16,0-.24.01.16-.95.24-1.93.24-2.93,0-9.88-8.01-17.89-17.89-17.89s-17.89,8.01-17.89,17.89c0,1.19.12,2.35.34,3.48-3.39-2.2-7.44-3.48-11.79-3.48-11.67,0-21.18,9.19-21.68,20.73-1.45.31-2.84.77-4.16,1.36-6.22-6.65-18.15-11.15-31.86-11.15-11.7,0-26.31,12.88-36.48,23.65-1.16,1.22-12.42-14.53-25.94-10.7-13.48,3.81-19.27,25.05-19.27,25.05h920.24c1.02-2.45,1.59-5.15,1.59-7.97,0-5.67-2.29-10.81-5.99-14.55Zm-755.34-9.74c-.07-.31-.15-.61-.24-.91.28.15.57.3.86.43-.21.15-.42.31-.62.48Zm121.98,0c-.2-.17-.41-.33-.62-.48.29-.13.58-.28.86-.43-.09.3-.17.6-.24.91Zm165.43.16c-.35-.17-.71-.34-1.08-.5.51-.13,1.01-.29,1.5-.44-.15.31-.29.62-.42.94Zm128.92.99c-.16-.17-.33-.33-.5-.48.24-.13.47-.28.7-.43-.08.3-.14.6-.2.91Zm142.1,0c-.35-.17-.71-.33-1.08-.48.51-.13,1.01-.28,1.5-.43-.15.3-.29.6-.42.91Zm143.74-1.15c-.2-.17-.41-.33-.62-.48.29-.13.58-.28.86-.43-.09.3-.17.6-.24.91Z"/>
      <line class="cls-38" x1="1396.09" y1="438.15" x2="1391.19" y2="438.18"/>
      <path class="cls-23" d="m1798.29,322.2c-3.07-4.26-7.54-6.94-12.51-6.94-2.54,0-4.94.7-7.09,1.95-1.86-5.87-6.47-10.02-11.86-10.02-.06,0-.13,0-.19.01.13-.95.19-1.93.19-2.93,0-9.88-6.45-17.89-14.4-17.89s-14.4,8.01-14.4,17.89c0,1.19.1,2.35.27,3.48-2.72-2.2-5.98-3.48-9.48-3.48-7.81,0-14.41,6.34-16.65,15.1-6.07-2.58-13.58-4.11-21.73-4.11-5.51,0-10.71.7-15.39,1.95-4.03-5.87-14.04-10.02-25.73-10.02-.14,0-.28,0-.42.01.28-.95.42-1.93.42-2.93,0-9.88-13.99-17.89-31.24-17.89s-31.24,8.01-31.24,17.89c0,1.19.2,2.35.59,3.48-5.92-2.2-12.99-3.48-20.59-3.48-20.38,0-36.99,9.19-37.87,20.73-.31.04-.62.08-.93.12-3.52-6.55-10.44-11.01-18.41-11.01-3.15,0-6.13.7-8.81,1.95-2.31-5.87-8.04-10.02-14.73-10.02-.08,0-.16,0-.24.01.16-.95.24-1.93.24-2.93,0-9.88-8.01-17.89-17.89-17.89s-17.89,8.01-17.89,17.89c0,.09,0,.19.01.28.01,1.09.13,2.16.33,3.2-1.33-.87-2.78-1.59-4.3-2.15-1.52.56-2.97,1.28-4.31,2.15.2-1.04.32-2.11.33-3.2.01-.09.01-.19.01-.28,0-9.88-8.01-17.89-17.89-17.89s-17.89,8.01-17.89,17.89c0,1,.08,1.98.24,2.93-.08-.01-.16-.01-.24-.01-6.69,0-12.42,4.15-14.73,10.02-2.68-1.25-5.66-1.95-8.81-1.95-7.97,0-14.89,4.46-18.41,11.01-.31-.04-.62-.08-.93-.12-.88-11.54-17.49-20.73-37.87-20.73-7.6,0-14.67,1.28-20.59,3.48.39-1.13.59-2.29.59-3.48,0-9.88-13.98-17.89-31.24-17.89s-31.24,8.01-31.24,17.89c0,1,.14,1.98.42,2.93-.14-.01-.28-.01-.42-.01-11.69,0-21.7,4.15-25.73,10.02-4.68-1.25-9.88-1.95-15.39-1.95-8.15,0-15.66,1.53-21.73,4.11-2.24-8.76-8.84-15.1-16.65-15.1-3.5,0-6.76,1.28-9.48,3.48.17-1.13.27-2.29.27-3.48,0-9.88-6.45-17.89-14.4-17.89s-14.4,8.01-14.4,17.89c0,1,.06,1.98.19,2.93-.06-.01-.13-.01-.19-.01-5.39,0-10,4.15-11.86,10.02-2.15-1.25-4.55-1.95-7.09-1.95-5.72,0-10.78,3.55-13.81,8.98-.17-.03-.33-.05-.5-.07-.87-11.98-17.46-21.52-37.81-21.52-7.59,0-14.66,1.33-20.57,3.61.38-1.17.59-2.38.59-3.61,0-10.26-13.97-18.57-31.2-18.57s-31.21,8.31-31.21,18.57c0,1.04.14,2.05.42,3.04-.14-.01-.28-.01-.42-.01-11.67,0-21.66,4.31-25.69,10.4-4.68-1.3-9.88-2.02-15.37-2.02-12.97,0-24.33,4.03-30.79,10.09-.22,4.59-.37,9.18-.49,13.77.01,1.7.02,3.41.01,5.11.08,2.62.18,5.23.3,7.85.01.39.03.78.05,1.17h6.94c.94.5,1.93.96,2.96,1.39h208.07c.06-.08.11-.16.16-.24h270.98c.27-.38.53-.76.76-1.15h112.11c.23.39.49.77.76,1.15h267l69.94.24c-.82-.87-2.59-32.5-41.81-31.24Zm-780.33-2.25c-.35-.17-.71-.34-1.08-.5.51-.13,1.01-.29,1.5-.44-.15.31-.29.62-.42.94Zm128.92.99c-.16-.17-.33-.33-.5-.48.24-.13.47-.28.7-.43-.08.3-.14.6-.2.91Zm142.1,0c-.35-.17-.71-.33-1.08-.48.51-.13,1.01-.28,1.5-.43-.15.3-.29.6-.42.91Zm143.74-1.15c-.2-.17-.41-.33-.62-.48.29-.13.58-.28.86-.43-.09.3-.17.6-.24.91Zm27.25,0c-.07-.31-.15-.61-.24-.91.28.15.57.3.86.43-.21.15-.42.31-.62.48Zm143.74,1.15c-.13-.31-.27-.61-.42-.91.49.15.99.3,1.5.43-.37.15-.73.31-1.08.48Zm142.1,0c-.06-.31-.12-.61-.2-.91.23.15.46.3.7.43-.17.15-.34.31-.5.48Z"/>
      <path class="cls-32" d="m2784.67,323.23c-.5-11.54-10.01-20.73-21.68-20.73-4.35,0-8.4,1.28-11.79,3.48.22-1.13.34-2.29.34-3.48,0-9.88-8.01-17.89-17.89-17.89s-17.89,8.01-17.89,17.89c0,1,.08,1.98.24,2.93-.08-.01-.16-.01-.24-.01-6.69,0-12.42,4.15-14.73,10.02-2.68-1.25-5.66-1.95-8.81-1.95-7.97,0-14.89,4.46-18.41,11.01-.31-.04-.62-.08-.93-.12-.88-11.54-17.49-20.73-37.87-20.73-7.6,0-14.67,1.28-20.59,3.48.39-1.13.59-2.29.59-3.48,0-9.88-13.98-17.89-31.24-17.89s-31.24,8.01-31.24,17.89c0,1,.14,1.98.42,2.93-.14-.01-.28-.01-.42-.01-11.69,0-21.7,4.15-25.73,10.02-4.68-1.25-9.88-1.95-15.39-1.95-8.15,0-15.66,1.53-21.73,4.11-2.24-8.76-8.84-15.1-16.65-15.1-3.5,0-6.76,1.28-9.48,3.48.17-1.13.27-2.29.27-3.48,0-9.88-6.45-17.89-14.4-17.89s-14.4,8.01-14.4,17.89c0,1,.06,1.98.19,2.93-.06-.01-.13-.01-.19-.01-5.39,0-10,4.15-11.86,10.02-2.15-1.25-4.55-1.95-7.09-1.95-5.72,0-10.78,3.55-13.81,8.98-.17-.03-.33-.05-.5-.07-.87-11.98-17.46-21.52-37.81-21.52-7.59,0-14.66,1.33-20.57,3.61.38-1.17.59-2.38.59-3.61,0-10.26-13.97-18.57-31.2-18.57s-31.21,8.31-31.21,18.57c0,1.04.14,2.05.42,3.04-.14-.01-.28-.01-.42-.01-11.67,0-21.66,4.31-25.69,10.4-4.68-1.3-9.88-2.02-15.37-2.02-13.71,0-25.64,4.5-31.86,11.15-1.32-.59-2.71-1.05-4.16-1.36-.5-11.54-10.01-20.73-21.68-20.73-4.35,0-8.4,1.28-11.79,3.48.22-1.13.34-2.29.34-3.48,0-9.88-8.01-17.89-17.89-17.89s-17.89,8.01-17.89,17.89c0,1,.08,1.98.24,2.93-.08-.01-.16-.01-.24-.01-6.69,0-12.42,4.15-14.73,10.02-2.68-1.25-5.66-1.95-8.81-1.95-4.18,0-8.07,1.23-11.33,3.35-3.26-2.12-7.15-3.35-11.33-3.35-3.15,0-6.13.7-8.81,1.95-2.31-5.87-8.04-10.02-14.73-10.02-.08,0-.16,0-.24.01.16-.95.24-1.93.24-2.93,0-9.88-8.01-17.89-17.89-17.89s-17.89,8.01-17.89,17.89c0,1.19.12,2.35.34,3.48-3.39-2.2-7.44-3.48-11.79-3.48-11.67,0-21.18,9.19-21.68,20.73-1.45.31-2.84.77-4.16,1.36-6.22-6.65-18.19-12.25-31.86-11.15-32.31,2.61-43.89,40.64-43.89,40.64l47.4-1.26,252.11-1.39c.94.5,1.93.96,2.96,1.39h208.07c.06-.08.11-.16.16-.24h270.98c.27-.38.53-.76.76-1.15h100c1.02-2.45,1.59-5.15,1.59-7.97,0-9.94-7.02-18.25-16.37-20.23Zm-744.96-4.06c-.07-.31-.15-.61-.24-.91.28.15.57.3.86.43-.21.15-.42.31-.62.48Zm121.98,0c-.2-.17-.41-.33-.62-.48.29-.13.58-.28.86-.43-.09.3-.17.6-.24.91Zm165.43.16c-.35-.17-.71-.34-1.08-.5.51-.13,1.01-.29,1.5-.44-.15.31-.29.62-.42.94Zm128.92.99c-.16-.17-.33-.33-.5-.48.24-.13.47-.28.7-.43-.08.3-.14.6-.2.91Zm142.1,0c-.35-.17-.71-.33-1.08-.48.51-.13,1.01-.28,1.5-.43-.15.3-.29.6-.42.91Zm143.74-1.15c-.2-.17-.41-.33-.62-.48.29-.13.58-.28.86-.43-.09.3-.17.6-.24.91Z"/>
      <path class="cls-7" d="m1820.57,375.1c2.91-33.81-6.34-48.07-21.26-51.06-10.21-2.04-21.93,12.23-24.08,13.48-1.86-5.87-6.47-10.02-11.86-10.02-.06,0-.13,0-.19,0,.13-.95.19-1.93.19-2.93,0-9.88-6.45-17.89-14.4-17.89s-14.4,8.01-14.4,17.89c0,1.19.1,2.35.27,3.48-2.72-2.2-5.98-3.48-9.48-3.48-7.81,0-14.41,6.34-16.65,15.1-6.43-4.9-7.78-11.56-19.01-12.24s-13.43,8.83-18.11,10.08c-4.03-5.87-14.04-10.02-25.73-10.02-.14,0-.28,0-.42,0,.28-.95.42-1.93.42-2.93,0-9.88-13.99-17.89-31.24-17.89s-31.24,8.01-31.24,17.89c0,1.19.2,2.35.59,3.48-5.92-2.2-12.74-10.24-28.06-9.33-20.34,1.21-31.02,26.66-31.33,26.7-3.52-6.55-10.44-11.01-18.41-11.01-3.15,0-6.13.7-8.81,1.95-2.31-5.87-8.04-10.02-14.73-10.02-.08,0-.16,0-.24.01.16-.95.24-1.93.24-2.93,0-9.88-8.01-17.89-17.89-17.89s-17.89,8.01-17.89,17.89c0,.09,0,.19.01.28.01,1.09.13,2.16.33,3.2-1.33-.87-2.78-1.59-4.3-2.15-1.52.56-2.97,1.28-4.31,2.15.2-1.04.32-2.11.33-3.2.01-.09.01-.19.01-.28,0-9.88-8.01-17.89-17.89-17.89s-17.89,8.01-17.89,17.89c0,1,.08,1.98.24,2.93-.08-.01-.16-.01-.24-.01-6.69,0-12.42,4.15-14.73,10.02-2.68-1.25-5.66-1.95-8.81-1.95-7.97,0-14.89,4.46-18.41,11.01-.31-.04-.62-.08-.93-.12-.88-11.54-17.49-20.73-37.87-20.73-7.6,0-14.67,1.28-20.59,3.48.39-1.13.59-2.29.59-3.48,0-9.88-13.98-17.89-31.24-17.89s-31.24,8.01-31.24,17.89c0,1,.14,1.98.42,2.93-.14,0-.28,0-.42,0-11.69,0-21.7,4.15-25.73,10.02-4.68-1.25-9.88-1.95-15.39-1.95-8.15,0-15.66,1.53-21.73,4.11-2.24-8.76-8.84-15.1-16.65-15.1-3.5,0-6.76,1.28-9.48,3.48.17-1.13.27-2.29.27-3.48,0-9.88-6.45-17.89-14.4-17.89s-14.4,8.01-14.4,17.89c0,1,.06,1.98.19,2.93-.06,0-.13,0-.19,0-5.39,0-10,4.15-11.86,10.02-2.15-1.25-4.55-1.95-7.09-1.95-5.72,0-10.78,3.55-13.81,8.98-.17-.03-.33-.05-.5-.07-.87-11.98-17.46-21.52-37.81-21.52-7.59,0-14.66,1.33-20.57,3.61.38-1.17.59-2.38.59-3.61,0-10.26-13.97-18.57-31.2-18.57s-31.21,8.31-31.21,18.57c0,1.04.14,2.05.42,3.04-.14-.01-.28-.01-.42-.01-11.67,0-21.66,4.31-25.69,10.4-4.68-1.3-9.88-2.02-15.37-2.02-12.97,0-24.33,4.03-30.79,10.09-.07,1.4-.13,2.81-.18,4.21-.13,3.19-.23,6.37-.31,9.56.01,1.7.02,3.41.01,5.11.09,3.01.21,6.01.35,9.02l845.87,1.15,77.75,1.59Zm-806.08-34.84c-.35-.17-.71-.34-1.08-.5.51-.13,1.01-.29,1.5-.44-.15.31-.29.62-.42.94Zm128.92.99c-.16-.17-.33-.33-.5-.48.24-.13.47-.28.7-.43-.08.3-.14.6-.2.91Zm142.1,0c-.35-.17-.71-.33-1.08-.48.51-.13,1.01-.28,1.5-.43-.15.3-.29.6-.42.91Zm143.74-1.15c-.2-.17-.41-.33-.62-.48.29-.13.58-.28.86-.43-.09.3-.17.6-.24.91Zm27.25,0c-.07-.31-.15-.61-.24-.91.28.15.57.3.86.43-.21.15-.42.31-.62.48Zm143.74,1.15c-.13-.31-.27-.61-.42-.91.49.15.99.3,1.5.43-.37.15-.73.31-1.08.48Zm142.1,0c-.06-.31-.12-.61-.2-.91.23.15.46.3.7.43-.17.15-.34.31-.5.48Z"/>
      <path class="cls-13" d="m2844.17,346.24c-2.78-2.82-6.36-4.83-10.38-5.68-.5-11.54-10.01-20.73-21.68-20.73-4.35,0-8.4,1.28-11.79,3.48.22-1.13.34-2.29.34-3.48,0-9.88-8.01-17.89-17.89-17.89s-17.89,8.01-17.89,17.89c0,1,.08,1.98.24,2.93-.08-.01-.16-.01-.24-.01-6.69,0-12.42,4.15-14.73,10.02-2.68-1.25-5.66-1.95-8.81-1.95-7.97,0-14.89,4.46-18.41,11.01-.31-.04-.62-.08-.93-.12-.88-11.54-17.49-20.73-37.87-20.73-7.6,0-14.67,1.28-20.59,3.48.39-1.13.59-2.29.59-3.48,0-9.88-13.98-17.89-31.24-17.89s-31.24,8.01-31.24,17.89c0,1,.14,1.98.42,2.93-.14,0-.28,0-.42,0-11.69,0-21.7,4.15-25.73,10.02-4.68-1.25-9.88-1.95-15.39-1.95-8.15,0-15.66,1.53-21.73,4.11-2.24-8.76-8.84-15.1-16.65-15.1-3.5,0-6.76,1.28-9.48,3.48.17-1.13.27-2.29.27-3.48,0-9.88-6.45-17.89-14.4-17.89s-14.4,8.01-14.4,17.89c0,1,.06,1.98.19,2.93-.06,0-.13,0-.19,0-5.39,0-10,4.15-11.86,10.02-2.15-1.25-4.55-1.95-7.09-1.95-5.72,0-10.78,3.55-13.81,8.98-.17-.03-.33-.05-.5-.07-.87-11.98-17.46-21.52-37.81-21.52-7.59,0-14.66,1.33-20.57,3.61.38-1.17.59-2.38.59-3.61,0-10.26-13.97-18.57-31.2-18.57s-31.21,8.31-31.21,18.57c0,1.04.14,2.05.42,3.04-.14-.01-.28-.01-.42-.01-11.67,0-21.66,4.31-25.69,10.4-4.68-1.3-9.88-2.02-15.37-2.02-13.71,0-25.64,4.5-31.86,11.15-1.32-.59-2.71-1.05-4.16-1.36-.5-11.54-10.01-20.73-21.68-20.73-4.35,0-8.4,1.28-11.79,3.48.22-1.13.34-2.29.34-3.48,0-9.88-8.01-17.89-17.89-17.89s-17.89,8.01-17.89,17.89c0,1,.08,1.98.24,2.93-.08-.01-.16-.01-.24-.01-6.69,0-12.42,4.15-14.73,10.02-2.68-1.25-5.66-1.95-8.81-1.95-4.18,0-8.07,1.23-11.33,3.35-3.26-2.12-7.15-3.35-11.33-3.35-3.15,0-6.13.7-8.81,1.95-2.31-5.87-8.04-10.02-14.73-10.02-.08,0-.16,0-.24.01.16-.95.24-1.93.24-2.93,0-9.88-8.01-17.89-17.89-17.89s-17.89,8.01-17.89,17.89c0,1.19.12,2.35.34,3.48-3.39-2.2-7.44-3.48-11.79-3.48-11.67,0-21.18,9.19-21.68,20.73-1.45.31-2.84.77-4.16,1.36-6.22-6.65-18.15-11.15-31.86-11.15-11.7,0-26.31,12.88-36.48,23.65-1.16,1.22-12.42-14.53-25.94-10.7-13.48,3.81-19.27,25.05-19.27,25.05h920.24c1.02-2.45,1.59-5.15,1.59-7.97,0-5.67-2.29-10.81-5.99-14.55Zm-755.34-9.74c-.07-.31-.15-.61-.24-.91.28.15.57.3.86.43-.21.15-.42.31-.62.48Zm121.98,0c-.2-.17-.41-.33-.62-.48.29-.13.58-.28.86-.43-.09.3-.17.6-.24.91Zm165.43.16c-.35-.17-.71-.34-1.08-.5.51-.13,1.01-.29,1.5-.44-.15.31-.29.62-.42.94Zm128.92.99c-.16-.17-.33-.33-.5-.48.24-.13.47-.28.7-.43-.08.3-.14.6-.2.91Zm142.1,0c-.35-.17-.71-.33-1.08-.48.51-.13,1.01-.28,1.5-.43-.15.3-.29.6-.42.91Zm143.74-1.15c-.2-.17-.41-.33-.62-.48.29-.13.58-.28.86-.43-.09.3-.17.6-.24.91Z"/>
      <path class="cls-25" d="m1449.21,387.62c-.01,1.09-.13,2.16-.33,3.2,1.34-.87,2.79-1.59,4.31-2.15-1.28-.47-2.61-.83-3.98-1.05Zm-9.65,16.39c.07-.31.15-.61.24-.91-.28.15-.57.3-.86.43.21.15.42.31.62.48Z"/>
      <path class="cls-30" d="m1466.57,403.09c.09.3.17.6.24.91.2-.17.41-.33.62-.48-.29-.13-.58-.28-.86-.43Zm-13.38-14.43c1.52.56,2.97,1.28,4.3,2.15-.2-1.04-.32-2.11-.33-3.2-1.38.23-2.7.58-3.97,1.05Z"/>
      <g>
        <line class="cls-37" x1="2028.58" y1="436.26" x2="1779.42" y2="436.26"/>
        <g class="cls-49">
          <path class="cls-2" d="m1757.31,411.52c-11.46,4.2-21.08,28.47-21.24,54.26-2.11-11.95-7.88-18.8-14.81-15.99-3.62,1.47-6.99,5.34-9.73,10.67-2.64-5.02-6.72-7.28-11.36-5.43-5.63,2.26-10.6,9.97-13.21,19.48-2.42.17-5.01.8-7.71,1.94-14.98,6.28-27.61,25.42-27.61,42.49,0,2.19.21,4.21.6,6.07-4.77.72-10.11,2.38-15.81,5.05-14.71,6.9-28.06,18.71-35.61,30.6-4.05-7.92-10.71-11.22-18.37-7.66-12.67,5.91-23.31,28.28-23.87,50.37-1.78.12-3.65.65-5.6,1.65-9.6,4.93-17.93,19.48-21.04,35.41-3.21-6.41-8.89-8.8-15.45-5.34-8.21,4.32-15.3,16.42-17.96,29.51-3.34-1.77-7.43-1.66-11.88.76-1.16.63-2.3,1.39-3.42,2.27-4.76-13.22-14.92-18.78-26.92-12.57-17.25,8.93-31.67,38.65-31.67,66.1,0,15.81,4.8,26.93,12.15,31.52,3.19-3.01,6.86-5.52,10.91-7.4h-3.2l159.13-150.12c.16-.88.31-1.76.45-2.64.6.18,1.22.33,1.87.45l152.36-143.74,17.5-16.52c-2.85-15.32-9.97-24.31-18.5-21.19Z"/>
          <path class="cls-2" d="m1777.37,431.24l3.33-3.14,16.39-15.46,57.08-53.84,17.84-17.9c-4.73-4.63-14.01-4.13-16.79-1.98-5.13,3.96-4.52,8.04-6.64,17.62.71-.21-8.16-3.43-14.95-1.45-6.19,1.93-11.4,12-12.17,23.14-1.84-2.51-4.52-3.58-7.55-2.56-4.68,1.58-8.69,7.65-10.02,14.58-2.46-2.34-5.3-3.18-8.36-2.11-9.04,3.16-16.76,21.79-18.16,43.1Z"/>
        </g>
        <g class="cls-42">
          <path class="cls-10" d="m1475.21,724.17c-2.81,2.08-5.71,4.05-8.63,5.98-6.02-4.34-9.9-13.89-9.9-27.23,0-24.18,12.7-50.36,27.9-58.22,10.57-5.47,19.52-.57,23.71,11.07.99-.78,1.99-1.44,3.01-2,3.92-2.13,7.52-2.23,10.46-.67,2.34-11.53,8.59-22.19,15.82-25.99,5.78-3.05,10.78-.94,13.61,4.7,2.74-14.03,10.08-26.85,18.53-31.19,1.72-.88,3.36-1.35,4.93-1.45.49-19.46,9.87-39.16,21.03-44.37,6.75-3.14,12.61-.23,16.18,6.75,6.65-10.47,18.41-20.88,31.37-26.95,5.02-2.35,9.72-3.81,13.93-4.45-.34-1.64-.53-3.42-.53-5.35,0-15.04,11.13-31.9,24.32-37.43,2.38-1,4.66-1.56,6.79-1.71,2.3-8.38,6.68-15.17,11.64-17.16,4.09-1.63,7.68.36,10.01,4.78,2.41-4.69,5.38-8.1,8.57-9.4,6.1-2.48,11.19,3.56,13.05,14.08.14-22.72,8.61-44.09,18.71-47.79,7.51-2.75,13.79,5.17,16.3,18.66l-15.41,14.55-134.2,126.61c-.57-.11-1.12-.24-1.65-.4-.12.78-.26,1.55-.4,2.33l-140.17,132.23h1.04Z"/>
          <path class="cls-10" d="m1767.38,447.55l2.93-2.77,14.44-13.62,46.15-49.14,19.19-19.37c-2.12-6.04-7.31-3.28-15.04-1.11-8.61,2.42-16.03,10.44-17.9,18.88-.07.02-.15.04-.22.05-5.45,1.7-10.04,10.57-10.72,20.38-1.62-2.21-3.98-3.15-6.65-2.25-4.12,1.39-7.65,6.74-8.83,12.84-2.17-2.06-4.67-2.8-7.36-1.86-7.96,2.78-14.76,19.19-16,37.96Z"/>
        </g>
        <g class="cls-50">
          <path class="cls-2" d="m2327.76,730.72c0,27.44-14.42,40.86-31.67,30.29-2.63-1.61-5.18-3.7-7.6-6.17h19.41l-159.13-150.12c-.16-.88-.31-1.76-.45-2.64-.6.18-1.22.33-1.87.45l-152.36-143.74-17.5-16.52c2.85-15.32,9.97-24.31,18.5-21.19,11.46,4.2,21.08,28.47,21.24,54.26,2.11-11.95,7.88-18.8,14.81-15.99,3.62,1.47,6.99,5.34,9.73,10.67,2.64-5.02,6.72-7.28,11.36-5.43,5.63,2.26,10.6,9.97,13.21,19.48,2.42.17,5.01.8,7.71,1.94,14.98,6.28,27.61,25.42,27.61,42.49,0,2.19-.21,4.21-.6,6.07,4.77.72,10.11,2.38,15.81,5.05,14.71,6.9,28.06,18.71,35.61,30.6,4.05-7.92,10.71-11.22,18.37-7.66,12.67,5.91,23.31,28.28,23.87,50.37,1.78.12,3.65.65,5.6,1.65,9.6,4.93,17.93,19.48,21.04,35.41,3.21-6.41,8.89-8.8,15.45-5.34,8.21,4.32,15.3,16.42,17.96,29.51,3.34-1.77,7.43-1.66,11.88.76,1.16.63,2.3,1.39,3.42,2.27,4.76-13.22,14.92-18.78,26.92-12.57,17.25,8.93,31.67,38.65,31.67,66.1Z"/>
          <path class="cls-2" d="m1975.03,440.8l-3.33-3.14-16.39-15.46-57.14-56.98-25.04-24.96c6.48-4.09,15.24.14,17.2,1.62,4.72,3.57,9.83,9.57,10.47,16.12.08.02,9.7-1.18,15.45,2.9,6.24,4.44,13.93,15.76,14.7,26.9,1.84-2.51,4.52-3.58,7.55-2.56,4.68,1.58,8.69,7.65,10.02,14.58,2.46-2.34,5.3-3.18,8.36-2.11,9.04,3.16,16.76,21.79,18.16,43.1Z"/>
        </g>
        <g class="cls-52">
          <path class="cls-10" d="m2280.28,729.63c2.81,2.08,5.71,4.05,8.63,5.98,6.02-4.34,9.9-13.89,9.9-27.23,0-24.18-12.7-50.36-27.9-58.22-10.57-5.47-19.52-.57-23.71,11.07-.99-.78-1.99-1.44-3.01-2-3.92-2.13-7.52-2.23-10.46-.67-2.34-11.53-8.59-22.19-15.82-25.99-5.78-3.05-10.78-.94-13.61,4.7-2.74-14.03-10.08-26.85-18.53-31.19-1.72-.88-3.36-1.35-4.93-1.45-.49-19.46-9.87-39.16-21.03-44.37-6.75-3.14-12.61-.23-16.18,6.75-6.65-10.47-18.41-20.88-31.37-26.95-5.02-2.35-9.72-3.81-13.93-4.45.34-1.64.53-3.42.53-5.35,0-15.04-11.13-31.9-24.32-37.43-2.38-1-4.66-1.56-6.79-1.71-2.3-8.38-6.68-15.17-11.64-17.16-4.09-1.63-7.68.36-10.01,4.78-2.41-4.69-5.38-8.1-8.57-9.4-6.1-2.48-11.19,3.56-13.05,14.08-.14-22.72-8.61-44.09-18.71-47.79-7.51-2.75-13.79,5.17-16.3,18.66l15.41,14.55,134.2,126.61c.57-.11,1.12-.24,1.65-.4.12.78.26,1.55.4,2.33l140.17,132.23h-1.04Z"/>
          <path class="cls-10" d="m1988.12,453.01l-2.93-2.77-14.44-13.62-48.29-47.19-21.03-21.14c2.12-6.04,11.29-3.46,19.01-1.29,8.61,2.42,16.03,10.44,17.9,18.88.07.02.15.04.22.05,5.45,1.7,10.04,10.57,10.72,20.38,1.62-2.21,3.98-3.15,6.65-2.25,4.12,1.39,7.65,6.74,8.83,12.84,2.17-2.06,4.67-2.8,7.36-1.86,7.96,2.78,14.76,19.19,16,37.96Z"/>
        </g>
        <g class="cls-47">
          <path class="cls-2" d="m2260.89,713.13c2.94,1.97,5.77,4.08,8.59,6.22,2.28-2.64,3.68-7.07,3.68-12.86,0-12.64-6.64-26.33-14.59-30.45-5.53-2.86-10.21-.3-12.4,5.79-.52-.41-1.04-.76-1.58-1.05-2.05-1.11-3.93-1.17-5.47-.35-1.23-6.03-4.49-11.6-8.27-13.59-3.02-1.59-5.64-.49-7.12,2.46-1.43-7.34-5.27-14.04-9.69-16.31-.9-.46-1.76-.7-2.58-.76-.26-10.17-5.16-20.48-10.99-23.2-3.53-1.64-6.6-.12-8.46,3.53-3.48-5.48-9.63-10.92-16.4-14.09-2.63-1.23-5.09-1.99-7.28-2.33.18-.86.28-1.79.28-2.8,0-7.86-5.82-16.68-12.72-19.57-1.24-.53-2.44-.82-3.55-.89-1.2-4.38-3.49-7.93-6.08-8.97-2.14-.85-4.02.19-5.23,2.5-1.26-2.46-2.81-4.24-4.48-4.91-3.19-1.29-5.85,1.86-6.82,7.37-.07-11.88-4.5-23.06-9.78-24.99-3.93-1.44-7.21,2.7-8.52,9.76l8.06,7.61,70.18,66.21c.3-.06.58-.12.86-.21.06.41.13.81.21,1.22l68.35,64.48c.57-.22,1.22-.2,1.83.21Z"/>
          <path class="cls-2" d="m2110.69,572.94l-1.53-1.45-7.55-7.12-26.32-26.25-11.74-11.08c1.11-3.16,7.72-.22,11.75.92,4.5,1.27,8.38,5.46,9.36,9.87.04,0,.08.02.12.03,2.85.89,5.25,5.53,5.61,10.66.85-1.16,2.08-1.65,3.48-1.18,2.16.73,4,3.52,4.62,6.72,1.13-1.08,2.44-1.46,3.85-.97,4.16,1.46,7.72,10.04,8.36,19.85Z"/>
        </g>
        <g class="cls-35">
          <path class="cls-2" d="m2035.15,496.38c1.75,1.18,3.44,2.43,5.12,3.7,1.36-1.57,2.19-4.21,2.19-7.66,0-7.53-3.95-15.68-8.68-18.13-3.29-1.7-6.08-.18-7.38,3.45-.31-.24-.62-.45-.94-.62-1.22-.66-2.34-.69-3.26-.21-.73-3.59-2.67-6.91-4.92-8.09-1.8-.95-3.36-.29-4.24,1.46-.85-4.37-3.14-8.36-5.77-9.71-.53-.27-1.05-.42-1.54-.45-.15-6.06-3.07-12.19-6.55-13.81-2.1-.98-3.93-.07-5.04,2.1-2.07-3.26-5.73-6.5-9.76-8.39-1.56-.73-3.03-1.19-4.34-1.38.11-.51.16-1.06.16-1.66,0-4.68-3.46-9.93-7.57-11.65-.74-.31-1.45-.49-2.11-.53-.72-2.61-2.08-4.72-3.62-5.34-1.27-.51-2.39.11-3.12,1.49-.75-1.46-1.68-2.52-2.67-2.93-1.9-.77-3.48,1.11-4.06,4.38-.04-7.07-2.68-13.73-5.82-14.88-2.34-.86-4.29,1.61-5.07,5.81l4.8,4.53,41.78,39.41c.18-.03.35-.07.51-.12.04.24.08.48.12.72l40.69,38.38c.34-.13.73-.12,1.09.12Z"/>
          <path class="cls-2" d="m1945.73,412.93l-.91-.86-4.49-4.24-15.67-15.62-6.99-6.6c.66-1.88,4.59-.13,7,.55,2.68.75,4.99,3.25,5.57,5.88.02,0,.05.01.07.02,1.7.53,3.13,3.29,3.34,6.35.5-.69,1.24-.98,2.07-.7,1.28.43,2.38,2.1,2.75,4,.67-.64,1.45-.87,2.29-.58,2.48.87,4.6,5.98,4.98,11.82Z"/>
        </g>
        <g class="cls-46">
          <path class="cls-2" d="m1492.32,705.9c-2.94,1.97-5.77,4.08-8.59,6.22-2.28-2.64-3.68-7.07-3.68-12.86,0-12.64,6.64-26.33,14.59-30.45,5.53-2.86,10.21-.3,12.4,5.79.52-.41,1.04-.76,1.58-1.05,2.05-1.11,3.93-1.17,5.47-.35,1.23-6.03,4.49-11.6,8.27-13.59,3.02-1.59,5.64-.49,7.12,2.46,1.43-7.34,5.27-14.04,9.69-16.31.9-.46,1.76-.7,2.58-.76.26-10.17,5.16-20.48,10.99-23.2,3.53-1.64,6.6-.12,8.46,3.53,3.48-5.48,9.63-10.92,16.4-14.09,2.63-1.23,5.09-1.99,7.28-2.33-.18-.86-.28-1.79-.28-2.8,0-7.86,5.82-16.68,12.72-19.57,1.24-.53,2.44-.82,3.55-.89,1.2-4.38,3.49-7.93,6.08-8.97,2.14-.85,4.02.19,5.23,2.5,1.26-2.46,2.81-4.24,4.48-4.91,3.19-1.29,5.85,1.86,6.82,7.37.07-11.88,4.5-23.06,9.78-24.99,3.93-1.44,7.21,2.7,8.52,9.76l-8.06,7.61-70.18,66.21c-.3-.06-.58-.12-.86-.21-.06.41-.13.81-.21,1.22l-68.35,64.48c-.57-.22-1.22-.2-1.83.21Z"/>
          <path class="cls-2" d="m1642.52,565.72l1.53-1.45,7.55-7.12,26.32-26.25,11.74-11.08c-1.11-3.16-7.72-.22-11.75.92-4.5,1.27-8.38,5.46-9.36,9.87-.04,0-.08.02-.12.03-2.85.89-5.25,5.53-5.61,10.66-.85-1.16-2.08-1.65-3.48-1.18-2.16.73-4,3.52-4.62,6.72-1.13-1.08-2.44-1.46-3.85-.97-4.16,1.46-7.72,10.04-8.36,19.85Z"/>
        </g>
        <g class="cls-41">
          <path class="cls-2" d="m1723.27,491.42c-1.69,1.25-3.33,2.58-4.95,3.92-1.42-1.51-2.37-4.11-2.52-7.56-.33-7.52,3.27-15.83,7.89-18.49,3.21-1.84,6.06-.44,7.52,3.12.3-.25.6-.48.91-.66,1.19-.72,2.31-.79,3.25-.35.57-3.62,2.37-7.02,4.57-8.3,1.76-1.03,3.34-.44,4.3,1.28.66-4.4,2.77-8.49,5.34-9.95.52-.3,1.03-.46,1.51-.52-.11-6.06,2.54-12.31,5.94-14.08,2.06-1.07,3.92-.24,5.12,1.88,1.93-3.35,5.44-6.74,9.39-8.81,1.53-.8,2.97-1.32,4.27-1.57-.13-.5-.21-1.06-.24-1.66-.2-4.68,3.03-10.07,7.06-11.97.73-.34,1.43-.55,2.09-.62.6-2.64,1.87-4.81,3.39-5.49,1.25-.56,2.39,0,3.18,1.35.69-1.49,1.56-2.59,2.54-3.04,1.87-.85,3.53.96,4.25,4.2-.26-7.07,2.08-13.83,5.17-15.12,2.3-.96,4.36,1.42,5.32,5.58l-4.6,4.73-40.03,41.19c-.18-.03-.35-.06-.52-.1-.03.24-.06.49-.09.73l-38.98,40.11c-.35-.12-.73-.09-1.08.17Z"/>
          <path class="cls-2" d="m1808.98,404.16l.87-.9,4.31-4.43,14.98-16.29,6.7-6.89c-.74-1.85-4.59.07-6.97.85-2.64.87-4.84,3.46-5.31,6.11-.02,0-.05.01-.07.02-1.67.6-2.98,3.42-3.06,6.48-.53-.67-1.28-.93-2.1-.61-1.26.49-2.29,2.2-2.57,4.11-.7-.61-1.49-.81-2.32-.48-2.44.97-4.33,6.17-4.46,12.02Z"/>
        </g>
      </g>
      <path class="cls-27" d="m2658.87,368.73c-.54-1.44-2.64-6.21-7.94-10.1-.61-.45-.11-1.41.61-1.18l6.59,2.11c.44.14.89-.18.88-.64-.05-3.58-2.3-14.33-5.59-20.74-.26-.51.34-1.02.8-.67,3.02,2.26,8.65,7.17,11.53,13.95.28.67,1.27.49,1.3-.23l.39-10.84c.06-1.52,2.27-1.63,2.47-.12l1.12,8.53c.1.76,1.18.79,1.33.05l4.38-21.18c.16-.76,1.26-.7,1.33.07l2.43,25.02v-21.09c0-.76,1.07-.94,1.32-.22l5.97,17.45c.24.72,1.3.56,1.31-.2.11-6.51.86-18.91,4.82-22.38.46-.41,1.19-.03,1.12.58-.51,4.66-2.04,20.17-.34,24.9.18.49.82.6,1.16.21,1.45-1.7,4.83-6.04,5.18-9.96.06-.69.96-.89,1.27-.27,1.27,2.53,2.55,6.66,1.09,11.59-.18.6.47,1.11,1,.77,3.57-2.31,11.82-7.21,14.34-5.09.33.28.28.76-.06,1.02-2.68,2.08-14.52,11.68-13.92,18.37.04.39-.31.72-.7.72h-44.57c-.28,0-.53-.17-.63-.43Z"/>
      <path class="cls-22" d="m2130.79,369.43c-.41-1.08-1.99-4.68-5.98-7.61-.46-.34-.08-1.06.46-.89l4.96,1.59c.33.11.67-.14.66-.48-.04-2.7-1.73-10.79-4.21-15.62-.2-.38.26-.77.6-.51,2.27,1.71,6.52,5.4,8.68,10.5.21.5.96.37.98-.18l.3-8.17c.04-1.15,1.71-1.23,1.86-.09l.85,6.42c.07.57.89.6,1,.04l3.3-15.95c.12-.57.95-.53,1.01.05l1.83,18.85v-15.89c0-.58.8-.71.99-.16l4.49,13.15c.18.54.98.42.99-.15.09-4.9.65-14.25,3.63-16.85.35-.31.9-.02.85.44-.38,3.51-1.54,15.19-.26,18.76.13.37.61.46.87.16,1.09-1.28,3.64-4.55,3.9-7.5.05-.52.73-.67.96-.21.96,1.91,1.92,5.01.82,8.73-.13.45.35.84.75.58,2.69-1.74,8.91-5.43,10.8-3.83.25.21.21.57-.05.77-2.02,1.57-10.94,8.8-10.48,13.84.03.3-.23.54-.53.54h-33.57c-.21,0-.4-.13-.47-.32Z"/>
      <path class="cls-16" d="m2092.53,369.43c-.41-1.08-1.99-4.68-5.98-7.61-.46-.34-.08-1.06.46-.89l4.96,1.59c.33.11.67-.14.66-.48-.04-2.7-1.73-10.79-4.21-15.62-.2-.38.26-.77.6-.51,2.27,1.71,6.52,5.4,8.68,10.5.21.5.96.37.98-.18l.3-8.17c.04-1.15,1.71-1.23,1.86-.09l.85,6.42c.07.57.89.6,1,.04l3.3-15.95c.12-.57.95-.53,1.01.05l1.83,18.85v-15.89c0-.58.8-.71.99-.16l4.49,13.15c.18.54.98.42.99-.15.09-4.9.65-14.25,3.63-16.85.35-.31.9-.02.85.44-.38,3.51-1.54,15.19-.26,18.76.13.37.61.46.87.16,1.09-1.28,3.64-4.55,3.9-7.5.05-.52.73-.67.96-.21.96,1.91,1.92,5.01.82,8.73-.13.45.35.84.75.58,2.69-1.74,8.91-5.43,10.8-3.83.25.21.21.57-.05.77-2.02,1.57-10.94,8.8-10.48,13.84.03.3-.23.54-.53.54h-33.57c-.21,0-.4-.13-.47-.32Z"/>
      <path class="cls-17" d="m2308.32,350.47c-2.51-2.12-10.76,2.78-14.34,5.09-.53.34-1.17-.17-1-.77,1.45-4.93.18-9.05-1.09-11.59-.31-.62-1.21-.41-1.27.27-.35,3.92-3.73,8.25-5.18,9.96-.34.4-.98.29-1.16-.21-1.7-4.73-.17-20.25.34-24.9.07-.61-.66-.99-1.12-.58-3.96,3.46-4.71,15.87-4.82,22.38-.01.76-1.07.91-1.31.2l-5.97-17.45c-.25-.72-1.32-.55-1.32.22v21.09l-2.43-25.02c-.07-.77-1.18-.83-1.33-.07l-4.38,21.18c-.03.14-.1.24-.17.32-.18.06-.37.13-.56.2-.28-.03-.55-.22-.6-.58l-1.12-8.53c-.2-1.51-2.42-1.4-2.47.12l-.39,10.84c0,.15-.06.28-.14.38-.16.09-.32.18-.47.26-.27.03-.55-.1-.69-.41-1.05-2.48-2.47-4.7-3.99-6.63-.32-1.17-.75-2.2-1.17-3.04-.31-.61-1.18-.42-1.27.24-1.9-1.98-3.76-3.51-5.1-4.51-.46-.34-1.06.16-.8.67,1.43,2.78,2.66,6.38,3.6,9.86-1.04,1.7-2.19,3.14-2.89,3.96-.34.4-.98.29-1.16-.21-1.7-4.73-.17-20.25.34-24.9.07-.61-.66-.99-1.12-.58-3.96,3.46-4.71,15.87-4.82,22.38-.01.76-1.07.91-1.31.2l-5.97-17.45c-.25-.72-1.32-.55-1.32.22v21.09l-2.43-25.02c-.08-.77-1.18-.83-1.33-.07l-4.38,21.18c-.15.75-1.23.71-1.33-.05l-1.12-8.53c-.2-1.51-2.42-1.4-2.47.12l-.39,10.84c-.03.73-1.01.9-1.29.23-2.87-6.78-8.51-11.68-11.53-13.95-.46-.34-1.06.16-.8.67,3.29,6.41,5.54,17.16,5.59,20.74,0,.46-.44.78-.88.64l-6.59-2.11c-.72-.23-1.22.73-.61,1.18,5.3,3.89,7.4,8.66,7.94,10.1.1.26.35.43.63.43h86.3c.39,0,.74-.33.7-.72-.61-6.69,11.24-16.29,13.92-18.37.34-.26.39-.75.06-1.02Z"/>
      <path class="cls-31" d="m2767.12,574.67c-2.51-2.12-10.76,2.78-14.34,5.09-.53.34-1.17-.17-1-.77,1.45-4.93.18-9.05-1.09-11.59-.31-.62-1.21-.41-1.27.27-.35,3.92-3.73,8.25-5.18,9.96-.34.4-.98.29-1.16-.21-1.7-4.73-.17-20.25.34-24.9.07-.61-.66-.99-1.12-.58-3.96,3.46-4.71,15.87-4.82,22.38-.01.76-1.07.91-1.31.2l-5.97-17.45c-.25-.72-1.32-.55-1.32.22v21.09l-2.43-25.02c-.07-.77-1.18-.83-1.33-.07l-4.38,21.18c-.03.14-.1.24-.17.32-.18.06-.37.13-.56.2-.28-.03-.55-.22-.6-.58l-1.12-8.53c-.2-1.51-2.42-1.4-2.47.12l-.39,10.84c0,.15-.06.28-.14.38-.16.09-.32.18-.47.26-.27.03-.55-.1-.69-.41-1.05-2.48-2.47-4.7-3.99-6.63-.32-1.17-.75-2.2-1.17-3.04-.31-.61-1.18-.42-1.27.24-1.9-1.98-3.76-3.51-5.1-4.51-.46-.34-1.06.16-.8.67,1.43,2.78,2.66,6.38,3.6,9.86-1.04,1.7-2.19,3.14-2.89,3.96-.34.4-.98.29-1.16-.21-1.7-4.73-.17-20.25.34-24.9.07-.61-.66-.99-1.12-.58-3.96,3.46-4.71,15.87-4.82,22.38-.01.76-1.07.91-1.31.2l-5.97-17.45c-.25-.72-1.32-.55-1.32.22v21.09l-2.43-25.02c-.08-.77-1.18-.83-1.33-.07l-4.38,21.18c-.15.75-1.23.71-1.33-.05l-1.12-8.53c-.2-1.51-2.42-1.4-2.47.12l-.39,10.84c-.03.73-1.01.9-1.29.23-2.87-6.78-8.51-11.68-11.53-13.95-.46-.34-1.06.16-.8.67,3.29,6.41,5.54,17.16,5.59,20.74,0,.46-.44.78-.88.64l-6.59-2.11c-.72-.23-1.22.73-.61,1.18,5.3,3.89,7.4,8.66,7.94,10.1.1.26.35.43.63.43h86.3c.39,0,.74-.33.7-.72-.61-6.69,11.24-16.29,13.92-18.37.34-.26.39-.75.06-1.02Z"/>
      <path class="cls-26" d="m2591.6,349.05c-2.51-2.12-10.76,2.78-14.34,5.09-.53.34-1.17-.17-1-.77,1.45-4.93.18-9.05-1.09-11.59-.31-.62-1.21-.41-1.27.27-.35,3.92-3.73,8.25-5.18,9.96-.34.4-.98.29-1.16-.21-1.7-4.73-.17-20.25.34-24.9.07-.61-.66-.99-1.12-.58-3.96,3.46-4.71,15.87-4.82,22.38-.01.76-1.07.91-1.31.2l-5.97-17.45c-.25-.72-1.32-.55-1.32.22v21.09l-2.43-25.02c-.07-.77-1.18-.83-1.33-.07l-4.34,21.01c-.41.08-.85.19-1.3.33-.03-.06-.06-.13-.07-.21l-1.12-8.53c-.2-1.51-2.42-1.4-2.47.12l-.37,10.3c-.45.23-.91.46-1.35.7-2.88-6.74-8.49-11.61-11.49-13.87-.46-.34-1.06.16-.8.67,1.17,2.27,2.2,5.09,3.05,7.94-1.21,2.52-2.99,4.77-3.94,5.88-.34.4-.98.29-1.16-.21-1.7-4.73-.17-20.25.34-24.9.07-.61-.66-.99-1.12-.58-3.96,3.46-4.71,15.87-4.82,22.38-.01.76-1.07.91-1.31.2l-5.97-17.45c-.25-.72-1.32-.55-1.32.22v17.27c-.12.03-.24.07-.36.11l-2.07-21.31c-.08-.77-1.18-.83-1.33-.07l-4.38,21.18c-.15.75-1.23.71-1.33-.05l-1.12-8.53c-.2-1.51-2.42-1.4-2.47.12l-.04,1.06c-.26.07-.48.28-.51.61-.2,2.22-1.36,4.56-2.6,6.5-1.32-2.29-2.91-4.31-4.49-6.02.11-5.99.8-12.8,1.11-15.63.07-.61-.66-.99-1.12-.58-2.31,2.03-3.53,7.11-4.16,12.29-.5-.41-.98-.78-1.39-1.1-.46-.34-1.06.16-.8.67.65,1.27,1.26,2.71,1.82,4.23-.17,2.33-.26,4.52-.29,6.28-.01.76-1.07.91-1.31.2l-5.97-17.45c-.25-.72-1.32-.55-1.32.22v21.09l-2.43-25.02c-.08-.77-1.18-.83-1.33-.07l-4.38,21.18c-.15.75-1.23.71-1.33-.05l-1.12-8.53c-.2-1.51-2.42-1.4-2.47.12l-.39,10.84c-.03.73-1.01.9-1.3.23-2.87-6.78-8.51-11.68-11.53-13.95-.46-.34-1.06.16-.8.67,3.29,6.41,5.54,17.16,5.59,20.74,0,.46-.44.78-.88.64l-6.59-2.11c-.72-.23-1.22.73-.61,1.18,5.3,3.89,7.4,8.66,7.94,10.1.1.26.35.43.63.43h122.06c.39,0,.74-.33.7-.72-.61-6.69,11.24-16.29,13.92-18.37.34-.26.39-.75.06-1.02Z"/>
      <path class="cls-11" d="m1572.06,373.73c-.54-1.44-2.64-6.21-7.94-10.1-.61-.45-.11-1.41.61-1.18l6.59,2.11c.44.14.89-.18.88-.64-.05-3.58-2.3-14.33-5.59-20.74-.26-.51.34-1.02.8-.67,3.02,2.26,8.65,7.17,11.53,13.95.28.67,1.27.49,1.3-.23l.39-10.84c.06-1.52,2.27-1.63,2.47-.12l1.12,8.53c.1.76,1.18.79,1.33.05l4.38-21.18c.16-.76,1.26-.7,1.33.07l2.43,25.02v-21.09c0-.76,1.07-.94,1.32-.22l5.97,17.45c.24.72,1.3.56,1.31-.2.11-6.51.86-18.91,4.82-22.38.46-.41,1.19-.03,1.12.58-.51,4.66-2.04,20.17-.34,24.9.18.49.82.6,1.16.21,1.45-1.7,4.83-6.04,5.18-9.96.06-.69.96-.89,1.27-.27,1.27,2.53,2.55,6.66,1.09,11.59-.18.6.47,1.11,1,.77,3.57-2.31,11.82-7.21,14.34-5.09.33.28.28.76-.06,1.02-2.68,2.08-14.52,11.68-13.92,18.37.04.39-.31.72-.7.72h-44.57c-.28,0-.53-.17-.63-.43Z"/>
      <path class="cls-8" d="m1037.38,373.84c-.41-1.08-1.99-4.68-5.98-7.61-.46-.34-.08-1.06.46-.89l4.96,1.59c.33.11.67-.14.66-.48-.04-2.7-1.73-10.79-4.21-15.62-.2-.38.26-.77.6-.51,2.27,1.71,6.52,5.4,8.68,10.5.21.5.96.37.98-.18l.3-8.17c.04-1.15,1.71-1.23,1.86-.09l.85,6.42c.07.57.89.6,1,.04l3.3-15.95c.12-.57.95-.53,1.01.05l1.83,18.85v-15.89c0-.58.8-.71.99-.16l4.49,13.15c.18.54.98.42.99-.15.09-4.9.65-14.25,3.63-16.85.35-.31.9-.02.85.44-.38,3.51-1.54,15.19-.26,18.76.13.37.61.46.87.16,1.09-1.28,3.64-4.55,3.9-7.5.05-.52.73-.67.96-.21.96,1.91,1.92,5.01.82,8.73-.13.45.35.84.75.58,2.69-1.74,8.91-5.43,10.8-3.83.25.21.21.57-.05.77-2.02,1.57-10.94,8.8-10.48,13.84.03.3-.23.54-.53.54h-33.57c-.21,0-.4-.13-.47-.32Z"/>
      <path class="cls-21" d="m999.12,373.84c-.41-1.08-1.99-4.68-5.98-7.61-.46-.34-.08-1.06.46-.89l4.96,1.59c.33.11.67-.14.66-.48-.04-2.7-1.73-10.79-4.21-15.62-.2-.38.26-.77.6-.51,2.27,1.71,6.52,5.4,8.68,10.5.21.5.96.37.98-.18l.3-8.17c.04-1.15,1.71-1.23,1.86-.09l.85,6.42c.07.57.89.6,1,.04l3.3-15.95c.12-.57.95-.53,1.01.05l1.83,18.85v-15.89c0-.58.8-.71.99-.16l4.49,13.15c.18.54.98.42.99-.15.09-4.9.65-14.25,3.63-16.85.35-.31.9-.02.85.44-.38,3.51-1.54,15.19-.26,18.76.13.37.61.46.87.16,1.09-1.28,3.64-4.55,3.9-7.5.05-.52.73-.67.96-.21.96,1.91,1.92,5.01.82,8.73-.13.45.35.84.75.58,2.69-1.74,8.91-5.43,10.8-3.83.25.21.21.57-.05.77-2.02,1.57-10.94,8.8-10.48,13.84.03.3-.23.54-.53.54h-33.57c-.21,0-.4-.13-.47-.32Z"/>
      <path class="cls-4" d="m1215.3,354.05c-2.51-2.12-10.76,2.78-14.34,5.09-.53.34-1.17-.17-1-.77,1.45-4.93.18-9.05-1.09-11.59-.31-.62-1.21-.41-1.27.27-.35,3.92-3.73,8.25-5.18,9.96-.34.4-.98.29-1.16-.21-1.7-4.73-.17-20.25.34-24.9.07-.61-.66-.99-1.12-.58-3.96,3.46-4.71,15.87-4.82,22.38-.01.76-1.07.91-1.31.2l-5.97-17.45c-.25-.72-1.32-.55-1.32.22v21.09l-2.43-25.02c-.07-.77-1.18-.83-1.33-.07l-4.38,21.18c-.03.14-.1.24-.17.32-.18.06-.37.13-.56.2-.28-.03-.55-.22-.6-.58l-1.12-8.53c-.2-1.51-2.42-1.4-2.47.12l-.39,10.84c0,.15-.06.28-.14.38-.16.09-.32.18-.47.26-.27.03-.55-.1-.69-.41-1.05-2.48-2.47-4.7-3.99-6.63-.32-1.17-.75-2.2-1.17-3.04-.31-.61-1.18-.42-1.27.24-1.9-1.98-3.76-3.51-5.1-4.51-.46-.34-1.06.16-.8.67,1.43,2.78,2.66,6.38,3.6,9.86-1.04,1.7-2.19,3.14-2.89,3.96-.34.4-.98.29-1.16-.21-1.7-4.73-.17-20.25.34-24.9.07-.61-.66-.99-1.12-.58-3.96,3.46-4.71,15.87-4.82,22.38-.01.76-1.07.91-1.31.2l-5.97-17.45c-.25-.72-1.32-.55-1.32.22v21.09l-2.43-25.02c-.08-.77-1.18-.83-1.33-.07l-4.38,21.18c-.15.75-1.23.71-1.33-.05l-1.12-8.53c-.2-1.51-2.42-1.4-2.47.12l-.39,10.84c-.03.73-1.01.9-1.29.23-2.87-6.78-8.51-11.68-11.53-13.95-.46-.34-1.06.16-.8.67,3.29,6.41,5.54,17.16,5.59,20.74,0,.46-.44.78-.88.64l-6.59-2.11c-.72-.23-1.22.73-.61,1.18,5.3,3.89,7.4,8.66,7.94,10.1.1.26.35.43.63.43h86.3c.39,0,.74-.33.7-.72-.61-6.69,11.24-16.29,13.92-18.37.34-.26.39-.75.06-1.02Z"/>
      <path class="cls-6" d="m1504.79,354.05c-2.51-2.12-10.76,2.78-14.34,5.09-.53.34-1.17-.17-1-.77,1.45-4.93.18-9.05-1.09-11.59-.31-.62-1.21-.41-1.27.27-.35,3.92-3.73,8.25-5.18,9.96-.34.4-.98.29-1.16-.21-1.7-4.73-.17-20.25.34-24.9.07-.61-.66-.99-1.12-.58-3.96,3.46-4.71,15.87-4.82,22.38-.01.76-1.07.91-1.31.2l-5.97-17.45c-.25-.72-1.32-.55-1.32.22v21.09l-2.43-25.02c-.07-.77-1.18-.83-1.33-.07l-4.34,21.01c-.41.08-.85.19-1.3.33-.03-.06-.06-.13-.07-.21l-1.12-8.53c-.2-1.51-2.42-1.4-2.47.12l-.37,10.3c-.45.23-.91.46-1.35.7-2.88-6.74-8.49-11.61-11.49-13.87-.46-.34-1.06.16-.8.67,1.17,2.27,2.2,5.09,3.05,7.94-1.21,2.52-2.99,4.77-3.94,5.88-.34.4-.98.29-1.16-.21-1.7-4.73-.17-20.25.34-24.9.07-.61-.66-.99-1.12-.58-3.96,3.46-4.71,15.87-4.82,22.38-.01.76-1.07.91-1.31.2l-5.97-17.45c-.25-.72-1.32-.55-1.32.22v17.27c-.12.03-.24.07-.36.11l-2.07-21.31c-.08-.77-1.18-.83-1.33-.07l-4.38,21.18c-.15.75-1.23.71-1.33-.05l-1.12-8.53c-.2-1.51-2.42-1.4-2.47.12l-.04,1.06c-.26.07-.48.28-.51.61-.2,2.22-1.36,4.56-2.6,6.5-1.32-2.29-2.91-4.31-4.49-6.02.11-5.99.8-12.8,1.11-15.63.07-.61-.66-.99-1.12-.58-2.31,2.03-3.53,7.11-4.16,12.29-.5-.41-.98-.78-1.39-1.1-.46-.34-1.06.16-.8.67.65,1.27,1.26,2.71,1.82,4.23-.17,2.33-.26,4.52-.29,6.28-.01.76-1.07.91-1.31.2l-5.97-17.45c-.25-.72-1.32-.55-1.32.22v21.09l-2.43-25.02c-.08-.77-1.18-.83-1.33-.07l-4.38,21.18c-.15.75-1.23.71-1.33-.05l-1.12-8.53c-.2-1.51-2.42-1.4-2.47.12l-.39,10.84c-.03.73-1.01.9-1.3.23-2.87-6.78-8.51-11.68-11.53-13.95-.46-.34-1.06.16-.8.67,3.29,6.41,5.54,17.16,5.59,20.74,0,.46-.44.78-.88.64l-6.59-2.11c-.72-.23-1.22.73-.61,1.18,5.3,3.89,7.4,8.66,7.94,10.1.1.26.35.43.63.43h122.06c.39,0,.74-.33.7-.72-.61-6.69,11.24-16.29,13.92-18.37.34-.26.39-.75.06-1.02Z"/>
      <g class="cls-44">
        <path class="cls-9" d="m2185.51,332.32c1.28,3.18,4.4,7.15,11.94,9.01,0,0,2.4-7.19-8.73-12.14-1.99-.89-4.03,1.11-3.22,3.13Z"/>
        <path class="cls-9" d="m2210.76,336.34c-6.69,2.98-9.76,6.55-11.11,9.6v-35.83c0-.26-.21-.47-.47-.47h-1.03c-.26,0-.47.21-.47.47v42.94c-1.72-3.25-5.39-8.18-12.53-10.74-2.2-.79-4.26,1.49-3.22,3.58,2.47,4.93,7.42,11.66,15.75,10.57v5c-1.73-1.55-4.69-3.43-9.24-4.03-2.7-.36-4.19,3.05-2.15,4.87,2.98,2.66,7.17,5.01,11.4,2.8v10.01c0,.26.21.47.47.47h1.03c.26,0,.47-.21.47-.47v-7.15c4.74-.06,7.59-2.99,9.14-5.41.98-1.53-.2-3.55-2.01-3.45-3.58.2-5.78,2.03-7.12,3.96v-10.46c9.7-2.58,13.77-7.8,15.46-12.01,1.1-2.73-1.66-5.44-4.35-4.24Z"/>
        <path class="cls-9" d="m2197.67,323.99s.21-9.39-9.91-14.48c-2.64-1.33-5.6,1.31-4.57,4.08,1.47,3.96,5.2,8.7,14.48,10.4Z"/>
        <path class="cls-9" d="m2209.46,310.61c1.37-3.68-3.58-6.44-5.86-3.24-3.81,5.33-3.96,12.35-3.96,12.35,5.86-2.31,8.6-5.84,9.82-9.11Z"/>
        <path class="cls-9" d="m2209.21,325.86c1.63-3.51-2.81-6.61-5.51-3.84-3.5,3.59-4.05,10.06-4.05,10.06,5.7-.97,8.36-3.62,9.56-6.22Z"/>
      </g>
      <g class="cls-51">
        <path class="cls-9" d="m1310.26,334.15c1.28,3.18,4.4,7.15,11.94,9.01,0,0,2.4-7.19-8.73-12.14-1.99-.89-4.03,1.11-3.22,3.13Z"/>
        <path class="cls-9" d="m1335.51,338.18c-6.69,2.98-9.76,6.55-11.11,9.6v-35.83c0-.26-.21-.47-.47-.47h-1.03c-.26,0-.47.21-.47.47v42.94c-1.72-3.25-5.39-8.18-12.53-10.74-2.2-.79-4.26,1.49-3.22,3.58,2.47,4.93,7.42,11.66,15.75,10.57v5c-1.73-1.55-4.69-3.43-9.24-4.03-2.7-.36-4.19,3.05-2.15,4.87,2.98,2.66,7.17,5.01,11.4,2.8v10.01c0,.26.21.47.47.47h1.03c.26,0,.47-.21.47-.47v-7.15c4.74-.06,7.59-2.99,9.14-5.41.98-1.53-.2-3.55-2.01-3.45-3.58.2-5.78,2.03-7.12,3.96v-10.46c9.7-2.58,13.77-7.8,15.46-12.01,1.1-2.73-1.66-5.44-4.35-4.24Z"/>
        <path class="cls-9" d="m1322.42,325.83s.21-9.39-9.91-14.48c-2.64-1.33-5.6,1.31-4.57,4.08,1.47,3.96,5.2,8.7,14.48,10.4Z"/>
        <path class="cls-9" d="m1334.21,312.45c1.37-3.68-3.58-6.44-5.86-3.24-3.81,5.33-3.96,12.35-3.96,12.35,5.86-2.31,8.6-5.84,9.82-9.11Z"/>
        <path class="cls-9" d="m1333.96,327.7c1.63-3.51-2.81-6.61-5.51-3.84-3.5,3.59-4.05,10.06-4.05,10.06,5.7-.97,8.36-3.62,9.56-6.22Z"/>
      </g>
      <g class="cls-43">
        <path class="cls-9" d="m963.83,345.27c.83,2.06,2.85,4.64,7.74,5.84,0,0,1.55-4.66-5.66-7.87-1.29-.57-2.61.72-2.08,2.03Z"/>
        <path class="cls-9" d="m980.2,347.88c-4.34,1.93-6.33,4.25-7.2,6.23v-23.23c0-.17-.14-.31-.31-.31h-.67c-.17,0-.31.14-.31.31v27.84c-1.12-2.11-3.49-5.3-8.12-6.97-1.43-.51-2.76.97-2.09,2.32,1.6,3.2,4.81,7.56,10.21,6.85v3.24c-1.12-1-3.04-2.22-5.99-2.61-1.75-.23-2.72,1.98-1.4,3.15,1.93,1.73,4.65,3.25,7.39,1.82v6.49c0,.17.14.31.31.31h.67c.17,0,.31-.14.31-.31v-4.64c3.07-.04,4.92-1.94,5.92-3.51.63-.99-.13-2.3-1.3-2.23-2.32.13-3.75,1.32-4.62,2.57v-6.78c6.29-1.67,8.93-5.06,10.02-7.79.71-1.77-1.08-3.52-2.82-2.75Z"/>
        <path class="cls-9" d="m971.71,339.88s.13-6.09-6.42-9.39c-1.71-.86-3.63.85-2.96,2.65.95,2.57,3.37,5.64,9.39,6.74Z"/>
        <path class="cls-9" d="m979.36,331.21c.89-2.39-2.32-4.18-3.8-2.1-2.47,3.46-2.56,8.01-2.56,8.01,3.8-1.5,5.58-3.79,6.36-5.91Z"/>
        <path class="cls-9" d="m979.2,341.09c1.06-2.28-1.82-4.29-3.57-2.49-2.27,2.33-2.63,6.52-2.63,6.52,3.69-.63,5.42-2.35,6.2-4.04Z"/>
      </g>
      <g class="cls-45">
        <path class="cls-12" d="m1295.16,347.53c.83,2.06,2.85,4.64,7.74,5.84,0,0,1.55-4.66-5.66-7.87-1.29-.57-2.61.72-2.08,2.03Z"/>
        <path class="cls-12" d="m1311.53,350.14c-4.34,1.93-6.33,4.25-7.2,6.23v-23.23c0-.17-.14-.31-.31-.31h-.67c-.17,0-.31.14-.31.31v27.84c-1.12-2.11-3.49-5.3-8.12-6.97-1.43-.51-2.76.97-2.09,2.32,1.6,3.2,4.81,7.56,10.21,6.85v3.24c-1.12-1-3.04-2.22-5.99-2.61-1.75-.23-2.72,1.98-1.4,3.15,1.93,1.73,4.65,3.25,7.39,1.82v6.49c0,.17.14.31.31.31h.67c.17,0,.31-.14.31-.31v-4.64c3.07-.04,4.92-1.94,5.92-3.51.63-.99-.13-2.3-1.3-2.23-2.32.13-3.75,1.32-4.62,2.57v-6.78c6.29-1.67,8.93-5.06,10.02-7.79.71-1.77-1.08-3.52-2.82-2.75Z"/>
        <path class="cls-12" d="m1303.04,342.13s.13-6.09-6.42-9.39c-1.71-.86-3.63.85-2.96,2.65.95,2.57,3.37,5.64,9.39,6.74Z"/>
        <path class="cls-12" d="m1310.69,333.46c.89-2.39-2.32-4.18-3.8-2.1-2.47,3.46-2.56,8.01-2.56,8.01,3.8-1.5,5.58-3.79,6.36-5.91Z"/>
        <path class="cls-12" d="m1310.52,343.35c1.06-2.28-1.82-4.29-3.57-2.49-2.27,2.33-2.63,6.52-2.63,6.52,3.69-.63,5.42-2.35,6.2-4.04Z"/>
      </g>
      <g class="cls-40">
        <path class="cls-10" d="m2169.9,342.99c.83,2.06,2.85,4.64,7.74,5.84,0,0,1.55-4.66-5.66-7.87-1.29-.57-2.61.72-2.08,2.03Z"/>
        <path class="cls-10" d="m2186.27,345.6c-4.34,1.93-6.33,4.25-7.2,6.23v-23.23c0-.17-.14-.31-.31-.31h-.67c-.17,0-.31.14-.31.31v27.84c-1.12-2.11-3.49-5.3-8.12-6.97-1.43-.51-2.76.97-2.09,2.32,1.6,3.2,4.81,7.56,10.21,6.85v3.24c-1.12-1-3.04-2.22-5.99-2.61-1.75-.23-2.72,1.98-1.4,3.15,1.93,1.73,4.65,3.25,7.39,1.82v6.49c0,.17.14.31.31.31h.67c.17,0,.31-.14.31-.31v-4.64c3.07-.04,4.92-1.94,5.92-3.51.63-.99-.13-2.3-1.3-2.23-2.32.13-3.75,1.32-4.62,2.57v-6.78c6.29-1.67,8.93-5.06,10.02-7.79.71-1.77-1.08-3.52-2.82-2.75Z"/>
        <path class="cls-10" d="m2177.78,337.59s.13-6.09-6.42-9.39c-1.71-.86-3.63.85-2.96,2.65.95,2.57,3.37,5.64,9.39,6.74Z"/>
        <path class="cls-10" d="m2185.43,328.92c.89-2.39-2.32-4.18-3.8-2.1-2.47,3.46-2.56,8.01-2.56,8.01,3.8-1.5,5.58-3.79,6.36-5.91Z"/>
        <path class="cls-10" d="m2185.27,338.81c1.06-2.28-1.82-4.29-3.57-2.49-2.27,2.33-2.63,6.52-2.63,6.52,3.69-.63,5.42-2.35,6.2-4.04Z"/>
      </g>
      <g>
        <line class="cls-39" x1="1156.66" y1="533.13" x2="1154.04" y2="533.14"/>
        <path class="cls-19" d="m1249.21,538.32c-2.51-2.12-10.76,2.78-14.34,5.09-.53.34-1.17-.17-1-.77,1.45-4.93.18-9.05-1.09-11.59-.31-.62-1.21-.41-1.27.27-.35,3.92-3.73,8.25-5.18,9.96-.34.4-.98.29-1.16-.21-1.7-4.73-.17-20.25.34-24.9.07-.61-.66-.99-1.12-.58-3.96,3.46-4.71,15.87-4.82,22.38-.01.76-1.07.91-1.31.2l-5.97-17.45c-.25-.72-1.32-.55-1.32.22v21.09l-2.43-25.02c-.07-.77-1.18-.83-1.33-.07l-4.38,21.18c-.03.14-.1.24-.17.32-.18.06-.37.13-.56.2-.28-.03-.55-.22-.6-.58l-1.12-8.53c-.2-1.51-2.42-1.4-2.47.12l-.39,10.84c0,.15-.06.28-.14.38-.16.09-.32.18-.47.26-.27.03-.55-.1-.69-.41-1.05-2.48-2.47-4.7-3.99-6.63-.32-1.17-.75-2.2-1.17-3.04-.31-.61-1.18-.42-1.27.24-1.9-1.98-3.76-3.51-5.1-4.51-.46-.34-1.06.16-.8.67,1.43,2.78,2.66,6.38,3.6,9.86-1.04,1.7-2.19,3.14-2.89,3.96-.34.4-.98.29-1.16-.21-1.7-4.73-.17-20.25.34-24.9.07-.61-.66-.99-1.12-.58-3.96,3.46-4.71,15.87-4.82,22.38-.01.76-1.07.91-1.31.2l-5.97-17.45c-.25-.72-1.32-.55-1.32.22v21.09l-2.43-25.02c-.08-.77-1.18-.83-1.33-.07l-4.38,21.18c-.15.75-1.23.71-1.33-.05l-1.12-8.53c-.2-1.51-2.42-1.4-2.47.12l-.39,10.84c-.03.73-1.01.9-1.29.23-2.87-6.78-8.51-11.68-11.53-13.95-.46-.34-1.06.16-.8.67,3.29,6.41,5.54,17.16,5.59,20.74,0,.46-.44.78-.88.64l-6.59-2.11c-.72-.23-1.22.73-.61,1.18,5.3,3.89,7.4,8.66,7.94,10.1.1.26.35.43.63.43h86.3c.39,0,.74-.33.7-.72-.61-6.69,11.24-16.29,13.92-18.37.34-.26.39-.75.06-1.02Z"/>
        <path class="cls-34" d="m1225.35,563.7c-.41-1.08-1.99-4.68-5.98-7.61-.46-.34-.08-1.06.46-.89l4.96,1.59c.33.11.67-.14.66-.48-.04-2.7-1.73-10.79-4.21-15.62-.2-.38.26-.77.6-.51,2.27,1.71,6.52,5.4,8.68,10.5.21.5.96.37.98-.18l.3-8.17c.04-1.15,1.71-1.23,1.86-.09l.85,6.42c.07.57.89.6,1,.04l3.3-15.95c.12-.57.95-.53,1.01.05l1.83,18.85v-15.89c0-.58.8-.71.99-.16l4.49,13.15c.18.54.98.42.99-.15.09-4.9.65-14.25,3.63-16.85.35-.31.9-.02.85.44-.38,3.51-1.54,15.19-.26,18.76.13.37.61.46.87.16,1.09-1.28,3.64-4.55,3.9-7.5.05-.52.73-.67.96-.21.96,1.91,1.92,5.01.82,8.73-.13.45.35.84.75.58,2.69-1.74,8.91-5.43,10.8-3.83.25.21.21.57-.05.77-2.02,1.57-10.94,8.8-10.48,13.84.03.3-.23.54-.53.54h-33.57c-.21,0-.4-.13-.47-.32Z"/>
        <g>
          <path class="cls-15" d="m1176.57,556.6c0,11-8.92,19.91-19.91,19.91s-19.92-8.91-19.92-19.91,8.92-19.92,19.92-19.92c.74,0,1.47.04,2.19.12,9.24,1.01,16.58,8.36,17.6,17.6.08.72.12,1.46.12,2.2Z"/>
          <path class="cls-12" d="m1176.45,554.4c-.95,7.8-7.6,13.84-15.66,13.84-8.71,0-15.77-7.07-15.77-15.78,0-8.05,6.04-14.71,13.83-15.66,9.24,1.01,16.58,8.36,17.6,17.6Z"/>
          <circle class="cls-5" cx="1163.67" cy="549.32" r="7.28"/>
        </g>
      </g>
      <g>
        <g>
          <path class="cls-15" d="m2669.32,495.34c0,6.64-5.39,12.02-12.02,12.02s-12.03-5.38-12.03-12.02,5.39-12.03,12.03-12.03c.45,0,.89.02,1.32.07,5.58.61,10.01,5.05,10.63,10.63.05.43.07.88.07,1.33Z"/>
          <path class="cls-12" d="m2669.25,494.01c-.57,4.71-4.59,8.36-9.46,8.36-5.26,0-9.52-4.27-9.52-9.53,0-4.86,3.65-8.88,8.35-9.46,5.58.61,10.01,5.05,10.63,10.63Z"/>
          <circle class="cls-5" cx="2661.53" cy="490.94" r="4.39"/>
        </g>
        <line class="cls-36" x1="2665.51" y1="594.35" x2="2657.3" y2="507.36"/>
      </g>
      <g>
        <g>
          <path class="cls-15" d="m2631.27,525.31c0,6.64-5.39,12.02-12.02,12.02s-12.03-5.38-12.03-12.02,5.39-12.03,12.03-12.03c.45,0,.89.02,1.32.07,5.58.61,10.01,5.05,10.63,10.63.05.43.07.88.07,1.33Z"/>
          <path class="cls-12" d="m2631.19,523.98c-.57,4.71-4.59,8.36-9.46,8.36-5.26,0-9.52-4.27-9.52-9.53,0-4.86,3.65-8.88,8.35-9.46,5.58.61,10.01,5.05,10.63,10.63Z"/>
          <circle class="cls-5" cx="2623.48" cy="520.91" r="4.39"/>
        </g>
        <line class="cls-36" x1="2631.19" y1="533.41" x2="2657.72" y2="549.49"/>
      </g>
    </g>
  </g>
</svg>