<?xml version="1.0" encoding="UTF-8"?>
<svg id="Capa_2" data-name="Capa 2" xmlns="http://www.w3.org/2000/svg" xmlns:xlink="http://www.w3.org/1999/xlink" viewBox="0 0 2840.49 371.52">
  <defs>
    <style>
      .cls-1 {
        fill: #c1acd3;
        filter: url(#drop-shadow-4);
      }

      .cls-1, .cls-2, .cls-3, .cls-4 {
        stroke-width: 0px;
      }

      .cls-5 {
        filter: url(#drop-shadow-1);
      }

      .cls-2 {
        fill: #d0deb8;
      }

      .cls-3 {
        filter: url(#drop-shadow-3);
      }

      .cls-3, .cls-4 {
        fill: #a8daf1;
      }

      .cls-4 {
        filter: url(#drop-shadow-2);
      }
    </style>
    <filter id="drop-shadow-1" filterUnits="userSpaceOnUse">
      <feOffset dx="7" dy="-1"/>
      <feGaussianBlur result="blur" stdDeviation="9"/>
      <feFlood flood-color="#1d1d1b" flood-opacity=".75"/>
      <feComposite in2="blur" operator="in"/>
      <feComposite in="SourceGraphic"/>
    </filter>
    <filter id="drop-shadow-2" filterUnits="userSpaceOnUse">
      <feOffset dx="14" dy="3"/>
      <feGaussianBlur result="blur-2" stdDeviation="5"/>
      <feFlood flood-color="#1d1d1b" flood-opacity=".75"/>
      <feComposite in2="blur-2" operator="in"/>
      <feComposite in="SourceGraphic"/>
    </filter>
    <filter id="drop-shadow-3" filterUnits="userSpaceOnUse">
      <feOffset dx="14" dy="3"/>
      <feGaussianBlur result="blur-3" stdDeviation="5"/>
      <feFlood flood-color="#1d1d1b" flood-opacity=".33"/>
      <feComposite in2="blur-3" operator="in"/>
      <feComposite in="SourceGraphic"/>
    </filter>
    <filter id="drop-shadow-4" filterUnits="userSpaceOnUse">
      <feOffset dx="7" dy="5"/>
      <feGaussianBlur result="blur-4" stdDeviation="9"/>
      <feFlood flood-color="#1d1d1b" flood-opacity=".75"/>
      <feComposite in2="blur-4" operator="in"/>
      <feComposite in="SourceGraphic"/>
    </filter>
  </defs>
  <g id="Capa_1-2" data-name="Capa 1">
    <g>
      <g class="cls-5">
        <path class="cls-2" d="m2829.77,338.74c.03.07.06.15.09.23-.03-.07-.06-.15-.09-.23Z"/>
        <path class="cls-2" d="m2830.25,339.98s.04.09.05.14c-.02-.05-.04-.09-.05-.14Z"/>
        <path class="cls-2" d="m2829.86,338.97c.13.34.26.68.39,1.01-.14-.36-.27-.7-.39-1.01Z"/>
        <path class="cls-2" d="m2830.31,340.13c.16.42.32.82.47,1.23-.17-.43-.33-.85-.47-1.23Z"/>
        <path class="cls-2" d="m2830.78,341.36c.37.98.79,2.06,1.24,3.23-.4-1.03-.81-2.11-1.24-3.23Z"/>
        <path class="cls-2" d="m2829.08,336.92c.06.16.12.31.18.47-.08-.2-.13-.35-.18-.47Z"/>
        <path class="cls-2" d="m2578.19,218.07c-63.26,63.26-113.95,0-113.95,0,0,0-81.29-190.03-291.83-190.03-147.2,0-231.91,66.37-269.56,106.31-58.97-51.26-116.86-74.51-170.74-80.89-100.33-11.88-202.6,89.1-265.31,160.13-62.71,71.03-177.86,127.96-350.21,0-172.36-127.96-204.83-53.21-341.44-17.57-136.62,35.64-193.05-34.16-193.05-34.16,0,0-116.28-87.35-261.1-71.84C71.53,116.77,0,336.63,0,336.63h2828.97c-25.95-67.62-67.21-118.56-67.21-118.56-52.6-52.6-120.3-63.26-183.56,0Z"/>
        <path class="cls-2" d="m2828.97,336.63s.04.11.11.29c-.04-.1-.07-.19-.11-.29Z"/>
        <path class="cls-2" d="m2832.02,344.59c.49,1.27.95,2.48,1.39,3.62-.48-1.25-.95-2.47-1.39-3.62Z"/>
        <path class="cls-2" d="m2829.48,337.96c.1.26.2.52.3.78-.11-.29-.21-.55-.3-.78Z"/>
        <path class="cls-2" d="m2829.26,337.4c.06.16.14.36.22.57-.07-.19-.14-.37-.22-.57Z"/>
        <path class="cls-2" d="m2838.19,360.68c.34.88.65,1.7.93,2.43-.27-.7-.57-1.5-.93-2.43Z"/>
        <path class="cls-2" d="m2839.72,364.65c.13.33.24.61.33.86-.1-.25-.21-.54-.33-.86Z"/>
        <path class="cls-2" d="m2839.43,363.9c.1.27.2.52.29.75-.09-.23-.18-.48-.29-.75Z"/>
        <path class="cls-2" d="m2840.38,366.39c.16.41.14.37,0,0h0Z"/>
        <path class="cls-2" d="m2840.05,365.51c.15.38.26.68.34.88-.07-.19-.19-.49-.34-.88Z"/>
        <path class="cls-2" d="m2839.12,363.1c.11.28.21.55.31.79-.1-.25-.2-.52-.31-.79Z"/>
        <path class="cls-2" d="m2836.86,357.22c.08.21.16.42.24.63-.08-.2-.16-.42-.24-.63Z"/>
        <path class="cls-2" d="m2835.36,353.31c.14.36.28.73.41,1.07-.14-.36-.27-.71-.41-1.07Z"/>
        <path class="cls-2" d="m2837.11,357.85c.4,1.05.76,1.99,1.09,2.83-.34-.88-.7-1.83-1.09-2.83Z"/>
        <path class="cls-2" d="m2835.77,354.38c.03.07.05.13.08.2-.03-.07-.05-.13-.08-.2Z"/>
        <path class="cls-2" d="m2835.85,354.58c.36.94.7,1.82,1.01,2.64-.33-.86-.67-1.74-1.01-2.64Z"/>
        <path class="cls-2" d="m2833.41,348.2c.64,1.67,1.3,3.4,1.96,5.1-.59-1.55-1.24-3.24-1.96-5.1Z"/>
      </g>
      <path class="cls-4" d="m1838.74,339.23h-544.91c49.77-93.55,153.08-157.84,272.46-157.84s222.69,64.29,272.45,157.84Z"/>
      <path class="cls-3" d="m1269.39,339.23h-544.91c49.77-93.55,153.08-157.84,272.46-157.84s222.69,64.29,272.45,157.84Z"/>
      <path class="cls-1" d="m1540.67,339.45s54.03-72.6,148.57-54.03c0,0,74.29-92.86,128.31-91.17,54.03,1.69,96.23-173.89,190.78-172.21,94.54,1.69,219.48,317.4,219.48,317.4h-687.14Z"/>
    </g>
  </g>
</svg>