<?xml version="1.0" encoding="UTF-8"?>
<svg id="Capa_2" data-name="Capa 2" xmlns="http://www.w3.org/2000/svg" xmlns:xlink="http://www.w3.org/1999/xlink" viewBox="0 0 2469.84 209.04">
  <defs>
    <style>
      .cls-1 {
        fill: #aab595;
        filter: url(#drop-shadow-1);
        stroke-width: 0px;
      }
    </style>
    <filter id="drop-shadow-1" filterUnits="userSpaceOnUse">
      <feOffset dx="11" dy="-3"/>
      <feGaussianBlur result="blur" stdDeviation="5"/>
      <feFlood flood-color="#1d1d1b" flood-opacity=".27"/>
      <feComposite in2="blur" operator="in"/>
      <feComposite in="SourceGraphic"/>
    </filter>
  </defs>
  <g id="Capa_1-2" data-name="Capa 1">
    <path class="cls-1" d="m2443.62,197.01c-15.28-35.16-50.31-59.75-91.08-59.75-21.82,0-42,7.05-58.38,18.98-22.96-31.9-60.41-52.68-102.72-52.68-20.86,0-40.54,5.05-57.88,14-10.36-14.06-27.02-23.19-45.82-23.19-14.88,0-28.42,5.72-38.56,15.08-8.21-3.53-17.24-5.49-26.74-5.49-4.47,0-8.83.45-13.05,1.27-7.5-11.44-18.66-20.61-32.54-25.52-6.89-2.44-13.91-3.63-20.83-3.72-22.96-34.24-62.02-56.78-106.35-56.78-57.72,0-106.5,38.22-122.45,90.73-9.15-3.85-19.2-5.98-29.74-5.98-37.69,0-69.01,27.16-75.52,62.97-11.67.57-22.45,4.55-31.35,10.96-9.15-6.97-20.39-11.34-32.64-11.93-6.51-35.81-37.83-62.97-75.52-62.97-10.54,0-20.59,2.13-29.74,5.98-15.95-52.51-64.73-90.73-122.45-90.73-44.33,0-83.39,22.54-106.35,56.78-6.92.09-13.94,1.28-20.83,3.72-13.88,4.91-25.04,14.08-32.54,25.52-4.22-.82-8.58-1.27-13.05-1.27-9.5,0-18.53,1.96-26.74,5.49-10.14-9.36-23.68-15.08-38.56-15.08-18.8,0-35.46,9.13-45.82,23.19-17.34-8.95-37.02-14-57.88-14-42.31,0-79.76,20.78-102.72,52.68-16.38-11.93-36.56-18.98-58.38-18.98-4.52,0-8.97.32-13.33.91-13.76-20.62-37.21-34.21-63.86-34.21-10.54,0-20.59,2.13-29.74,5.98-15.95-52.51-64.73-90.73-122.45-90.73-44.33,0-83.39,22.54-106.35,56.78-6.92.09-13.94,1.28-20.83,3.72-13.88,4.91-25.04,14.08-32.54,25.52-4.22-.82-8.58-1.27-13.05-1.27-9.5,0-18.53,1.96-26.74,5.49-10.14-9.36-23.68-15.08-38.56-15.08-18.8,0-35.46,9.13-45.82,23.19-17.34-8.95-37.02-14-57.88-14-42.31,0-79.76,20.78-102.72,52.68-16.38-11.93-36.56-18.98-58.38-18.98-40.77,0-75.8,24.59-91.08,59.75h1484.02c-.1.33-.21.65-.31.98h955.85Z"/>
  </g>
</svg>