<?xml version="1.0" encoding="UTF-8"?>
<svg id="Capa_2" data-name="Capa 2" xmlns="http://www.w3.org/2000/svg" viewBox="0 0 45.56 41.36">
  <defs>
    <style>
      .cls-1 {
        fill: #bddbea;
      }

      .cls-1, .cls-2, .cls-3, .cls-4, .cls-5, .cls-6, .cls-7 {
        stroke-width: 0px;
      }

      .cls-2 {
        fill: #006daf;
      }

      .cls-3 {
        fill: #d5d2d1;
      }

      .cls-4 {
        fill: #cceafc;
      }

      .cls-5 {
        fill: #f3f2f2;
      }

      .cls-6 {
        fill: #204f8f;
        fill-rule: evenodd;
      }

      .cls-7 {
        fill: #2295d2;
      }
    </style>
  </defs>
  <g id="Capa_1-2" data-name="Capa 1">
    <g>
      <path class="cls-1" d="m40.07,18.39l-17.51,10.27c-4.44-1.36-10.1-.94-13.83,1.25-4.54,2.66-4.51,6.93.07,9.53,1.03.58,2.2,1.03,3.44,1.35.88.22,1.8.38,2.74.47,3.64.35,7.53-.3,10.33-1.94,3.39-1.99,4.23-4.88,2.53-7.3l2.42-1.42-.07-1.53,2.54-.02-.06-1.44,2.54-.02-.06-1.44,2.54-.02-.06-1.44,2.54-.02-.06-1.44,2.72-.02.83-.49.91-3.77-4.49-.6Zm-24.64,19.66c-1.18.69-3.11.71-4.3.03-1.19-.68-1.2-1.79-.02-2.48,1.18-.69,3.11-.71,4.3-.03,1.19.68,1.2,1.79.02,2.48Z"/>
      <g>
        <g>
          <polygon class="cls-2" points="19.93 13.86 25.54 17.04 31.25 13.69 31.24 12.23 31.19 12.26 31.19 12.15 33.73 12.14 33.71 10.7 36.21 10.68 36.19 9.24 38.69 9.23 38.67 7.79 41.17 7.77 41.15 6.34 43.82 6.32 44.64 5.83 45.56 2.06 45.54 .6 45.1 2 41.07 1.46 19.93 13.86"/>
          <g>
            <g>
              <polygon class="cls-4" points="25.52 15.58 31.24 12.23 31.17 10.69 33.71 10.68 33.65 9.24 36.19 9.22 36.13 7.79 38.67 7.77 38.61 6.33 41.15 6.31 41.09 4.88 43.8 4.86 44.63 4.37 45.54 .6 41.05 0 19.92 12.4 25.52 15.58"/>
              <path class="cls-2" d="m29.33,13.35c-.58-.82-1.44-1.58-2.6-2.24-.82-.46-1.72-.84-2.68-1.13l-4.13,2.42,5.6,3.18,3.81-2.23Z"/>
              <polygon class="cls-7" points="45.39 1.23 45.54 .6 44.79 .5 26.93 10.98 27.87 11.51 45.39 1.23"/>
              <polygon class="cls-3" points="6.39 18.46 6.33 16.39 6.99 17.79 6.39 18.46"/>
              <path class="cls-2" d="m9.84,23.13c4.58,2.6,11.97,2.55,16.51-.12,2.28-1.34,3.4-3.07,3.39-4.8h0s-.06-2.2-.06-2.2l-.37.42c-.53-1.08-1.53-2.1-3.02-2.95-4.58-2.6-11.97-2.55-16.51.12-4.54,2.66-4.51,6.93.07,9.53Zm6.61-3.88c1.19.68,1.2,1.79.02,2.48-1.18.69-3.11.71-4.3.03-1.19-.68-1.2-1.79-.02-2.48,1.18-.69,3.11-.71,4.3-.03Z"/>
              <path class="cls-5" d="m9.78,21.06c4.58,2.6,11.97,2.55,16.51-.12,4.54-2.66,4.51-6.93-.07-9.53-4.58-2.6-11.97-2.55-16.51.12-4.54,2.66-4.51,6.93.07,9.53Zm6.61-3.88c1.19.68,1.2,1.79.02,2.48-1.18.69-3.11.71-4.3.03-1.19-.68-1.2-1.79-.02-2.48,1.18-.69,3.11-.71,4.3-.03Z"/>
              <path class="cls-7" d="m15.09,22.19c-1.01.16-2.12.02-2.91-.43-.85-.49-1.1-1.19-.73-1.81l-2.07-1.64s-1.08-1.22-2.16-2.44c-1.67,2.44-.79,5.32,2.63,7.26,1.51.86,3.2,1.34,5.12,1.63l.13-2.56Z"/>
              <path class="cls-4" d="m9.78,21.06c1.03.58,2.2,1.03,3.44,1.35.88.22,1.8.38,2.74.47,3.64.35,7.53-.3,10.33-1.94,4.54-2.66,4.51-6.93-.07-9.53-4.58-2.6-11.97-2.55-16.51.12-4.54,2.66-4.51,6.93.07,9.53Zm6.61-3.88c1.19.68,1.2,1.79.02,2.48-1.18.69-3.11.71-4.3.03-1.19-.68-1.2-1.79-.02-2.48,1.18-.69,3.11-.71,4.3-.03Z"/>
              <path class="cls-2" d="m7.62,16.33c.22-1.33,1.21-2.63,2.96-3.66,4.04-2.37,10.62-2.42,14.69-.1,2.02,1.15,3.05,2.67,3.07,4.19.29-1.73-.72-3.52-3.02-4.83-4.07-2.31-10.65-2.27-14.69.1-2.03,1.19-3.03,2.75-3.01,4.29Z"/>
            </g>
            <path class="cls-2" d="m4.86,35.2c-.82,0-1.6-.2-2.29-.59C.93,33.68.02,31.81,0,29.34c-.03-4.5,3.1-10.01,6.98-12.29,2.13-1.25,4.2-1.42,5.84-.49.7.4,1.27.97,1.7,1.7.57.97.86,2.17.87,3.57.03,4.5-3.1,10.01-6.98,12.29-1.22.72-2.43,1.08-3.55,1.08Zm5.67-17.58c-.82,0-1.75.29-2.71.85-3.43,2.01-6.19,6.88-6.17,10.85.01,1.85.63,3.22,1.73,3.84,1.11.63,2.59.46,4.19-.48,3.43-2.01,6.19-6.88,6.17-10.85,0-1.09-.23-2.04-.65-2.75h0c-.28-.48-.65-.85-1.09-1.1-.44-.25-.94-.37-1.48-.37Z"/>
          </g>
        </g>
        <path class="cls-4" d="m12.68,21.28l3.26.8.47-2.42c-1.18.69-3.11.71-4.3.03l.57,1.59Z"/>
        <path class="cls-4" d="m9.78,21.06c1.03.58,2.2,1.03,3.44,1.35.88.22,1.8.38,2.74.47,3.64.35,7.53-.3,10.33-1.94l-13.27-.3-3.24.41Z"/>
        <path class="cls-2" d="m14.68,22.73s-1.41-.23-2.88-.74v2.04c.7.24,1.86.6,2.85.73,3.04.4.04-2.02.04-2.02Z"/>
      </g>
      <g>
        <path class="cls-6" d="m15.57,21.09c-.15-.25-.29-.49-.43-.73-.34.12-.73.1-1.05-.08-.05-.03-.1-.06-.15-.1-.14.01-.31,0-.42-.08,0,0,0,0-.01,0-.11,0-.21-.03-.31-.08-.21-.06-.41-.14-.6-.25-.03-.01-.06-.02-.09-.04-.06-.03-.12-.05-.17-.09-.15-.09-.3-.21-.43-.33-.04-.04-.09-.09-.12-.14-.07-.09-.14-.18-.2-.27-.11-.2-.17-.4-.19-.62,0,0,0,0,0-.01-.01-.06-.02-.13-.02-.19,0-.13.03-.26.09-.37-.24-.06-.47-.11-.71-.16-.25,0-.5-.01-.75-.01.24,1.49,1.48,2.87,3.56,3.66.23.09.54.19.86.27.16.04.56.15.8.1.28-.06.46-.27.34-.48Z"/>
        <path class="cls-6" d="m21.45,13.06c-.06-.07-.5-.43-.92-.59-3.27-1.24-7.59-.2-9.55,2.04-.4.46-.68.95-.84,1.44.09,0,.18,0,.27,0,.15.01.29.03.44.06,0,0,.01,0,.02,0,.12,0,.25,0,.37.02.42.04.82.15,1.18.36.05.02.1.03.14.04l-.31-.45c-.39-.57.52-1.17,1.38-.9,6.09,1.91,9.73.11,7.82-2.04Z"/>
        <path class="cls-6" d="m23.64,19.33c-.83.95-2.06,1.81-3.47,2.07-.22.04-.45,0-.57-.12l-2.69-3.09c-.47-.54.34-1.2,1.23-.99,6.49,1.5,6.16-.67,5.13-3-.03-.07.11-.12.18-.06,1.5,1.49,1.67,3.5.19,5.19Z"/>
      </g>
    </g>
  </g>
</svg>