<?xml version="1.0" encoding="UTF-8"?>
<svg id="Capa_2" data-name="Capa 2" xmlns="http://www.w3.org/2000/svg" xmlns:xlink="http://www.w3.org/1999/xlink" viewBox="0 0 2590.56 76.32">
  <defs>
    <style>
      .cls-1 {
        fill: #d0deb8;
        filter: url(#drop-shadow-1);
        stroke-width: 0px;
      }
    </style>
    <filter id="drop-shadow-1" filterUnits="userSpaceOnUse">
      <feOffset dx="11" dy="-3"/>
      <feGaussianBlur result="blur" stdDeviation="4"/>
      <feFlood flood-color="#1d1d1b" flood-opacity=".28"/>
      <feComposite in2="blur" operator="in"/>
      <feComposite in="SourceGraphic"/>
    </filter>
  </defs>
  <g id="Capa_1-2" data-name="Capa 1">
    <path class="cls-1" d="m2529.94,38.16c-10.06,0-19.22,3.85-26.08,10.15-6.67-11.55-19.15-19.34-33.45-19.34-5.73,0-11.17,1.26-16.07,3.51-4.84-10.2-15.22-17.25-27.26-17.25-7.86,0-15.01,3-20.38,7.92-5.37-4.92-12.52-7.92-20.38-7.92-11.68,0-21.81,6.65-26.82,16.37-3.21-1.68-6.86-2.63-10.74-2.63-9.26,0-17.25,5.4-21.01,13.22-3.73-2.54-8.24-4.03-13.1-4.03s-9.21,1.44-12.91,3.91c-5.09-13.9-18.44-23.82-34.1-23.82-19.49,0-35.39,15.36-36.26,34.64-.85-.08-1.72-.13-2.6-.13-2.69,0-5.29.42-7.73,1.2-4.36-7.84-12.73-13.14-22.34-13.14-.87,0-1.73.06-2.58.15-.85-.09-1.71-.15-2.58-.15-9.61,0-17.97,5.3-22.34,13.14-2.44-.77-5.04-1.2-7.73-1.2-.88,0-1.75.05-2.6.13-.87-19.28-16.77-34.64-36.26-34.64-15.66,0-29.01,9.92-34.1,23.82-3.7-2.47-8.14-3.91-12.91-3.91s-9.37,1.49-13.1,4.03c-3.76-7.82-11.75-13.22-21.01-13.22-3.88,0-7.53.95-10.74,2.63-5.01-9.72-15.14-16.37-26.82-16.37-7.86,0-15.01,3-20.38,7.92-5.37-4.92-12.52-7.92-20.38-7.92-12.04,0-22.42,7.05-27.26,17.25-4.9-2.25-10.34-3.51-16.07-3.51-14.3,0-26.78,7.79-33.45,19.34-6.86-6.3-16.02-10.15-26.08-10.15-11.2,0-21.28,4.78-28.33,12.4-7.05-7.62-17.13-12.4-28.33-12.4-10.06,0-19.22,3.85-26.08,10.15-6.67-11.55-19.15-19.34-33.45-19.34-5.73,0-11.17,1.26-16.07,3.51-4.84-10.2-15.22-17.25-27.26-17.25-7.86,0-15.01,3-20.38,7.92-5.37-4.92-12.52-7.92-20.38-7.92-11.68,0-21.81,6.65-26.82,16.37-3.21-1.68-6.86-2.63-10.74-2.63-9.26,0-17.25,5.4-21.01,13.22-3.73-2.54-8.24-4.03-13.1-4.03s-9.21,1.44-12.91,3.91c-5.09-13.9-18.44-23.82-34.1-23.82-19.49,0-35.39,15.36-36.26,34.64-.85-.08-1.72-.13-2.6-.13-4.33,0-8.42,1.09-11.99,2.99-4.03-8.81-12.92-14.93-23.24-14.93-1.07,0-2.12.07-3.16.2-1.04-.13-2.09-.2-3.16-.2-10.32,0-19.21,6.12-23.24,14.93-3.57-1.9-7.66-2.99-11.99-2.99-.88,0-1.75.05-2.6.13-.87-19.28-16.77-34.64-36.26-34.64-15.66,0-29.01,9.92-34.1,23.82-3.7-2.47-8.14-3.91-12.91-3.91s-9.37,1.49-13.1,4.03c-3.76-7.82-11.75-13.22-21.01-13.22-3.88,0-7.53.95-10.74,2.63-5.01-9.72-15.14-16.37-26.82-16.37-7.86,0-15.01,3-20.38,7.92-5.37-4.92-12.52-7.92-20.38-7.92-12.04,0-22.42,7.05-27.26,17.25-4.9-2.25-10.34-3.51-16.07-3.51-14.3,0-26.78,7.79-33.45,19.34-6.86-6.3-16.02-10.15-26.08-10.15-6.89,0-13.35,1.81-18.95,4.98-3.86,1.77-7.21,4.47-9.75,7.83-1.26,1.41-2.43,2.91-3.48,4.49-3.42-1.71-7.29-2.69-11.38-2.69-.88,0-1.75.05-2.6.13-.87-19.28-16.77-34.64-36.26-34.64-15.66,0-29.01,9.92-34.1,23.82-3.7-2.47-8.14-3.91-12.91-3.91s-9.37,1.49-13.1,4.03c-3.76-7.82-11.75-13.22-21.01-13.22-3.88,0-7.53.95-10.74,2.63-5.01-9.72-15.14-16.37-26.82-16.37-7.86,0-15.01,3-20.38,7.92-5.37-4.92-12.52-7.92-20.38-7.92-12.04,0-22.42,7.05-27.26,17.25-4.9-2.25-10.34-3.51-16.07-3.51-14.3,0-26.78,7.79-33.45,19.34-6.86-6.3-16.02-10.15-26.08-10.15-7.9,0-15.25,2.38-21.37,6.46-3.9-2.41-8.49-3.8-13.41-3.8-10.32,0-19.21,6.12-23.24,14.93-3.57-1.9-7.66-2.99-11.99-2.99-.88,0-1.75.05-2.6.13-.87-19.28-16.77-34.64-36.26-34.64-15.66,0-29.01,9.92-34.1,23.82-3.7-2.47-8.14-3.91-12.91-3.91s-9.37,1.49-13.1,4.03c-3.76-7.82-11.75-13.22-21.01-13.22-3.88,0-7.53.95-10.74,2.63-5.01-9.72-15.14-16.37-26.82-16.37-7.86,0-15.01,3-20.38,7.92-5.37-4.92-12.52-7.92-20.38-7.92-12.04,0-22.42,7.05-27.26,17.25-4.9-2.25-10.34-3.51-16.07-3.51-14.3,0-26.78,7.79-33.45,19.34-6.86-6.3-16.02-10.15-26.08-10.15-8.12,0-15.65,2.51-21.86,6.8-4.01-2.61-8.79-4.14-13.94-4.14-10.32,0-19.21,6.12-23.24,14.93-3.57-1.9-7.66-2.99-11.99-2.99-.88,0-1.75.05-2.6.13-.87-19.28-16.77-34.64-36.26-34.64-15.66,0-29.01,9.92-34.1,23.82-3.7-2.47-8.14-3.91-12.91-3.91s-9.37,1.49-13.1,4.03c-3.76-7.82-11.75-13.22-21.01-13.22-3.88,0-7.53.95-10.74,2.63-5.01-9.72-15.14-16.37-26.82-16.37-7.86,0-15.01,3-20.38,7.92-5.37-4.92-12.52-7.92-20.38-7.92-12.04,0-22.42,7.05-27.26,17.25-4.9-2.25-10.34-3.51-16.07-3.51-14.3,0-26.78,7.79-33.45,19.34-6.86-6.3-16.02-10.15-26.08-10.15-18.04,0-33.19,12.39-37.42,29.11h2566.29c-4.23-16.72-19.38-29.11-37.42-29.11Z"/>
  </g>
</svg>