<?xml version="1.0" encoding="UTF-8"?>
<svg id="Capa_2" data-name="Capa 2" xmlns="http://www.w3.org/2000/svg" viewBox="0 0 50.76 36.64">
  <defs>
    <style>
      .cls-1 {
        fill: #e8efdc;
      }

      .cls-1, .cls-2, .cls-3 {
        stroke-width: 0px;
      }

      .cls-4 {
        fill: none;
        stroke: #aab595;
        stroke-miterlimit: 10;
      }

      .cls-2 {
        fill: #d0deb8;
      }

      .cls-3 {
        fill: #a5af94;
      }
    </style>
  </defs>
  <g id="Capa_1-2" data-name="Capa 1">
    <g>
      <g>
        <path class="cls-3" d="m24.05,12.03c0,6.64-5.39,12.02-12.02,12.02S0,18.67,0,12.03,5.39,0,12.03,0c.45,0,.89.02,1.32.07,5.58.61,10.01,5.05,10.63,10.63.05.43.07.88.07,1.33Z"/>
        <path class="cls-2" d="m23.98,10.7c-.57,4.71-4.59,8.36-9.46,8.36-5.26,0-9.52-4.27-9.52-9.53C5,4.67,8.65.65,13.35.07c5.58.61,10.01,5.05,10.63,10.63Z"/>
        <circle class="cls-1" cx="16.26" cy="7.63" r="4.39"/>
      </g>
      <line class="cls-4" x1="23.98" y1="20.13" x2="50.5" y2="36.21"/>
    </g>
  </g>
</svg>