<?xml version="1.0" encoding="UTF-8"?>
<svg id="Capa_2" data-name="Capa 2" xmlns="http://www.w3.org/2000/svg" xmlns:xlink="http://www.w3.org/1999/xlink" viewBox="0 0 2590.56 209.04">
  <defs>
    <style>
      .cls-1 {
        filter: url(#drop-shadow-3);
      }

      .cls-1, .cls-2, .cls-3, .cls-4 {
        stroke-width: 0px;
      }

      .cls-1, .cls-3 {
        fill: #c1acd3;
      }

      .cls-2 {
        fill: #d0deb8;
        filter: url(#drop-shadow-4);
      }

      .cls-3 {
        filter: url(#drop-shadow-2);
      }

      .cls-4 {
        fill: #aab595;
        filter: url(#drop-shadow-1);
      }
    </style>
    <filter id="drop-shadow-1" filterUnits="userSpaceOnUse">
      <feOffset dx="11" dy="-3"/>
      <feGaussianBlur result="blur" stdDeviation="5"/>
      <feFlood flood-color="#1d1d1b" flood-opacity=".27"/>
      <feComposite in2="blur" operator="in"/>
      <feComposite in="SourceGraphic"/>
    </filter>
    <filter id="drop-shadow-2" filterUnits="userSpaceOnUse">
      <feOffset dx="11" dy="-3"/>
      <feGaussianBlur result="blur-2" stdDeviation="4"/>
      <feFlood flood-color="#1d1d1b" flood-opacity=".28"/>
      <feComposite in2="blur-2" operator="in"/>
      <feComposite in="SourceGraphic"/>
    </filter>
    <filter id="drop-shadow-3" filterUnits="userSpaceOnUse">
      <feOffset dx="11" dy="-3"/>
      <feGaussianBlur result="blur-3" stdDeviation="4"/>
      <feFlood flood-color="#1d1d1b" flood-opacity=".28"/>
      <feComposite in2="blur-3" operator="in"/>
      <feComposite in="SourceGraphic"/>
    </filter>
    <filter id="drop-shadow-4" filterUnits="userSpaceOnUse">
      <feOffset dx="11" dy="-3"/>
      <feGaussianBlur result="blur-4" stdDeviation="4"/>
      <feFlood flood-color="#1d1d1b" flood-opacity=".28"/>
      <feComposite in2="blur-4" operator="in"/>
      <feComposite in="SourceGraphic"/>
    </filter>
  </defs>
  <g id="Capa_1-2" data-name="Capa 1">
    <g>
      <path class="cls-4" d="m2540.94,197.01c-15.28-35.16-50.31-59.75-91.08-59.75-21.82,0-42,7.05-58.38,18.98-22.96-31.9-60.41-52.68-102.72-52.68-20.86,0-40.54,5.05-57.88,14-10.36-14.06-27.02-23.19-45.82-23.19-14.88,0-28.42,5.72-38.56,15.08-8.21-3.53-17.24-5.49-26.74-5.49-4.47,0-8.83.45-13.05,1.27-7.5-11.44-18.66-20.61-32.54-25.52-6.89-2.44-13.91-3.63-20.83-3.72-22.96-34.24-62.02-56.78-106.35-56.78-57.72,0-106.5,38.22-122.45,90.73-9.15-3.85-19.2-5.98-29.74-5.98-37.69,0-69.01,27.16-75.52,62.97-11.67.57-22.45,4.55-31.35,10.96-9.15-6.97-20.39-11.34-32.64-11.93-6.51-35.81-37.83-62.97-75.52-62.97-10.54,0-20.59,2.13-29.74,5.98-15.95-52.51-64.73-90.73-122.45-90.73-44.33,0-83.39,22.54-106.35,56.78-6.92.09-13.94,1.28-20.83,3.72-13.88,4.91-25.04,14.08-32.54,25.52-4.22-.82-8.58-1.27-13.05-1.27-9.5,0-18.53,1.96-26.74,5.49-10.14-9.36-23.68-15.08-38.56-15.08-18.8,0-35.46,9.13-45.82,23.19-17.34-8.95-37.02-14-57.88-14-42.31,0-79.76,20.78-102.72,52.68-16.38-11.93-36.56-18.98-58.38-18.98-4.52,0-8.97.32-13.33.91-13.76-20.62-37.21-34.21-63.86-34.21-10.54,0-20.59,2.13-29.74,5.98-15.95-52.51-64.73-90.73-122.45-90.73-44.33,0-83.39,22.54-106.35,56.78-6.92.09-13.94,1.28-20.83,3.72-13.88,4.91-25.04,14.08-32.54,25.52-4.22-.82-8.58-1.27-13.05-1.27-9.5,0-18.53,1.96-26.74,5.49-10.14-9.36-23.68-15.08-38.56-15.08-18.8,0-35.46,9.13-45.82,23.19-17.34-8.95-37.02-14-57.88-14-42.31,0-79.76,20.78-102.72,52.68-16.38-11.93-36.56-18.98-58.38-18.98-40.77,0-75.8,24.59-91.08,59.75h1484.02c-.1.33-.21.65-.31.98h955.85Z"/>
      <g>
        <path class="cls-3" d="m897.36,131.3c-8.41,0-16.29,2.23-23.1,6.11-8.12-13.82-23.14-23.1-40.33-23.1-23.99,0-43.76,18.08-46.43,41.36-2.57-.6-5.24-.93-8-.93-11.99,0-22.57,6.04-28.87,15.23-6.19-5.54-14.36-8.92-23.32-8.92-.71,0-1.41.03-2.12.07-4.9-13.4-17.76-22.96-32.85-22.96-3.93,0-7.71.66-11.23,1.85-12.47-19.21-34.1-31.92-58.71-31.92-28.93,0-53.77,17.57-64.4,42.63-3.83-1.76-8.08-2.75-12.57-2.75-8.35,0-15.91,3.41-21.36,8.92-9.98-9.93-23.73-16.07-38.93-16.07-2.16,0-4.3.13-6.39.38-15.52-18.24-38.64-29.81-64.46-29.81-46.74,0-84.62,37.89-84.62,84.62h610.87c2.31-5.54,3.58-11.61,3.58-17.98,0-25.82-20.93-46.75-46.75-46.75Z"/>
        <path class="cls-1" d="m2504.85,133.52c-19.08,0-36.15,8.54-47.62,22.02-1.55-.18-3.12-.28-4.72-.28-11.23,0-21.38,4.53-28.76,11.87-4.03-4.07-9.61-6.59-15.78-6.59-3.32,0-6.46.73-9.28,2.03-7.86-18.51-26.2-31.49-47.58-31.49-18.18,0-34.16,9.39-43.37,23.58-2.6-.88-5.39-1.37-8.3-1.37-11.15,0-20.65,7.06-24.27,16.96-.52-.03-1.04-.05-1.56-.05-6.62,0-12.65,2.49-17.23,6.59-4.65-6.79-12.47-11.25-21.32-11.25-2.04,0-4.01.24-5.91.68-1.97-17.2-16.58-30.55-34.3-30.55-12.7,0-23.79,6.86-29.79,17.07-5.03-2.87-10.86-4.51-17.07-4.51-7.2,0-13.88,2.2-19.42,5.97-14.57-25.54-42.03-42.78-73.54-42.78-25.82,0-48.94,11.57-64.46,29.81-2.1-.24-4.23-.38-6.39-.38-15.2,0-28.95,6.14-38.93,16.07-5.45-5.51-13.01-8.92-21.36-8.92-4.49,0-8.74.99-12.57,2.75-10.63-25.06-35.47-42.63-64.4-42.63-24.61,0-46.24,12.71-58.71,31.92-3.52-1.19-7.3-1.85-11.23-1.85-15.09,0-27.95,9.56-32.85,22.96-.7-.04-1.41-.07-2.12-.07-8.96,0-17.13,3.38-23.32,8.92-6.29-9.2-16.88-15.23-28.87-15.23-2.75,0-5.43.33-8,.93-2.67-23.28-22.44-41.36-46.43-41.36-17.19,0-32.21,9.29-40.33,23.1-6.81-3.88-14.7-6.11-23.1-6.11-11.45,0-21.94,4.12-30.06,10.96-8.13-6.83-18.61-10.96-30.07-10.96-8.41,0-16.29,2.23-23.1,6.11-8.12-13.82-23.14-23.1-40.33-23.1-23.99,0-43.76,18.08-46.43,41.36-2.57-.6-5.24-.93-8-.93-11.99,0-22.57,6.04-28.87,15.23-6.19-5.54-14.36-8.92-23.32-8.92-.71,0-1.41.03-2.12.07-4.9-13.4-17.76-22.96-32.85-22.96-3.93,0-7.71.66-11.23,1.85-12.47-19.21-34.1-31.92-58.71-31.92-28.93,0-53.77,17.57-64.4,42.63-3.83-1.76-8.08-2.75-12.57-2.75-8.35,0-15.91,3.41-21.36,8.92-9.98-9.93-23.73-16.07-38.93-16.07-2.16,0-4.3.13-6.39.38-15.52-18.24-38.64-29.81-64.46-29.81-46.74,0-84.62,37.89-84.62,84.62h1623.25c0-34.52-27.99-62.51-62.51-62.51Z"/>
      </g>
      <path class="cls-2" d="m2529.94,166.92c-10.06,0-19.22,3.85-26.08,10.15-6.67-11.55-19.15-19.34-33.45-19.34-5.73,0-11.17,1.26-16.07,3.51-4.84-10.2-15.22-17.25-27.26-17.25-7.86,0-15.01,3-20.38,7.92-5.37-4.92-12.52-7.92-20.38-7.92-11.68,0-21.81,6.65-26.82,16.37-3.21-1.68-6.86-2.63-10.74-2.63-9.26,0-17.25,5.4-21.01,13.22-3.73-2.54-8.24-4.03-13.1-4.03s-9.21,1.44-12.91,3.91c-5.09-13.9-18.44-23.82-34.1-23.82-19.49,0-35.39,15.36-36.26,34.64-.85-.08-1.72-.13-2.6-.13-2.69,0-5.29.42-7.73,1.2-4.36-7.84-12.73-13.14-22.34-13.14-.87,0-1.73.06-2.58.15-.85-.09-1.71-.15-2.58-.15-9.61,0-17.97,5.3-22.34,13.14-2.44-.77-5.04-1.2-7.73-1.2-.88,0-1.75.05-2.6.13-.87-19.28-16.77-34.64-36.26-34.64-15.66,0-29.01,9.92-34.1,23.82-3.7-2.47-8.14-3.91-12.91-3.91s-9.37,1.49-13.1,4.03c-3.76-7.82-11.75-13.22-21.01-13.22-3.88,0-7.53.95-10.74,2.63-5.01-9.72-15.14-16.37-26.82-16.37-7.86,0-15.01,3-20.38,7.92-5.37-4.92-12.52-7.92-20.38-7.92-12.04,0-22.42,7.05-27.26,17.25-4.9-2.25-10.34-3.51-16.07-3.51-14.3,0-26.78,7.79-33.45,19.34-6.86-6.3-16.02-10.15-26.08-10.15-11.2,0-21.28,4.78-28.33,12.4-7.05-7.62-17.13-12.4-28.33-12.4-10.06,0-19.22,3.85-26.08,10.15-6.67-11.55-19.15-19.34-33.45-19.34-5.73,0-11.17,1.26-16.07,3.51-4.84-10.2-15.22-17.25-27.26-17.25-7.86,0-15.01,3-20.38,7.92-5.37-4.92-12.52-7.92-20.38-7.92-11.68,0-21.81,6.65-26.82,16.37-3.21-1.68-6.86-2.63-10.74-2.63-9.26,0-17.25,5.4-21.01,13.22-3.73-2.54-8.24-4.03-13.1-4.03s-9.21,1.44-12.91,3.91c-5.09-13.9-18.44-23.82-34.1-23.82-19.49,0-35.39,15.36-36.26,34.64-.85-.08-1.72-.13-2.6-.13-4.33,0-8.42,1.09-11.99,2.99-4.03-8.81-12.92-14.93-23.24-14.93-1.07,0-2.12.07-3.16.2-1.04-.13-2.09-.2-3.16-.2-10.32,0-19.21,6.12-23.24,14.93-3.57-1.9-7.66-2.99-11.99-2.99-.88,0-1.75.05-2.6.13-.87-19.28-16.77-34.64-36.26-34.64-15.66,0-29.01,9.92-34.1,23.82-3.7-2.47-8.14-3.91-12.91-3.91s-9.37,1.49-13.1,4.03c-3.76-7.82-11.75-13.22-21.01-13.22-3.88,0-7.53.95-10.74,2.63-5.01-9.72-15.14-16.37-26.82-16.37-7.86,0-15.01,3-20.38,7.92-5.37-4.92-12.52-7.92-20.38-7.92-12.04,0-22.42,7.05-27.26,17.25-4.9-2.25-10.34-3.51-16.07-3.51-14.3,0-26.78,7.79-33.45,19.34-6.86-6.3-16.02-10.15-26.08-10.15-6.89,0-13.35,1.81-18.95,4.98-3.86,1.77-7.21,4.47-9.75,7.83-1.26,1.41-2.43,2.91-3.48,4.49-3.42-1.71-7.29-2.69-11.38-2.69-.88,0-1.75.05-2.6.13-.87-19.28-16.77-34.64-36.26-34.64-15.66,0-29.01,9.92-34.1,23.82-3.7-2.47-8.14-3.91-12.91-3.91s-9.37,1.49-13.1,4.03c-3.76-7.82-11.75-13.22-21.01-13.22-3.88,0-7.53.95-10.74,2.63-5.01-9.72-15.14-16.37-26.82-16.37-7.86,0-15.01,3-20.38,7.92-5.37-4.92-12.52-7.92-20.38-7.92-12.04,0-22.42,7.05-27.26,17.25-4.9-2.25-10.34-3.51-16.07-3.51-14.3,0-26.78,7.79-33.45,19.34-6.86-6.3-16.02-10.15-26.08-10.15-7.9,0-15.25,2.38-21.37,6.46-3.9-2.41-8.49-3.8-13.41-3.8-10.32,0-19.21,6.12-23.24,14.93-3.57-1.9-7.66-2.99-11.99-2.99-.88,0-1.75.05-2.6.13-.87-19.28-16.77-34.64-36.26-34.64-15.66,0-29.01,9.92-34.1,23.82-3.7-2.47-8.14-3.91-12.91-3.91s-9.37,1.49-13.1,4.03c-3.76-7.82-11.75-13.22-21.01-13.22-3.88,0-7.53.95-10.74,2.63-5.01-9.72-15.14-16.37-26.82-16.37-7.86,0-15.01,3-20.38,7.92-5.37-4.92-12.52-7.92-20.38-7.92-12.04,0-22.42,7.05-27.26,17.25-4.9-2.25-10.34-3.51-16.07-3.51-14.3,0-26.78,7.79-33.45,19.34-6.86-6.3-16.02-10.15-26.08-10.15-8.12,0-15.65,2.51-21.86,6.8-4.01-2.61-8.79-4.14-13.94-4.14-10.32,0-19.21,6.12-23.24,14.93-3.57-1.9-7.66-2.99-11.99-2.99-.88,0-1.75.05-2.6.13-.87-19.28-16.77-34.64-36.26-34.64-15.66,0-29.01,9.92-34.1,23.82-3.7-2.47-8.14-3.91-12.91-3.91s-9.37,1.49-13.1,4.03c-3.76-7.82-11.75-13.22-21.01-13.22-3.88,0-7.53.95-10.74,2.63-5.01-9.72-15.14-16.37-26.82-16.37-7.86,0-15.01,3-20.38,7.92-5.37-4.92-12.52-7.92-20.38-7.92-12.04,0-22.42,7.05-27.26,17.25-4.9-2.25-10.34-3.51-16.07-3.51-14.3,0-26.78,7.79-33.45,19.34-6.86-6.3-16.02-10.15-26.08-10.15-18.04,0-33.19,12.39-37.42,29.11h2566.29c-4.23-16.72-19.38-29.11-37.42-29.11Z"/>
    </g>
  </g>
</svg>