<?xml version="1.0" encoding="UTF-8"?>
<svg id="Capa_2" data-name="Capa 2" xmlns="http://www.w3.org/2000/svg" viewBox="0 0 44.48 44.48">
  <defs>
    <style>
      .cls-1 {
        fill: #fff;
        fill-rule: evenodd;
      }

      .cls-1, .cls-2 {
        stroke-width: 0px;
      }

      .cls-2 {
        fill: #204f8f;
      }
    </style>
  </defs>
  <g id="Capa_1-2" data-name="Capa 1">
    <g>
      <circle class="cls-2" cx="22.24" cy="22.24" r="22.24"/>
      <g>
        <path class="cls-1" d="m25.37,33.97c.5.39.5,1.07.13,1.48-.32.35-1.14.44-1.46.49-.65.1-1.29.14-1.81.14-7.65,0-13.86-6.2-13.86-13.86s5.6-13.82,12.76-13.82c.93,0,2.16.47,2.36.58,6.23,3.45,2.84,11.23-9.92,12.2-1.79.14-2.43,2.44-.96,3.48l8.41,5.93c.75.53,2.59,2.01,4.35,3.38Z"/>
        <path class="cls-1" d="m36.1,22.22c0,3.09-.79,6.31-2.73,8.26-.3.3-.73.44-1.1.23l-8.87-5.04c-1.55-.88-1.16-3.22.59-3.55,12.82-2.37,9.16-7.34,4.12-12.06-.15-.14.02-.39.21-.3,4.61,2.25,7.78,6.98,7.78,12.46Z"/>
      </g>
    </g>
  </g>
</svg>