<?xml version="1.0" encoding="UTF-8"?>
<svg id="Capa_2" data-name="Capa 2" xmlns="http://www.w3.org/2000/svg" xmlns:xlink="http://www.w3.org/1999/xlink" viewBox="0 0 123.11 55.2">
  <defs>
    <style>
      .cls-1 {
        fill: #d0deb8;
        filter: url(#drop-shadow-1);
        stroke-width: 0px;
      }
    </style>
    <filter id="drop-shadow-1" filterUnits="userSpaceOnUse">
      <feOffset dx="7" dy="3"/>
      <feGaussianBlur result="blur" stdDeviation="2"/>
      <feFlood flood-color="#1d1d1b" flood-opacity=".45"/>
      <feComposite in2="blur" operator="in"/>
      <feComposite in="SourceGraphic"/>
    </filter>
  </defs>
  <g id="Capa_1-2" data-name="Capa 1">
    <path class="cls-1" d="m109.83,25.91c-2.51-2.12-10.76,2.78-14.34,5.09-.53.34-1.17-.17-1-.77,1.45-4.93.18-9.05-1.09-11.59-.31-.62-1.21-.41-1.27.27-.35,3.92-3.73,8.25-5.18,9.96-.34.4-.98.29-1.16-.21-1.7-4.73-.17-20.25.34-24.9.07-.61-.66-.99-1.12-.58-3.96,3.46-4.71,15.87-4.82,22.38-.01.76-1.07.91-1.31.2l-5.97-17.45c-.25-.72-1.32-.55-1.32.22v21.09l-2.43-25.02c-.07-.77-1.18-.83-1.33-.07l-4.38,21.18c-.03.14-.1.24-.17.32-.18.06-.37.13-.56.2-.28-.03-.55-.22-.6-.58l-1.12-8.53c-.2-1.51-2.42-1.4-2.47.12l-.39,10.84c0,.15-.06.28-.14.38-.16.09-.32.18-.47.26-.27.03-.55-.1-.69-.41-1.05-2.48-2.47-4.7-3.99-6.63-.32-1.17-.75-2.2-1.17-3.04-.31-.61-1.18-.42-1.27.24-1.9-1.98-3.76-3.51-5.1-4.51-.46-.34-1.06.16-.8.67,1.43,2.78,2.66,6.38,3.6,9.86-1.04,1.7-2.19,3.14-2.89,3.96-.34.4-.98.29-1.16-.21-1.7-4.73-.17-20.25.34-24.9.07-.61-.66-.99-1.12-.58-3.96,3.46-4.71,15.87-4.82,22.38-.01.76-1.07.91-1.31.2l-5.97-17.45c-.25-.72-1.32-.55-1.32.22v21.09l-2.43-25.02c-.08-.77-1.18-.83-1.33-.07l-4.38,21.18c-.15.75-1.23.71-1.33-.05l-1.12-8.53c-.2-1.51-2.42-1.4-2.47.12l-.39,10.84c-.03.73-1.01.9-1.29.23-2.87-6.78-8.51-11.68-11.53-13.95-.46-.34-1.06.16-.8.67,3.29,6.41,5.54,17.16,5.59,20.74,0,.46-.44.78-.88.64l-6.59-2.11c-.72-.23-1.22.73-.61,1.18,5.3,3.89,7.4,8.66,7.94,10.1.1.26.35.43.63.43h86.3c.39,0,.74-.33.7-.72-.61-6.69,11.24-16.29,13.92-18.37.34-.26.39-.75.06-1.02Z"/>
  </g>
</svg>